<ttFont>
<head>
    <!-- Most of this table will be recalculated by the compiler -->
    <tableVersion value="1.0"/>
    <fontRevision value="2.004"/>
    <checkSumAdjustment value="0xcf0a8b5a"/>
    <magicNumber value="0x5f0f3cf5"/>
    <flags value="00000000 00000011"/>
    <unitsPerEm value="1000"/>
    <created value="Thu Oct  8 10:00:44 2009"/>
    <modified value="Thu Oct  8 10:00:44 2009"/>
    <xMin value="-397"/>
    <yMin value="-264"/>
    <xMax value="1523"/>
    <yMax value="1143"/>
    <macStyle value="00000000 00000000"/>
    <lowestRecPPEM value="3"/>
    <fontDirectionHint value="2"/>
    <indexToLocFormat value="0"/>
    <glyphDataFormat value="0"/>
  </head>
          <CharString index="0">
            408 44 rmoveto
            287 vlineto
            93 -53 63 -121 -56 -40 -11 -20 -41 vhcurveto
            -19 -10 -5 -2 -11 vvcurveto
            -7 2 -21 1 -8 vhcurveto
            -23 2 1 -6 10 hhcurveto
            5 1 1 9 10 hvcurveto
            40 41 46 10 38 hhcurveto
            22 45 0 -98 hvcurveto
            -20 vlineto
            -17 -1 -1 -10 -1 vhcurveto
            -43 -2 -207 -9 -148 vvcurveto
            -72 53 -70 78 72 45 50 29 16 vhcurveto
            -25 25 callgsubr
            -111 111 rmoveto
            -91 -72 -10 -17 -40 -27 38 42 102 108 17 48 3 vhcurveto
            return
          </CharString>
          <CharString index="1">
            -107 102 rlineto
            2 -2 -3 1 -3 hhcurveto
            -111 hlineto
            -3 -3 -1 -2 -2 hvcurveto
            -110 -104 rlineto
            -7 -8 5 -13 11 hhcurveto
            47 hlineto
            5 1 112 81 112 -81 5 -1 rlineto
            47 hlineto
            11 5 15 7 -8 hvcurveto
            return
          </CharString>
          <CharString index="2">
            24 vlineto
            -104 callsubr
            return
          </CharString>
          <CharString index="3">
            38 -10 9 -35 vhcurveto
            -33 hlineto
            -34 -11 -8 -39 hvcurveto
            -24 vlineto
            -36 9 -11 -29 callgsubr
            10 10 37 hvcurveto
            return
          </CharString>
          <CharString index="4">
            rmoveto
            48 vlineto
            24 -1 0 -21 vhcurveto
            -51 hlineto
            -21 -1 0 -24 hvcurveto
            -48 vlineto
            -23 1 -1 24 vhcurveto
            -4 -11 -21 -72 -6 vvcurveto
            -11 7 0 17 19 1 1 14 6 vhcurveto
            18 34 0 2 20 41 rrcurveto
            7 15 0 2 15 vvcurveto
            endchar
          </CharString>
          <CharString index="5">
            41 callgsubr
            hintmask 11100110
            -107 callsubr
            return
          </CharString>
          <CharString index="6">
            rmoveto
            -24 115 rlineto
            20 -4 -1 1 -22 hhcurveto
            -61 hlineto
            -16 -8 0 -11 0 0 -4 6 -10 hvcurveto
            62 -109 rlineto
            -14 8 1 0 20 hhcurveto
            13 hlineto
            16 10 0 12 hvcurveto
            -158 hmoveto
            -24 115 rlineto
            20 -4 -1 1 -22 hhcurveto
            -61 hlineto
            -16 -8 0 -11 0 0 -4 6 -10 hvcurveto
            62 -109 rlineto
            -14 8 1 0 20 hhcurveto
            13 hlineto
            16 10 0 12 hvcurveto
            endchar
          </CharString>
          <CharString index="7">
            98 callsubr
            hintmask 11100100
            -106 callgsubr
            return
          </CharString>
          <CharString index="8">
            -20 -100 callsubr
            hintmask 00011000
            return
          </CharString>
          <CharString index="9">
            hlineto
            35 9 10 34 hvcurveto
            return
          </CharString>
          <CharString index="10">
            -30 callsubr
            -19 -1 -1 -10 -8 hvcurveto
            -80 -111 rlineto
            -8 -11 0 -4 0 vvcurveto
            -11 10 0 15 vhcurveto
            31 hlineto
            135 122 rlineto
            8 7 22 callsubr
          </CharString>
          <CharString index="11">
            134 callgsubr
            200 111 hintmask 10100011
            -34 callsubr
            55 -43 -65 15 -51 hhcurveto
            -55 -65 -18 -54 -40 hvcurveto
            -41 -54 -10 -67 -62 vvcurveto
            -54 7 -68 46 -56 vhcurveto
            -37 31 56 -27 71 hhcurveto
            44 66 11 51 45 hvcurveto
            95 callgsubr
            hintmask 01010011
            -67 0 -117 -100 -100 0 117 67 67 0 112 100 100 0 -113 -66 vhcurveto
            return
          </CharString>
          <CharString index="12">
            27 callgsubr
            hintmask 1001001000000000
            411 275 rmoveto
            137 -64 75 -116 -88 -117 -50 -198 -195 119 -54 98 37 31 8 14 31 vhcurveto
            19 9 44 25 19 vvcurveto
            hintmask 0110001010000000
            8 -2 19 -1 9 vhcurveto
            19 -3 0 5 -10 hhcurveto
            -5 -3 -3 -6 -5 hvcurveto
            -56 -47 -61 -6 -21 hhcurveto
            -118 0 148 30 hvcurveto
            238 hlineto
            32 12 7 36 hvcurveto
            -86 4 rmoveto
            -195 hlineto
            hintmask 0011000110000000
            -37 callgsubr
            return
          </CharString>
          <CharString index="13">
            -20 -95 callsubr
            return
          </CharString>
          <CharString index="14">
            408 447 rmoveto
            25 -22 0 -20 -29 -19 0 -40 -11 vhcurveto
            -37 -129 -31 -107 -8 -54 -2 -24 rlinecurve
            -1 22 -1 45 -81 214 rrcurveto
            62 -23 -4 11 -46 hhcurveto
            -12 hlineto
            -15 -22 0 -24 0 0 -5 5 -13 hvcurveto
            159 -416 rlineto
            4 -12 0 -3 0 vvcurveto
            -10 -17 -50 -7 -11 vhcurveto
            -14 -8 -19 -20 -33 hhcurveto
            -7 -23 1 13 -28 hvcurveto
            -5 2 -2 1 0 vvcurveto
            -7 -5 -4 -10 -8 4 -52 5 -4 hvcurveto
            -6 8 39 -4 20 hhcurveto
            78 54 57 69 21 hvcurveto
            143 479 rlineto
            5 15 0 4 0 vvcurveto
            return
          </CharString>
          <CharString index="15">
            vlineto
            -88 callgsubr
            return
          </CharString>
          <CharString index="16">
            -103 callgsubr
            endchar
          </CharString>
          <CharString index="17">
            7 8 -5 13 -11 hhcurveto
            -47 hlineto
            -5 -1 -112 -81 -112 81 -5 1 rlineto
            -47 hlineto
            -11 -5 -15 -7 8 hvcurveto
            107 -102 rlineto
            -2 2 3 -1 3 hhcurveto
            111 hlineto
            3 3 1 2 2 hvcurveto
            endchar
          </CharString>
          <CharString index="18">
            37 callsubr
            hintmask 11100100
            -102 callgsubr
            return
          </CharString>
          <CharString index="19">
            rmoveto
            8 5 -5 11 -10 hhcurveto
            -47 hlineto
            0 -4 -1 -2 -1 vhcurveto
            -98 -101 -98 101 rlineto
            -2 1 -4 1 0 vvcurveto
            -47 hlineto
            -10 -5 -13 -8 5 hvcurveto
            95 -137 rlineto
            -3 2 3 -1 4 hhcurveto
            111 hlineto
            4 3 1 3 2 hvcurveto
            endchar
          </CharString>
          <CharString index="20">
            32 -4 57 -50 59 vhcurveto
            -41 48 -44 11 -53 14 -61 16 -13 4 -17 16 rrcurveto
            -10 11 -23 22 42 vvcurveto
            71 46 28 62 70 39 -28 -28 30 vhcurveto
            -6 6 1 -1 5 106 callgsubr
            5 1 hvcurveto
            3 13 10 51 10 vvcurveto
            8 -1 1 -23 13 vhcurveto
            20 -34 -43 20 -76 hhcurveto
            -155 -57 -94 -107 -80 46 -49 5 -5 hvcurveto
            46 -48 31 -8 56 -14 21 -6 36 -9 8 -3 rrcurveto
            return
          </CharString>
          <CharString index="21">
            -20 -89 callsubr
            hintmask 00011000
            return
          </CharString>
          <CharString index="22">
            hlineto
            -83 callsubr
            return
          </CharString>
          <CharString index="23">
            685 706 rmoveto
            79 callsubr
            -83 hlineto
            -7 93 callgsubr
            -7 5 -5 7 30 callsubr
            111 callsubr
            -17 hvcurveto
            -432 vlineto
            -58 -9 -44 -26 -32 vhcurveto
            -27 -21 -36 -14 -42 hhcurveto
            -40 -35 14 27 -20 hvcurveto
            -25 32 -8 43 59 vvcurveto
            432 vlineto
            17 -14 14 -17 vhcurveto
            -59 hlineto
            -17 -15 -14 -17 hvcurveto
            -432 vlineto
            -71 19 -66 47 -47 vhcurveto
            -47 47 66 -19 71 hhcurveto
            70 65 19 47 45 hvcurveto
            46 48 19 66 70 vvcurveto
            389 vlineto
            105 77 rlineto
            3 2 2 3 4 vvcurveto
            return
          </CharString>
          <CharString index="24">
            -75 callsubr
            hvcurveto
            -604 -89 callgsubr
            return
          </CharString>
          <CharString index="25">
            558 58 rmoveto
            -6 64 rlineto
            5 -1 -4 5 -6 hhcurveto
            0 -5 -1 -2 -1 vhcurveto
            -24 -18 -25 -16 -28 -9 rrcurveto
            -9 -29 -30 -2 -30 hhcurveto
            -56 -53 24 45 -33 hvcurveto
            -42 58 -9 73 71 vvcurveto
            72 9 73 42 57 vhcurveto
            45 33 53 24 56 hhcurveto
            27 26 -3 -8 25 hvcurveto
            25 -8 23 -14 21 -15 rrcurveto
            -2 2 2 -1 3 hhcurveto
            5 5 4 6 1 hvcurveto
            14 79 rlineto
            7 -3 4 -4 2 vhcurveto
            -27 11 -28 10 -29 6 rrcurveto
            6 -29 -29 2 -30 hhcurveto
            -88 -87 -28 -66 -58 hvcurveto
            -63 -71 -19 -97 -95 vvcurveto
            -95 19 -97 63 -71 vhcurveto
            -66 58 87 -28 88 hhcurveto
            33 33 2 10 32 hvcurveto
            31 9 29 18 27 19 rrcurveto
            3 2 2 3 5 vvcurveto
            return
          </CharString>
          <CharString index="26">
            -78 callgsubr
            hintmask 00010000
            -23 -3 -10 -17 -19 hhcurveto
            -15 -17 13 10 -13 hvcurveto
            hintmask 00001000
            18 -23 -26 14 -31 hhcurveto
            -62 -33 -62 -40 hvcurveto
            hintmask 00010000
            -34 callgsubr
            hintmask 00010000
            -73 callgsubr
          </CharString>
          <CharString index="27">
            -71 callsubr
            hvcurveto
            return
          </CharString>
          <CharString index="28">
            -25 callsubr
            -74 -41 -47 -55 -25 vhcurveto
            -1 54 45 callgsubr
            -16 -80 callsubr
            -388 -89 callgsubr
            22 hlineto
            -7 callgsubr
            -31 6 -13 38 vhcurveto
            23 hlineto
            35 9 10 34 hvcurveto
            return
          </CharString>
          <CharString index="29">
            395 62 rmoveto
            7 -2 21 -1 8 vhcurveto
            23 -2 -1 5 -10 hhcurveto
            -5 -2 -1 -8 -6 hvcurveto
            -13 -13 -39 -44 -74 hhcurveto
            -97 0 126 52 73 5 106 95 55 24 -14 -25 32 hvcurveto
            -9 67 callsubr
            1 5 23 4 hvcurveto
            1 5 6 29 3 vvcurveto
            9 -3 1 -14 8 vhcurveto
            23 -39 -27 12 -64 hhcurveto
            -138 -72 -92 -158 -31 0 -87 53 -65 hvcurveto
            -48 40 61 -16 52 hhcurveto
            18 39 2 19 40 hvcurveto
            0 60 30 21 vvcurveto
            return
          </CharString>
          <CharString index="30">
            307 427 rmoveto
            29 vlineto
            21 0 5 -16 -44 -58 -30 -84 -29 vhcurveto
            -1 66 45 callgsubr
            -14 -80 callsubr
            -388 -89 callgsubr
            19 -98 callsubr
            202 vlineto
            92 56 57 69 6 vhcurveto
            17 1 1 1 24 vvcurveto
            return
          </CharString>
          <CharString index="31">
            318 50 rmoveto
            4 -6 20 -1 5 vhcurveto
            17 -5 -2 4 -8 hhcurveto
            -5 -3 -2 -10 -7 hvcurveto
            -13 -11 -25 -15 -27 hhcurveto
            -20 -14 16 63 hvcurveto
            269 74 132 callgsubr
            32 -31 0 -13 hvcurveto
            -74 91 45 callgsubr
            -13 -80 callsubr
            -90 -19 vlineto
            -13 -32 0 -32 hvcurveto
            return
          </CharString>
          <CharString index="32">
            -35 -10 -9 -36 return
          </CharString>
          <CharString index="33">
            0 0 4 -8 11 vhcurveto
            -80 111 rlineto
            10 -8 -1 1 -19 hhcurveto
            -61 hlineto
            -16 -8 0 -11 -6 2 -2 8 -7 hvcurveto
            135 -122 rlineto
            31 hlineto
            15 10 0 11 hvcurveto
            endchar
          </CharString>
          <CharString index="34">
            -23 callgsubr
            -34 -50 callsubr
            -249 -271 249 vlineto
            31 -6 13 -38 vhcurveto
            -33 -85 callsubr
            33 -98 callsubr
            276 271 -276 25 callsubr
            return
          </CharString>
          <CharString index="35">
            -97 callgsubr
            endchar
          </CharString>
          <CharString index="36">
            hlineto
            -75 callsubr
            return
          </CharString>
          <CharString index="37">
            rmoveto
            -31 -23 -2 -24 -23 -24 1 32 31 23 2 24 23 24 -1 -32 vhcurveto
            59 hmoveto
            74 -90 0 -15 -17 -90 0 -74 -74 90 0 15 17 90 0 74 vhcurveto
            return
          </CharString>
          <CharString index="38">
            73 callgsubr
            345 78 callsubr
            hintmask 0010010001000000
            -5 callgsubr
            hintmask 0010000001000000
            -6 93 callgsubr
            hintmask 1001000100100000
            -70 callgsubr
            hintmask 0100000010000000
            -8 callgsubr
            hintmask 0000101000000000
            return
          </CharString>
          <CharString index="39">
            67 19 76 45 112 vvcurveto
            110 -73 84 -162 vhcurveto
            -199 -85 callsubr
            30 -98 callsubr
            271 105 vlineto
            return
          </CharString>
          <CharString index="40">
            533 45 rmoveto
            44 -15 2 -35 vhcurveto
            -288 -4 323 531 rlineto
            9 14 0 2 17 vvcurveto
            37 -14 6 -30 vhcurveto
            -372 hlineto
            -23 -22 -1 -41 -42 19 0 35 hvcurveto
            230 3 rlineto
            36 hlineto
            -324 -533 rlineto
            -9 -14 0 -2 -19 vvcurveto
            -30 5 -15 39 vhcurveto
            392 31 callsubr
            return
          </CharString>
          <CharString index="41">
            473 45 rmoveto
            23 0 23 -42 vhcurveto
            -228 -4 rlineto
            563 vlineto
            31 -6 13 -38 vhcurveto
            -33 -85 callsubr
            303 31 callsubr
            return
          </CharString>
          <CharString index="42">
            rmoveto
            89 0 267 -195 -64 -47 -20 -48 -38 vhcurveto
            -49 -63 -1 -60 -60 vvcurveto
            -47 0 -56 32 -55 vhcurveto
            -44 25 36 -40 75 hhcurveto
            48 36 22 61 27 hvcurveto
            -4 -77 -1 -32 -15 -46 rrcurveto
            -60 -19 -42 -27 -42 hhcurveto
            -45 -20 23 12 -10 hvcurveto
            5 -5 -3 1 -4 hhcurveto
            -11 -28 -61 0 -7 40 -53 87 76 64 41 55 36 hvcurveto
            59 93 2 110 77 vvcurveto
            -116 84 rmoveto
            -18 0 -139 -87 -76 0 96 81 80 0 97 85 vhcurveto
            hintmask 00001000
            63 15 -95 -102 hvcurveto
            endchar
          </CharString>
          <CharString index="43">
            112 callgsubr
            -50 37 callgsubr
            -41 111 hintmask 1100010010000000
            -99 callgsubr
            hintmask 0010001100000000
            -311 557 -1 callsubr
            hintmask 0010000010000000
            -42 callgsubr
            -30 hlineto
            hintmask 0010000100000000
            -30 -10 -7 -35 hvcurveto
            -22 vlineto
            -32 8 -10 32 vhcurveto
            hintmask 0010000010000000
            30 hlineto
            return
          </CharString>
          <CharString index="44">
            342 140 rmoveto
            38 -12 36 -25 29 vhcurveto
            -35 39 -32 7 -39 8 rrcurveto
            -44 10 -37 8 51 vvcurveto
            45 25 14 38 63 33 -28 -15 17 vhcurveto
            -4 5 2 -1 4 134 callsubr
            22 4 hvcurveto
            2 6 5 27 4 vvcurveto
            8 -1 1 -20 10 vhcurveto
            16 -31 -32 11 -55 hhcurveto
            return
          </CharString>
          <CharString index="45">
            -20 hstemhm
            26 92 -86 86 138 86 hintmask 0011001000000000
            -63 callsubr
            hintmask 0100000110000000
            -38 callsubr
            hintmask 1000001010000000
            -21 callsubr
            return
          </CharString>
          <CharString index="46">
            381 33 rmoveto
            34 -27 0 -26 vhcurveto
            -137 -2 rlineto
            -46 hlineto
            224 339 rlineto
            10 15 0 4 11 vvcurveto
            38 -26 0 -18 vhcurveto
            -250 hlineto
            -15 -30 0 -34 -33 28 0 24 hvcurveto
            130 2 rlineto
            38 hlineto
            -224 -339 rlineto
            -10 -15 0 -4 -11 vvcurveto
            -38 26 0 18 vhcurveto
            267 hlineto
            14 30 0 33 hvcurveto
            return
          </CharString>
          <CharString index="47">
            426 44 98 callgsubr
            -217 vlineto
            18 -15 -35 31 -55 hhcurveto
            -23 -70 -5 -65 -45 hvcurveto
            -43 -63 0 -81 -32 vvcurveto
            -27 0 -79 35 -59 vhcurveto
            -71 43 62 -10 36 hhcurveto
            67 37 49 5 3 hvcurveto
            40 callsubr
            -111 57 rmoveto
            -25 -16 -26 -22 -36 hhcurveto
            -94 0 119 62 62 0 121 104 42 24 -32 -2 2 hvcurveto
            return
          </CharString>
          <CharString index="48">
            -78 callgsubr
            hintmask 00100000
            -23 -3 -10 -17 -19 hhcurveto
            -15 -17 13 10 -13 hvcurveto
            return
          </CharString>
          <CharString index="49">
            148 -291 rlineto
            -21 11 3 -3 29 hhcurveto
            42 hlineto
            13 22 0 22 hvcurveto
            -127 477 rmoveto
            -62 -17 -58 -119 vhcurveto
            -110 240 111 hlineto
            return
          </CharString>
          <CharString index="50">
            30 -12 37 -36 -58 vvcurveto
            -48 -18 -62 -89 -32 -76 7 60 -71 vhcurveto
            10 -11 -2 0 -3 hhcurveto
            -9 -2 -9 -5 -1 hvcurveto
            -3 -13 -10 -51 -10 vvcurveto
            -9 1 -1 28 -17 vhcurveto
            return
          </CharString>
          <CharString index="51">
            605 27 rmoveto
            -244 380 227 248 rlineto
            9 10 3 3 7 vvcurveto
            19 -19 0 -14 vhcurveto
            -37 hlineto
            -20 -13 0 -21 -19 hvcurveto
            -286 -312 rlineto
            289 vlineto
            31 -6 13 -38 vhcurveto
            -22 -85 callsubr
            22 -98 callsubr
            179 vlineto
            97 106 197 -306 rlineto
            -22 14 6 -1 26 hhcurveto
            39 hlineto
            21 13 0 27 hvcurveto
            return
          </CharString>
          <CharString index="52">
            29 0 173 -152 -47 -43 -20 -36 -27 vhcurveto
            -38 -52 0 -68 -25 vvcurveto
            -61 14 -141 141 152 0 173 28 vhcurveto
            return
          </CharString>
          <CharString index="53">
            hstemhm
            55 -52 callsubr
            return
          </CharString>
          <CharString index="54">
            -1 -45 35 -45 62 1 -33 callgsubr
            return
          </CharString>
          <CharString index="55">
            108 hintmask 11001000
            -74 callgsubr
            return
          </CharString>
          <CharString index="56">
            rmoveto
            503 -92 callsubr
            -31 -50 callsubr
            -497 vlineto
            -18 0 -75 -74 -19 -45 6 40 -34 vhcurveto
            8 -6 -2 2 -5 hhcurveto
            -8 -2 -4 -8 -2 hvcurveto
            -2 -8 -10 -55 -5 vvcurveto
            -10 5 -2 17 -9 vhcurveto
            -20 41 45 -14 55 hhcurveto
            99 66 61 105 hvcurveto
            return
          </CharString>
          <CharString index="57">
            hlineto
            -52 callgsubr
            return
          </CharString>
          <CharString index="58">
            -80 callsubr
            -601 -89 callgsubr
            return
          </CharString>
          <CharString index="59">
            rmoveto
            -8 9 -4 -10 -12 hhcurveto
            -67 hlineto
            -187 99 rlineto
            5 -9 -2 17 19 hhcurveto
            127 hlineto
            endchar
          </CharString>
          <CharString index="60">
            -92 callsubr
            -23 -50 callsubr
            return
          </CharString>
          <CharString index="61">
            rmoveto
            108 -60 48 -66 20 vhcurveto
            47 29 53 57 86 vvcurveto
            99 -63 66 -116 -125 -50 -106 -11 -3 27 -52 11 7 2 5 7 3 vhcurveto
            79 35 67 6 19 hhcurveto
            64 4 -51 -39 -35 -7 -37 -16 -26 hvcurveto
            -22 -36 -22 -2 -34 -3 -25 -2 -1 -1 -2 -1 rrcurveto
            -5 -3 -1 -1 -20 vvcurveto
            -12 36 callsubr
            34 hlineto
            return
          </CharString>
          <CharString index="62">
            8 -2 19 -1 9 vhcurveto
            19 -3 0 5 -10 hhcurveto
            -5 -3 -3 -5 -4 hvcurveto
            -51 -38 -45 -12 -35 hhcurveto
            -104 -4 135 43 -1 hvcurveto
            217 hlineto
            36 8 11 33 hvcurveto
            -89 3 rmoveto
            -171 hlineto
            74 4 29 70 60 hhcurveto
            73 3 -95 -49 2 hvcurveto
            return
          </CharString>
          <CharString index="63">
            -70 callsubr
            endchar
          </CharString>
          <CharString index="64">
            -8 callsubr
            98 -68 63 vhcurveto
            47 95 rlineto
            8 14 0 2 5 vvcurveto
            13 -11 19 -22 -19 -7 -13 -11 -5 vhcurveto
            -47 -92 rlineto
            15 -38 -33 0 -11 hhcurveto
            -55 -65 -18 -54 -40 hvcurveto
            -41 -54 -10 -67 -62 vvcurveto
            -30 0 -105 73 -63 vhcurveto
            -9 -19 -9 -19 -10 -18 rrcurveto
            -10 -20 -17 -34 -7 vvcurveto
            -13 11 -19 22 20 4 9 40 20 vhcurveto
            20 38 0 2 14 29 rrcurveto
            -5 14 31 -8 37 hhcurveto
            44 66 11 51 45 hvcurveto
            53 59 3 81 40 vvcurveto
            -160 178 rmoveto
            return
          </CharString>
          <CharString index="65">
            26 callsubr
            59 96 100 95 callsubr
            256 565 rmoveto
            48 vlineto
            23 -1 1 -24 vhcurveto
            4 11 21 72 6 vvcurveto
            11 -7 0 -17 -19 -1 -1 -14 -6 vhcurveto
            -18 -34 0 -2 -20 -41 rrcurveto
            -7 -15 0 -2 -15 vvcurveto
            -48 vlineto
            -24 1 0 21 vhcurveto
            51 hlineto
            21 1 0 24 hvcurveto
            170 -538 -22 callgsubr
          </CharString>
          <CharString index="66">
            606 -92 callsubr
            return
          </CharString>
          <CharString index="67">
            11 -8 0 -16 vhcurveto
            -61 hlineto
            return
          </CharString>
          <CharString index="68">
            46 callsubr
            hintmask 01010000
            12 -8 0 -19 -21 -1 -1 -14 -7 vhcurveto
            hintmask 11101000
            51 callsubr
            185 hmoveto
            -1 callgsubr
            12 -8 0 -19 -21 -1 -1 -14 -7 vhcurveto
            51 callsubr
            endchar
          </CharString>
          <CharString index="69">
            -59 -96 -14 -127 -117 108 -24 34 -7 hvcurveto
            39 -9 43 -9 -56 vvcurveto
            -61 -43 -4 -27 -30 -48 8 44 -44 vhcurveto
            10 -10 -2 0 -4 85 callsubr
            return
          </CharString>
          <CharString index="70">
            96 0 94 555 64 hstemhm
            42 133 -122 122 -88 133 0 122 1 122 45 122 -122 133 hintmask 1000001010000000
            643 44 rmoveto
            6 vlineto
            44 -18 0 -36 vhcurveto
            -15 -15 -1 -15 hhcurveto
            -57 hlineto
            -14 -2 0 -1 -6 hvcurveto
            15 46 24 39 31 46 rrcurveto
            hintmask 1101011100000000
            51 78 46 71 92 vvcurveto
            105 -56 144 -233 -238 -52 -148 -101 -91 46 -71 49 -75 vhcurveto
            33 -51 24 -38 15 -46 rrcurveto
            1 -7 -2 0 -13 hhcurveto
            -57 hlineto
            -15 -15 1 -15 hhcurveto
            hintmask 0010000000000000
            -38 -16 0 -47 hvcurveto
            hintmask 1000100000000000
            -32 4 -15 41 vhcurveto
            162 hlineto
            19 25 0 39 76 -37 87 -26 60 hvcurveto
            hintmask 1101010100000000
            -33 79 -22 57 67 vvcurveto
            132 67 52 100 115 53 -67 -117 -71 -22 -53 -45 -105 vhcurveto
            -20 -48 -31 -81 -67 vvcurveto
            -40 25 0 20 vhcurveto
            162 hlineto
            hintmask 0000000010000000
            35 9 10 34 hvcurveto
            endchar
          </CharString>
          <CharString index="71">
            41 -23 0 -21 vhcurveto
            -175 207 22 hlineto
            175 -3 rlineto
            32 16 2 43 28 -3 17 -41 hvcurveto
            -391 hlineto
            -22 -23 0 -39 -15 hvcurveto
            -228 -613 rlineto
            -4 -10 -1 -3 -5 vvcurveto
            -24 22 0 15 vhcurveto
            17 hlineto
            21 24 0 38 14 hvcurveto
            61 165 rlineto
            188 -158 105 callgsubr
            290 -98 callsubr
            -379 234 rmoveto
            -160 hlineto
            123 330 rlineto
            37 hlineto
            return
          </CharString>
          <CharString index="72">
            149 115 callsubr
            105 209 111 0 105 67 89 hintmask 10011010
            712 276 rmoveto
            49 -8 55 -28 43 vhcurveto
            58 -39 -65 6 -28 hhcurveto
            -44 -58 -12 -52 -47 hvcurveto
            45 -41 -58 19 -59 hhcurveto
            -80 -53 -35 -35 -27 hvcurveto
            -37 -48 -14 -56 -74 vvcurveto
            -32 0 -84 53 -65 vhcurveto
            -48 38 61 -20 59 hhcurveto
            53 61 15 52 46 hvcurveto
            -59 50 75 -8 34 hhcurveto
            89 61 58 17 hvcurveto
            hintmask 01111101
            -45 callsubr
            -283 -36 rmoveto
            -58 0 -131 -103 -106 0 133 56 58 0 122 106 103 0 -120 -60 vhcurveto
            endchar
          </CharString>
          <CharString index="73">
            -8 callsubr
            79 -47 59 vhcurveto
            return
          </CharString>
          <CharString index="74">
            233 rmoveto
            52 -1 54 -33 56 vhcurveto
            47 -28 -39 32 -67 hhcurveto
            -57 -35 -35 -48 -19 hvcurveto
            86 3 7 161 127 hhcurveto
            hintmask 00100000
            20 21 -5 -10 16 hvcurveto
            12 -7 4 0 0 vvcurveto
            11 0 10 16 hvcurveto
            24 vlineto
            22 0 3 -31 12 vhcurveto
            return
          </CharString>
          <CharString index="75">
            452 -11 callsubr
            -46 -3 60 48 57 hvcurveto
            21 4 6 10 28 vvcurveto
            287 vlineto
            93 -53 63 -121 -56 -40 -11 -20 -41 vhcurveto
            -19 -10 -5 -2 -11 vvcurveto
            -7 2 -21 1 -8 vhcurveto
            -23 2 1 -6 10 hhcurveto
            5 1 1 9 10 hvcurveto
            40 41 46 10 38 hhcurveto
            22 45 0 -98 hvcurveto
            -20 vlineto
            -17 -1 -1 -10 -1 vhcurveto
            -43 -2 -207 -9 -148 vvcurveto
            -72 53 -70 78 72 45 50 29 16 vhcurveto
            -25 vlineto
            -12 1 -10 3 -7 vhcurveto
            -31 -31 -25 -39 -40 vvcurveto
            -53 callsubr
            rrcurveto
            -155 288 rmoveto
            -91 -72 -10 -17 -40 -27 38 42 102 108 17 48 3 vhcurveto
            return
          </CharString>
          <CharString index="76">
            -128 -41 -10 -16 -54 0 86 51 52 0 86 54 19 38 -16 -121 vhcurveto
            return
          </CharString>
          <CharString index="77">
            rmoveto
            -40 callsubr
            return
          </CharString>
          <CharString index="78">
            17 callgsubr
            -409 403 -16 callgsubr
            292 167 rmoveto
            18 -15 17 -20 -19 -8 -13 -9 -6 vhcurveto
            -457 -723 rlineto
            -6 -9 -4 -7 -10 vvcurveto
            -19 16 -16 19 19 8 12 10 6 vhcurveto
            457 723 rlineto
            6 9 4 7 10 vvcurveto
            return
          </CharString>
          <CharString index="79">
            14 callgsubr
            hintmask 0000010000000000
            -23 -3 -10 -17 -19 hhcurveto
            -15 -17 13 10 -13 hvcurveto
            hintmask 0000001000000000
            18 -23 -26 14 -31 hhcurveto
            -62 -33 -62 -40 hvcurveto
            hintmask 0000010000000000
            -75 callgsubr
            hintmask 0000001000000000
            -72 callgsubr
            hintmask 0000010000000000
            -73 callgsubr
          </CharString>
          <CharString index="80">
            14 callgsubr
            hintmask 01000000
            -23 -3 -10 -17 -19 hhcurveto
            -15 -17 13 10 -13 hvcurveto
            hintmask 00100000
            18 -23 -26 14 -31 hhcurveto
            -62 -33 -62 -40 hvcurveto
            hintmask 01000000
            -75 callgsubr
            hintmask 00100000
            -72 callgsubr
            hintmask 01000000
            -73 callgsubr
          </CharString>
          <CharString index="81">
            -6 -10 0 -4 0 vvcurveto
            74 callgsubr
          </CharString>
          <CharString index="82">
            93 callsubr
            298 vlineto
            80 -25 60 -103 return
          </CharString>
          <CharString index="83">
            71 24 -46 -95 -44 -1 -97 -87 -24 -74 7 72 -51 hvcurveto
            13 -9 -1 1 -5 hhcurveto
            -10 -1 -6 -21 -3 hvcurveto
            -1 -6 -5 -29 -3 vvcurveto
            -14 64 -94 124 115 91 67 152 vhcurveto
            endchar
          </CharString>
          <CharString index="84">
            -152 -15 callgsubr
            return
          </CharString>
          <CharString index="85">
            rmoveto
            364 vlineto
            18 -4 8 -23 vhcurveto
            -38 hlineto
            -27 -4 -11 -14 -4 hvcurveto
            -59 -169 -24 -74 -11 -38 -7 -22 -1 -13 rlinecurve
            -1 hlineto
            -2 14 -6 24 -13 40 -26 82 rcurveline
            -54 158 rlineto
            23 -8 -16 0 -12 hhcurveto
            -37 hlineto
            -21 -6 -5 -22 hvcurveto
            -362 vlineto
            -21 5 -6 22 vhcurveto
            9 hlineto
            21 5 6 20 hvcurveto
            324 1 vlineto
            2 -19 12 -37 7 -22 25 -79 rcurveline
            54 -159 rlineto
            -23 8 15 0 15 hhcurveto
            23 8 4 21 7 hvcurveto
            57 167 rlineto
            3 6 42 130 11 vvcurveto
            -324 vlineto
            -19 4 -7 23 vhcurveto
            9 hlineto
            21 6 6 20 hvcurveto
            endchar
          </CharString>
          <CharString index="86">
            -2 -6 -9 -49 -4 vvcurveto
            -19 49 -18 16 -6 vhcurveto
            -17 47 37 0 13 hhcurveto
            103 51 52 98 hvcurveto
            return
          </CharString>
          <CharString index="87">
            46 21 16 callgsubr
            return
          </CharString>
          <CharString index="88">
            vlineto
            -23 -30 0 -32 -32 29 0 24 hvcurveto
            -363 -5 callsubr
            return
          </CharString>
          <CharString index="89">
            45 0 75 254 64 226 75 hstemhm
            81 116 154 116 -23 111 hintmask 10110100
            581 192 rmoveto
            73 -38 77 -125 21 vhcurveto
            83 19 54 54 80 vvcurveto
            91 -60 87 -169 vhcurveto
            -200 -85 callsubr
            hintmask 11111000
            225 hlineto
            175 55 99 93 hvcurveto
            -137 322 rmoveto
            -63 -38 -58 -110 vhcurveto
            -99 226 99 hlineto
            hintmask 11010100
            22 126 0 -105 hvcurveto
            23 -320 rmoveto
            -78 -53 -41 -93 vhcurveto
            -124 254 108 hlineto
            hintmask 00001000
            28 134 0 -135 hvcurveto
            endchar
          </CharString>
          <CharString index="90">
            46 68 callgsubr
            31 572 vstem
            603 27 rmoveto
            -233 340 187 289 rlineto
            6 10 2 2 5 vvcurveto
            21 -20 0 -14 vhcurveto
            -49 hlineto
            -17 -15 0 -18 -11 hvcurveto
            -128 -205 -132 202 rlineto
            19 -12 -6 2 -26 hhcurveto
            -56 hlineto
            -15 -19 0 -20 -7 2 -3 7 -10 hvcurveto
            198 -287 -213 -327 rlineto
            -8 -12 0 -3 -4 vvcurveto
            -21 18 0 16 vhcurveto
            48 hlineto
            22 10 0 22 13 hvcurveto
            153 252 158 -252 rlineto
            -20 13 6 -2 26 hhcurveto
            56 hlineto
            21 12 0 27 hvcurveto
            endchar
          </CharString>
          <CharString index="91">
            114 -107 114 hintmask 00000001
            573 22 rmoveto
            4 -1 1 -5 10 vhcurveto
            -150 287 rlineto
            return
          </CharString>
          <CharString index="92">
            -19 -80 callsubr
            return
          </CharString>
          <CharString index="93">
            54 -68 callgsubr
            return
          </CharString>
          <CharString index="94">
            vlineto
            -59 callgsubr
            return
          </CharString>
          <CharString index="95">
            -152 -10 64 144 47 131 47 0 64 hstemhm
            26 86 93 103 0 103 hintmask 00010000
            411 238 rmoveto
            195 -119 54 -98 -37 -31 -8 -14 -31 vhcurveto
            -19 -9 -44 -25 -19 vvcurveto
            hintmask 11101010
            -8 2 -19 1 -9 vhcurveto
            -19 3 0 -5 10 hhcurveto
            5 3 3 6 5 hvcurveto
            56 47 61 6 21 hhcurveto
            118 0 -148 -30 hvcurveto
            -238 hlineto
            -32 -12 -7 -36 -137 64 -75 116 88 117 50 198 hvcurveto
            -104 -40 rmoveto
            hintmask 11001100
            -72 -4 -29 -72 -69 hhcurveto
            -87 -4 93 51 -2 hvcurveto
            endchar
          </CharString>
          <CharString index="96">
            -133 -20 callgsubr
            return
          </CharString>
          <CharString index="97">
            -23 0 94 224 81 205 90 return
          </CharString>
          <CharString index="98">
            44 rmoveto
            6 vlineto
            44 -14 0 -56 vhcurveto
            -62 -1 rlineto
            -122 hlineto
            -11 -2 0 -1 -7 hvcurveto
            97 110 rlineto
            126 135 51 55 98 vvcurveto
            117 -73 106 -130 -53 -43 -18 -34 -32 vhcurveto
            -41 -45 -15 -62 -3 vvcurveto
            -6 15 -21 17 -25 vhcurveto
            -9 7 2 -3 6 134 callsubr
            14 4 hvcurveto
            59 14 24 62 71 hhcurveto
            99 3 -122 -16 -72 -39 -69 -46 -58 hvcurveto
            -171 -215 rlineto
            -9 -10 0 -2 -18 vvcurveto
            -35 9 -10 36 vhcurveto
            291 -98 callsubr
            endchar
          </CharString>
          <CharString index="99">
            448 232 rmoveto
            47 -5 return
          </CharString>
          <CharString index="100">
            64 0 2 callgsubr
            return
          </CharString>
          <CharString index="101">
            rmoveto
            24 -16 0 -15 vhcurveto
            -26 242 hlineto
            20 -7 6 -25 vhcurveto
            -37 hlineto
            -18 -5 0 -14 -7 hvcurveto
            -142 -245 rlineto
            -5 -9 0 -1 -10 vvcurveto
            -11 vlineto
            -19 4 -7 27 vhcurveto
            139 -74 hlineto
            -18 5 -8 27 vhcurveto
            12 hlineto
            25 7 6 20 hvcurveto
            74 26 vlineto
            14 17 0 24 hvcurveto
            -70 533 8 callgsubr
            13 11 7 10 6 hvcurveto
            322 146 rmoveto
            -112 hlineto
            return
          </CharString>
          <CharString index="102">
            -89 callgsubr
            19 -98 callsubr
            364 return
          </CharString>
          <CharString index="103">
            47 rmoveto
            25 -5 20 -42 vhcurveto
            -210 hlineto
            162 105 rlineto
            51 33 44 41 106 vvcurveto
            107 -98 62 -103 -71 -75 -29 -68 -37 vhcurveto
            -1 -3 -1 -5 0 vvcurveto
            -6 4 -4 5 -5 vhcurveto
            29 -29 rlineto
            -4 4 6 -7 7 hhcurveto
            3 hlineto
            10 3 12 33 18 15 rrcurveto
            16 19 26 8 26 hhcurveto
            hintmask 11010000
            47 54 -27 -58 -104 -79 -64 -40 -30 hvcurveto
            -130 -97 rlineto
            -10 -7 -10 -9 -17 vvcurveto
            -14 vlineto
            -23 16 -11 24 vhcurveto
            307 hlineto
            37 1 25 22 hvcurveto
            endchar
          </CharString>
          <CharString index="104">
            264 rmoveto
            76 -3 79 -44 61 vhcurveto
            48 -34 -60 19 -59 hhcurveto
            -59 -60 -19 -48 -34 hvcurveto
            -44 -61 -3 -79 -76 vvcurveto
            -76 3 -79 44 -61 vhcurveto
            -48 34 60 -19 59 hhcurveto
            59 60 19 48 34 hvcurveto
            44 61 3 79 76 vvcurveto
            -111 hmoveto
            -57 0 -59 -21 -52 vhcurveto
            -29 -12 -25 -22 -31 hhcurveto
            -31 -25 22 29 -12 hvcurveto
            -21 52 0 59 57 vvcurveto
            57 0 59 21 52 vhcurveto
            29 12 25 22 31 hhcurveto
            31 25 -22 -29 12 hvcurveto
            21 -52 0 -59 -57 vvcurveto
            endchar
          </CharString>
          <CharString index="105">
            64 202 36 136 59 return
          </CharString>
          <CharString index="106">
            rmoveto
            -104 callgsubr
            241 hmoveto
            22 vlineto
            return
          </CharString>
          <CharString index="107">
            -12 8 0 19 21 1 1 14 7 vhcurveto
            return
          </CharString>
          <CharString index="108">
            199 rmoveto
            90 -39 61 -77 25 vhcurveto
            85 27 18 69 53 vvcurveto
            116 -63 73 -121 -123 -61 -75 -114 -57 20 -65 83 -27 vhcurveto
            -89 -29 -27 -73 -74 vvcurveto
            -145 78 -73 119 123 74 77 141 vhcurveto
            -116 324 rmoveto
            -47 0 -69 -81 -81 0 69 47 50 0 65 81 81 0 -66 -49 vhcurveto
            2 -322 rmoveto
            -59 0 -81 -83 -83 0 81 59 56 0 86 83 83 0 -86 -56 vhcurveto
            endchar
          </CharString>
          <CharString index="109">
            -46 251 46 251 rlineto
            7 1 -5 6 -7 hhcurveto
            -42 hlineto
            -5 -4 -3 -4 -1 hvcurveto
            -94 -253 -1 -3 0 -2 1 -3 rlinecurve
            94 -253 rlineto
            -4 1 4 -3 5 hhcurveto
            42 hlineto
            7 5 6 7 -1 hvcurveto
            return
          </CharString>
          <CharString index="110">
            -200 118 return
          </CharString>
          <CharString index="111">
            593 40 rmoveto
            25 25 -25 24 -8 9 -167 166 rcurveline
            166 165 8 9 25 25 -25 24 rlinecurve
            -24 25 -25 -25 -9 -8 -165 -166 rcurveline
            -166 167 -9 8 -24 25 -25 -25 rlinecurve
            -25 -25 25 -24 8 -9 167 -166 rcurveline
            -166 -165 -8 -9 -25 -25 25 -24 rlinecurve
            24 -25 25 25 9 8 165 166 rcurveline
            166 -167 9 -8 24 -25 25 25 rlinecurve
            return
          </CharString>
          <CharString index="112">
            rmoveto
            1 3 0 2 -1 3 -94 253 rcurveline
            4 -1 -4 3 -5 hhcurveto
            -42 hlineto
            -7 -5 -6 -7 1 hvcurveto
            46 -251 -46 -251 rlineto
            -7 -1 5 -6 7 hhcurveto
            42 hlineto
            5 4 3 4 1 hvcurveto
            return
          </CharString>
          <CharString index="113">
            40 rmoveto
            41 -23 0 -21 vhcurveto
            -36 421 hlineto
            34 -9 10 -35 vhcurveto
            -52 hlineto
            -24 -7 -1 -23 -11 hvcurveto
            -197 -427 rlineto
            -7 -14 0 -2 -17 vvcurveto
            -18 -13 callsubr
            193 -123 hlineto
            -31 6 -13 38 91 callsubr
            123 36 vlineto
            62 callgsubr
            hvcurveto
            -179 41 rmoveto
            -155 hlineto
            124 288 13 31 17 44 1 12 rlinecurve
            endchar
          </CharString>
          <CharString index="114">
            243 50 callsubr
            34 9 10 34 hvcurveto
            89 callsubr
            -20 3 -12 9 -6 vhcurveto
            -32 -24 -20 -37 -1 -41 -53 callsubr
            rrcurveto
            return
          </CharString>
          <CharString index="115">
            -2 10 -13 2 -6 -3 rrcurveto
            -7 -14 -19 -4 -16 hhcurveto
            return
          </CharString>
          <CharString index="116">
            rmoveto
            11 -10 0 -15 vhcurveto
            -13 145 callgsubr
            -12 -8 hvcurveto
            return
          </CharString>
          <CharString index="117">
            23 callgsubr
            -53 106 hlineto
            28 3 34 30 17 15 -7 -13 11 vhcurveto
            -3 3 3 -2 4 61 callsubr
            28 vlineto
            23 0 1 -22 6 vhcurveto
            return
          </CharString>
          <CharString index="118">
            -89 callgsubr
            22 hlineto
            18 25 0 35 1 hvcurveto
            -19 15 31 -26 49 hhcurveto
            50 59 19 59 39 hvcurveto
            40 60 0 80 29 vvcurveto
            -111 1 rmoveto
            -63 0 -121 -104 -38 -22 27 13 -8 vhcurveto
            267 vlineto
            18 0 6 26 18 vhcurveto
            11 18 20 4 14 hhcurveto
            94 0 -119 -61 hvcurveto
            endchar
          </CharString>
          <CharString index="119">
            32 23 callgsubr
            -61 605 hlineto
            18 0 26 -38 -21 -5 -6 -11 -9 vhcurveto
            -42 -50 -65 -1 -21 -1 rrcurveto
            -28 -1 -7 -20 -11 vvcurveto
            -32 30 0 11 27 30 6 9 26 vhcurveto
            -531 -67 vlineto
            hintmask 10010000
            -13 -32 0 -32 -32 32 0 13 hvcurveto
            240 hlineto
            56 callsubr
            endchar
          </CharString>
          <CharString index="120">
            -11 callsubr
            -23 -12 96 callsubr
            return
          </CharString>
          <CharString index="121">
            32 rmoveto
            18 -13 14 -25 vhcurveto
            -67 442 hlineto
            28 -16 12 -21 -18 -10 -9 -10 -13 vhcurveto
            -33 -21 -35 -5 -38 -3 rrcurveto
            -13 hlineto
            -19 -20 -9 -23 -21 18 -12 23 27 31 3 8 25 hvcurveto
            -380 -71 vlineto
            -26 -14 -12 -20 -18 13 -14 22 hvcurveto
            256 hlineto
            22 15 14 18 hvcurveto
            endchar
          </CharString>
          <CharString index="122">
            -89 callgsubr
            22 -98 callsubr
            158 vlineto
            -39 36 31 -6 29 hhcurveto
            57 57 27 49 32 hvcurveto
            36 57 5 61 54 vvcurveto
            -111 -2 rmoveto
            -28 0 -154 -104 -43 -23 36 3 -2 vhcurveto
            282 vlineto
            22 19 28 15 30 hhcurveto
            95 0 -146 -30 hvcurveto
            endchar
          </CharString>
          <CharString index="123">
            -20 97 106 hstem
            53 105 6 90 vstem
            264 466 110 callsubr
            -17 -80 callsubr
            -17 -13 callsubr
            18 -98 callsubr
            131 -581 rmoveto
            3 -8 21 -4 12 vhcurveto
            28 -11 -1 1 -7 hhcurveto
            -4 -4 -3 -7 -7 hvcurveto
            return
          </CharString>
          <CharString index="124">
            106 260 128 callsubr
            392 rmoveto
            54 vlineto
            26 -1 0 -24 vhcurveto
            -55 hlineto
            -25 -1 -1 -25 hvcurveto
            -54 35 callsubr
            -366 vmoveto
            -14 callsubr
            return
          </CharString>
          <CharString index="125">
            -326 477 106 111 -20 hstem
            79 106 vstem
            185 46 callsubr
            12 -8 0 -19 -21 -1 -1 -14 -7 vhcurveto
            51 callsubr
            endchar
          </CharString>
          <CharString index="126">
            36 105 156 111 return
          </CharString>
          <CharString index="127">
            294 305 rmoveto
            19 -23 0 -9 vhcurveto
            -44 363 hlineto
            11 0 15 -27 -15 -4 -3 -7 -6 vhcurveto
            -31 -30 -46 0 -16 -1 rrcurveto
            return
          </CharString>
          <CharString index="128">
            107 -19 72 590 70 return
          </CharString>
          <CharString index="129">
            2 2 6 vvcurveto
            endchar
          </CharString>
          <CharString index="130">
            32 callgsubr
            115 -21 148 -20 -54 callsubr
            return
          </CharString>
          <CharString index="131">
            hstemhm
            42 133 callsubr
            0 85 callgsubr
            return
          </CharString>
          <CharString index="132">
            -13 callsubr
            34 -98 callsubr
            return
          </CharString>
          <CharString index="133">
            -107 -187 64 144 64 333 64 return
          </CharString>
          <CharString index="134">
            21 34 callsubr
            return
          </CharString>
          <CharString index="135">
            -243 -21 100 96 return
          </CharString>
          <CharString index="136">
            rmoveto
            24 -19 19 -24 -24 -19 -19 -24 -24 19 -19 24 24 19 19 24 vhcurveto
            return
          </CharString>
          <CharString index="137">
            vhcurveto
            1 hlineto
            -21 -17 rlineto
            10 -5 -11 7 -12 hhcurveto
            return
          </CharString>
          <CharString index="138">
            hlineto
            40 4 15 30 hvcurveto
            return
          </CharString>
          <CharString index="139">
            38 callgsubr
            -409 403 rmoveto
            return
          </CharString>
          <CharString index="140">
            934 vlineto
            14 0 19 -20 -20 0 -19 -14 vhcurveto
            -934 vlineto
            -14 0 -19 20 20 0 19 14 vhcurveto
            return
          </CharString>
          <CharString index="141">
            -21 694 -20 return
          </CharString>
          <CharString index="142">
            36 callsubr
            56 hlineto
            24 1 0 26 hvcurveto
            return
          </CharString>
          <CharString index="143">
            vlineto
            -26 1 0 24 vhcurveto
            return
          </CharString>
          <CharString index="144">
            hstemhm
            81 122 return
          </CharString>
          <CharString index="145">
            -20 -10 -20 -11 -17 -14 -54 -44 rcurveline
            hintmask 10010000
            14 -17 rlineto
            41 49 53 30 51 hhcurveto
            40 29 -17 -20 35 hvcurveto
            -17 29 31 -17 40 hhcurveto
            hintmask 01000000
            25 26 8 10 22 hvcurveto
            return
          </CharString>
          <CharString index="146">
            hstemhm
            54 111 41 111 0 111 -109 105 9 105 return
          </CharString>
          <CharString index="147">
            -59 callgsubr
            23 -98 callsubr
            return
          </CharString>
          <CharString index="148">
            vstem
            538 182 rmoveto
            172 vlineto
            83 -3 0 -77 vhcurveto
            -178 hlineto
            -77 -3 0 -83 hvcurveto
            -172 vlineto
            -80 3 -3 80 vhcurveto
            175 hlineto
            77 3 0 83 hvcurveto
            return
          </CharString>
          <CharString index="149">
            34 51 vvcurveto
            60 -46 39 -83 -90 -36 -63 -7 -2 19 -31 8 5 2 3 4 2 vhcurveto
            48 25 48 3 14 hhcurveto
            46 3 -30 -24 -21 -5 -22 -12 -15 hvcurveto
            return
          </CharString>
          <CharString index="150">
            rmoveto
            -31 callsubr
            return
          </CharString>
          <CharString index="151">
            49 callsubr
            -20 return
          </CharString>
          <CharString index="152">
            -53 callsubr
            -9 29 rcurveline
            8 callsubr
            -23 return
          </CharString>
          <CharString index="153">
            503 rmoveto
            -1 callgsubr
            return
          </CharString>
          <CharString index="154">
            hlineto
            17 15 15 17 hvcurveto
            102 callgsubr
            return
          </CharString>
          <CharString index="155">
            69 0 62 176 69 59 62 return
          </CharString>
          <CharString index="156">
            67 -19 75 638 return
          </CharString>
          <CharString index="157">
            13 callsubr
            26 10 25 18 19 rrcurveto
            return
          </CharString>
          <CharString index="158">
            -50 -105 rlineto
            -71 35 callsubr
            return
          </CharString>
          <CharString index="159">
            -159 -177 92 callsubr
            return
          </CharString>
          <CharString index="160">
            -5 1 -5 hhcurveto
            -4 -4 -1 -1 -3 hvcurveto
            return
          </CharString>
          <CharString index="161">
            -307 27 callsubr
            return
          </CharString>
          <CharString index="162">
            75 callsubr
            hstem
            return
          </CharString>
          <CharString index="163">
            42 callgsubr
            hvcurveto
            return
          </CharString>
          <CharString index="164">
            rmoveto
            -14 17 rlineto
            -41 -49 -53 -30 -51 hhcurveto
            -40 -29 17 20 -35 hvcurveto
            17 -29 -31 17 -40 hhcurveto
            hintmask 00100000
            -25 -26 -8 -10 -22 hvcurveto
            return
          </CharString>
          <CharString index="165">
            115 163 116 -115 115 hintmask 11110100
            return
          </CharString>
          <CharString index="166">
            -7 -7 0 -1 -6 hvcurveto
            -16 -2 -13 -13 -16 vvcurveto
            return
          </CharString>
          <CharString index="167">
            vlineto
            18 -15 14 -17 vhcurveto
            return
          </CharString>
          <CharString index="168">
            hhcurveto
            11 0 9 16 hvcurveto
            return
          </CharString>
          <CharString index="169">
            572 157 rmoveto
            31 -25 25 -31 -30 -26 -25 -31 -31 -11 -33 -28 -23 -23 5 6 -22 vhcurveto
            -38 10 -39 9 -39 3 return
          </CharString>
          <CharString index="170">
            -344 -177 73 576 -20 return
          </CharString>
          <CharString index="171">
            74 callsubr
            hstemhm
            return
          </CharString>
          <CharString index="172">
            hstem
            56 103 callsubr
            450 return
          </CharString>
          <CharString index="173">
            88 21 -21 320 81 293 -20 return
          </CharString>
          <CharString index="174">
            9 121 callsubr
            9 return
          </CharString>
          <CharString index="175">
            -107 21 133 callgsubr
            return
          </CharString>
          <CharString index="176">
            25 callgsubr
            -169 396 23 callgsubr
            -53 106 hlineto
            return
          </CharString>
          <CharString index="177">
            vstem
            559 51 rmoveto
            7 -5 46 -1 7 vhcurveto
            4 -1 -1 8 -9 hhcurveto
            -3 -2 0 -9 -12 hvcurveto
            -34 -47 return
          </CharString>
          <CharString index="178">
            633 342 rmoveto
            104 -20 78 -44 63 vhcurveto
            74 -51 -87 33 -87 hhcurveto
            -218 -80 callsubr
            return
          </CharString>
          <CharString index="179">
            3 callsubr
            72 return
          </CharString>
          <CharString index="180">
            -7 67 callsubr
            2 9 5 1 hvcurveto
            3 13 10 51 10 vvcurveto
            10 -4 1 -21 9 vhcurveto
            return
          </CharString>
          <CharString index="181">
            103 callgsubr
            694 -20 return
          </CharString>
          <CharString index="182">
            -21 148 -20 return
          </CharString>
          <CharString index="183">
            127 callgsubr
            171 75 448 -20 return
          </CharString>
          <CharString index="184">
            5 -5 6 vhcurveto
            4 hlineto
            -31 return
          </CharString>
          <CharString index="185">
            123 -116 105 -94 105 return
          </CharString>
          <CharString index="186">
            83 vlineto
            6 -5 5 -6 vhcurveto
            return
          </CharString>
          <CharString index="187">
            -5 callsubr
            50 vlineto
            56 callsubr
            return
          </CharString>
          <CharString index="188">
            87 callgsubr
            71 105 129 122 hintmask 00100000
            427 return
          </CharString>
          <CharString index="189">
            -31 callsubr
            endchar
          </CharString>
          <CharString index="190">
            24 21 79 callgsubr
            return
          </CharString>
          <CharString index="191">
            hstem
            212 59 94 59 vstem
            365 return
          </CharString>
          <CharString index="192">
            hhcurveto
            -9 -2 -9 -3 hvcurveto
            return
          </CharString>
          <CharString index="193">
            hstemhm
            53 122 return
          </CharString>
          <CharString index="194">
            111 178 111 vstem
            return
          </CharString>
          <CharString index="195">
            -23 -21 8 34 hvcurveto
            25 vlineto
            16 4 28 25 vhcurveto
            1 4 4 0 4 hhcurveto
            return
          </CharString>
          <CharString index="196">
            606 47 callgsubr
            -604 vlineto
            return
          </CharString>
          <CharString index="197">
            -19 80 282 64 231 75 return
          </CharString>
          <CharString index="198">
            vhcurveto
            17 -98 callsubr
            return
          </CharString>
          <CharString index="199">
            71 34 71 473 -20 return
          </CharString>
          <CharString index="200">
            428 44 rmoveto
            return
          </CharString>
          <CharString index="201">
            hstemhm
            54 111 15 123 14 111 return
          </CharString>
          <CharString index="202">
            -20 hstem
            32 103 callsubr
            return
          </CharString>
          <CharString index="203">
            15 21 1 hvcurveto
            1 return
          </CharString>
          <CharString index="204">
            -21 472 -20 return
          </CharString>
          <CharString index="205">
            hstemhm
            35 565 return
          </CharString>
          <CharString index="206">
            hlineto
            -6 -4 -4 -5 -1 hvcurveto
            -10 -54 rlineto
            -8 5 -5 6 vhcurveto
            return
          </CharString>
          <CharString index="207">
            118 hstem
            70 123 vstem
            193 return
          </CharString>
          <CharString index="208">
            -179 0 67 338 67 return
          </CharString>
          <CharString index="209">
            -229 -21 1000 -20 hstem
            return
          </CharString>
          <CharString index="210">
            31 callgsubr
            vstem
            return
          </CharString>
          <CharString index="211">
            -9 0 91 519 84 return
          </CharString>
          <CharString index="212">
            -65 -83 -8 -108 -68 vvcurveto
            -78 13 -118 71 -77 vhcurveto
            return
          </CharString>
          <CharString index="213">
            hstem
            81 122 return
          </CharString>
          <CharString index="214">
            64 hstemhm
            78 108 155 108 155 108 return
          </CharString>
          <CharString index="215">
            360 4 -21 247 70 247 -20 hstem
            896 return
          </CharString>
          <CharString index="216">
            vlineto
            38 -10 9 -35 vhcurveto
            -33 hlineto
            return
          </CharString>
          <CharString index="217">
            rmoveto
            127 callsubr
            return
          </CharString>
          <CharString index="218">
            -47 hlineto
            -18 -14 -14 return
          </CharString>
          <CharString index="219">
            hlineto
            -13 -26 0 -26 return
          </CharString>
          <CharString index="220">
            vlineto
            -14 0 -30 30 31 0 29 15 vhcurveto
            783 return
          </CharString>
          <CharString index="221">
            41 66 41 hstem
            -332 59 94 59 vstem
            -179 return
          </CharString>
          <CharString index="222">
            -15 callgsubr
            hstemhm
            26 return
          </CharString>
          <CharString index="223">
            -186 80 66 75 141 66 229 75 hstemhm
            return
          </CharString>
          <CharString index="224">
            106 hstem
            -383 56 callgsubr
            vstem
            -272 return
          </CharString>
          <CharString index="225">
            86 callsubr
            112 123 111 122 return
          </CharString>
          <CharString index="226">
            -107 -146 -21 157 return
          </CharString>
          <CharString index="227">
            46 27 callsubr
            return
          </CharString>
          <CharString index="228">
            2 0 3 hhcurveto
            return
          </CharString>
          <CharString index="229">
            -21 162 -20 return
          </CharString>
          <CharString index="230">
            53 535 -20 hstemhm
            54 111 41 111 return
          </CharString>
          <CharString index="231">
            -56 64 275 64 0 64 275 64 hstemhm
            return
          </CharString>
          <CharString index="232">
            79 callgsubr
            hstemhm
            81 119 return
          </CharString>
          <CharString index="233">
            106 -27 106 0 106 hintmask 10100000
            return
          </CharString>
          <CharString index="234">
            18 -92 callsubr
            return
          </CharString>
          <CharString index="235">
            106 hstem
            79 106 vstem
            185 return
          </CharString>
          <CharString index="236">
            -201 -21 972 -20 hstem
            return
          </CharString>
          <CharString index="237">
            106 callsubr
            vstem
            return
          </CharString>
          <CharString index="238">
            75 callsubr
            hstemhm
            return
          </CharString>
          <CharString index="239">
            -20 21 -20 hstemhm
            return
          </CharString>
          <CharString index="240">
            116 -105 105 return
          </CharString>
          <CharString index="241">
            hhcurveto
            9 1 5 return
          </CharString>
          <CharString index="242">
            -244 -10 70 348 64 135 -20 return
          </CharString>
          <CharString index="243">
            -21 4 -12 vhcurveto
            -28 11 1 -1 7 hhcurveto
            return
          </CharString>
          <CharString index="244">
            146 callsubr
            hstemhm
            42 133 callsubr
            return
          </CharString>
          <CharString index="245">
            64 -9 64 41 callgsubr
            return
          </CharString>
          <CharString index="246">
            vlineto
            -17 14 -15 18 18 14 15 17 vhcurveto
            return
          </CharString>
          <CharString index="247">
            vlineto
            18 -14 14 -18 -18 -14 -14 -18 vhcurveto
            return
          </CharString>
          <CharString index="248">
            17 -19 86 560 86 hstem
            53 122 return
          </CharString>
          <CharString index="249">
            hstemhm
            -47 111 -9 108 -7 111 return
          </CharString>
          <CharString index="250">
            hlineto
            -24 -19 -14 -17 -16 19 -14 24 hvcurveto
            return
          </CharString>
          <CharString index="251">
            -146 -21 167 81 465 -20 hstem
            return
          </CharString>
          <CharString index="252">
            -21 221 -20 return
          </CharString>
          <CharString index="253">
            93 552 87 return
          </CharString>
        <CharString name=".notdef">
          -310 endchar
        </CharString>
        <CharString name="A">
          -10 callgsubr
          hstem
          35 565 vstem
          -106 callgsubr
          endchar
        </CharString>
        <CharString name="AE">
          72 callgsubr
          hstemhm
          399 121 hintmask 10010100
          24 callgsubr
          hintmask 11011100
          -36 callsubr
          endchar
        </CharString>
        <CharString name="AE.dup">
          72 callgsubr
          hstemhm
          399 121 hintmask 10010100
          24 callgsubr
          hintmask 11011100
          -36 callsubr
          endchar
        </CharString>
        <CharString name="AEacute">
          72 callgsubr
          120 callgsubr
          399 121 hintmask 10010001
          24 callgsubr
          hintmask 11011001
          -36 callsubr
          hintmask 00000110
          186 244 -95 callgsubr
        </CharString>
        <CharString name="Aacute">
          -10 callgsubr
          100 -21 121 -99 callsubr
          143 421 -95 callgsubr
        </CharString>
        <CharString name="Abreve">
          -10 callgsubr
          79 80 59 -99 callsubr
          29 callgsubr
          endchar
        </CharString>
        <CharString name="Abreveacute">
          -10 callgsubr
          79 80 230 -99 callsubr
          29 callgsubr
          -33 184 -95 callgsubr
        </CharString>
        <CharString name="Abrevedotbelow">
          76 callsubr
          79 80 59 -20 98 callsubr
          -344 123 hintmask 01111110
          -106 callgsubr
          29 callgsubr
          hintmask 10000001
          -103 -1010 rmoveto
          -105 callsubr
          endchar
        </CharString>
        <CharString name="Abrevegrave">
          -10 callgsubr
          79 80 59 -99 callsubr
          29 callgsubr
          -32 103 -48 callsubr
        </CharString>
        <CharString name="Abrevehookabove">
          -10 callgsubr
          79 80 100 80 32 80 18 -20 98 callsubr
          hintmask 11100001
          -106 callgsubr
          hintmask 00010100
          29 callgsubr
          -70 209 rmoveto
          23 -8 22 -18 14 vhcurveto
          hintmask 00000010
          14 -20 -24 4 -29 hhcurveto
          -34 -32 -18 -29 -18 hvcurveto
          -1 -2 -1 -4 0 vvcurveto
          1 -4 14 -40 3 -3 4 -3 rlineto
          4 hlineto
          3 hlineto
          1 1 4 2 rlineto
          1 2 1 3 0 vvcurveto
          32 8 19 22 23 hhcurveto
          11 7 -2 -5 4 hvcurveto
          4 -5 1 -8 -16 vvcurveto
          hintmask 00001100
          -10 -2 -7 -4 -4 vhcurveto
          -25 -25 -14 -33 -35 vvcurveto
          -19 vlineto
          -6 5 -5 6 vhcurveto
          14 hlineto
          6 5 5 6 hvcurveto
          19 vlineto
          22 16 15 36 23 vhcurveto
          3 1 rlineto
          17 12 9 20 21 vvcurveto
          endchar
        </CharString>
        <CharString name="Abrevetilde">
          -10 callgsubr
          79 80 129 64 -9 64 98 callsubr
          hintmask 11100010
          -106 callgsubr
          hintmask 00010100
          29 callgsubr
          -5 207 -78 callgsubr
          hintmask 00001000
          -23 -3 -10 -17 -19 hhcurveto
          -15 -17 13 10 -13 hvcurveto
          hintmask 00000100
          18 -23 -26 14 -31 hhcurveto
          -62 -33 -62 -40 hvcurveto
          hintmask 00001000
          -75 callgsubr
          hintmask 00000100
          -72 callgsubr
          hintmask 00001000
          -73 callgsubr
        </CharString>
        <CharString name="Acaron">
          -10 callgsubr
          90 -21 127 -66 callgsubr
          419 rmoveto
          -90 callsubr
        </CharString>
        <CharString name="Acircumflex">
          -10 callgsubr
          90 -21 127 -66 callgsubr
          334 rmoveto
          -106 callsubr
          endchar
        </CharString>
        <CharString name="Acircumflexacute">
          -10 callgsubr
          90 -21 298 -66 callgsubr
          334 rmoveto
          -106 callsubr
          -42 254 -95 callgsubr
        </CharString>
        <CharString name="Acircumflexdotbelow">
          76 callsubr
          90 -21 127 -20 98 callsubr
          -344 123 hintmask 01111110
          -106 callgsubr
          140 334 rmoveto
          -106 callsubr
          hintmask 10000001
          -112 -918 rmoveto
          -105 callsubr
          endchar
        </CharString>
        <CharString name="Acircumflexgrave">
          -10 callgsubr
          90 -21 127 -66 callgsubr
          334 rmoveto
          -106 callsubr
          -41 173 -48 callsubr
        </CharString>
        <CharString name="Acircumflexhookabove">
          -10 callgsubr
          90 -21 378 -66 callgsubr
          334 -96 callgsubr
        </CharString>
        <CharString name="Acircumflextilde">
          -10 callgsubr
          90 -21 197 64 -9 64 98 callsubr
          hintmask 11100010
          -106 callgsubr
          hintmask 00010100
          140 334 -57 callgsubr
        </CharString>
        <CharString name="Adblgrave">
          -10 callgsubr
          100 -21 148 -99 callsubr
          78 334 -101 callsubr
        </CharString>
        <CharString name="Adieresis">
          -10 callgsubr
          69 106 98 callsubr
          -457 37 callgsubr
          hintmask 11101000
          -106 callgsubr
          hintmask 00010110
          -97 354 -86 callgsubr
          endchar
        </CharString>
        <CharString name="Adotbelow">
          76 callsubr
          98 callsubr
          -344 123 hintmask 01111000
          -106 callgsubr
          hintmask 10000100
          28 -584 rmoveto
          -105 callsubr
          endchar
        </CharString>
        <CharString name="Agrave">
          -10 callgsubr
          100 -21 121 -99 callsubr
          53 340 -65 callgsubr
        </CharString>
        <CharString name="Ahookabove">
          -10 callgsubr
          90 -21 221 -99 callsubr
          60 456 -107 callgsubr
        </CharString>
        <CharString name="Alpha">
          -10 callgsubr
          hstem
          35 565 vstem
          -106 callgsubr
          endchar
        </CharString>
        <CharString name="Amacron">
          -10 callgsubr
          89 73 98 callsubr
          hintmask 11101000
          -106 callgsubr
          hintmask 00010000
          139 358 -91 callgsubr
        </CharString>
        <CharString name="Aogonek">
          118 callgsubr
          -30 callgsubr
          endchar
        </CharString>
        <CharString name="Aogonekacute">
          118 callgsubr
          80 -21 121 -20 -30 callgsubr
          hintmask 00001100
          143 421 -95 callgsubr
        </CharString>
        <CharString name="Aring">
          -20 callsubr
          41 66 41 98 callsubr
          -388 59 94 59 hintmask 11101000
          -106 callgsubr
          hintmask 00110110
          14 337 -44 callsubr
        </CharString>
        <CharString name="Aringacute">
          -20 callsubr
          41 66 41 171 -20 98 callsubr
          -388 59 94 59 hintmask 11100100
          -106 callgsubr
          hintmask 00111011
          14 337 -70 callsubr
          24 223 -95 callgsubr
        </CharString>
        <CharString name="Atilde">
          -10 callgsubr
          69 64 -9 64 -100 callsubr
          hintmask 00001000
          126 414 -81 callsubr
        </CharString>
        <CharString name="B">
          -18 callsubr
        </CharString>
        <CharString name="Beta">
          -18 callsubr
        </CharString>
        <CharString name="C">
          17 -10 86 542 86 hstem
          53 122 vstem
          -82 callsubr
          endchar
        </CharString>
        <CharString name="Cacute">
          17 -10 86 542 86 70 -21 121 73 callgsubr
          hintmask 11001000
          -82 callsubr
          hintmask 00110000
          -48 794 -95 callgsubr
        </CharString>
        <CharString name="Ccaron">
          17 -10 86 542 86 60 -21 127 73 callgsubr
          hintmask 11001000
          -82 callsubr
          hintmask 00110000
          -51 792 rmoveto
          -90 callsubr
        </CharString>
        <CharString name="Ccedilla">
          141 callsubr
          70 callsubr
          -33 -13 -70 hhcurveto
          -179 -21 179 101 49 0 231 197 65 40 -21 -22 32 hvcurveto
          73 callsubr
          17 -45 -44 11 -63 hhcurveto
          -94 -91 -30 -77 -60 hvcurveto
          105 callsubr
          -63 59 78 -30 99 hhcurveto
          70 38 10 36 56 hvcurveto
          21 15 1 1 8 vvcurveto
          -179 -102 51 callgsubr
          -26 callsubr
        </CharString>
        <CharString name="Ccircumflex">
          17 -10 86 542 86 60 -21 127 73 callgsubr
          hintmask 11001000
          -82 callsubr
          hintmask 00110000
          -51 707 rmoveto
          -106 callsubr
          endchar
        </CharString>
        <CharString name="Cdotaccent">
          17 -10 86 542 86 39 118 86 callsubr
          97 123 hintmask 11010000
          -82 callsubr
          hintmask 00101000
          -163 732 rmoveto
          -105 callsubr
          endchar
        </CharString>
        <CharString name="Chi">
          -17 callsubr
        </CharString>
        <CharString name="D">
          98 0 75 544 75 hstem
          81 119 314 119 vstem
          -41 callgsubr
          endchar
        </CharString>
        <CharString name="Dcaron">
          98 0 75 544 75 70 -21 127 -20 hstemhm
          81 119 314 119 hintmask 11001100
          -41 callgsubr
          hintmask 00111000
          -85 508 rmoveto
          -90 callsubr
        </CharString>
        <CharString name="Dcroat">
          -19 callgsubr
        </CharString>
        <CharString name="Ddotbelow">
          98 3 callsubr
          82 75 544 75 hstemhm
          81 119 -6 123 197 119 hintmask 01110100
          -41 callgsubr
          hintmask 10001000
          -197 -495 rmoveto
          -105 callsubr
          endchar
        </CharString>
        <CharString name="Delta">
          202 0 110 584 -20 hstem
          51 689 vstem
          740 24 rmoveto
          5 -1 2 -5 12 vhcurveto
          -248 612 rlineto
          39 -16 -22 0 -25 hhcurveto
          -55 hlineto
          -23 -25 0 -38 -15 hvcurveto
          -248 -613 rlineto
          -6 -13 0 -2 -4 vvcurveto
          -24 21 0 17 vhcurveto
          613 hlineto
          17 21 0 24 hvcurveto
          -165 86 rmoveto
          -379 hlineto
          189 481 rlineto
          endchar
        </CharString>
        <CharString name="Dlinebelow">
          98 -177 73 104 75 544 75 hstemhm
          81 119 314 119 hintmask 01111000
          -41 callgsubr
          hintmask 10000000
          -86 -493 -91 callgsubr
        </CharString>
        <CharString name="E">
          -10 callsubr
          130 callsubr
          -102 callgsubr
          endchar
        </CharString>
        <CharString name="Eacute">
          -10 callsubr
          80 -21 121 -86 callsubr
          -67 808 -95 callgsubr
        </CharString>
        <CharString name="Ebreve">
          -10 callsubr
          59 80 59 -86 callsubr
          -79 813 -91 callsubr
        </CharString>
        <CharString name="Ecaron">
          -10 callsubr
          70 -21 127 -54 callgsubr
          806 rmoveto
          -90 callsubr
        </CharString>
        <CharString name="Ecircumflex">
          -10 callsubr
          70 -21 127 -54 callgsubr
          721 rmoveto
          -106 callsubr
          endchar
        </CharString>
        <CharString name="Ecircumflexacute">
          -10 callsubr
          70 -21 298 -54 callgsubr
          721 rmoveto
          -106 callsubr
          -42 254 -95 callgsubr
        </CharString>
        <CharString name="Ecircumflexdotbelow">
          -23 3 callsubr
          82 94 224 81 205 90 70 -21 127 112 callgsubr
          18 123 hintmask 01111110
          -102 callgsubr
          -70 721 rmoveto
          -106 callsubr
          hintmask 10000001
          -112 -918 rmoveto
          -105 callsubr
          endchar
        </CharString>
        <CharString name="Ecircumflexgrave">
          -10 callsubr
          70 -21 127 -54 callgsubr
          721 rmoveto
          -106 callsubr
          -41 173 -48 callsubr
        </CharString>
        <CharString name="Ecircumflexhookabove">
          -10 callsubr
          70 -21 378 -54 callgsubr
          721 -96 callgsubr
        </CharString>
        <CharString name="Ecircumflextilde">
          -10 callsubr
          70 -21 197 128 callgsubr
          hintmask 11100010
          -102 callgsubr
          hintmask 00010100
          -70 721 -57 callgsubr
        </CharString>
        <CharString name="Edblgrave">
          -10 callsubr
          80 -21 148 -86 callsubr
          -105 721 -101 callsubr
        </CharString>
        <CharString name="Edieresis">
          -10 callsubr
          49 106 37 callsubr
          -95 37 callgsubr
          hintmask 11101000
          -102 callgsubr
          hintmask 00010110
          -307 741 -86 callgsubr
          endchar
        </CharString>
        <CharString name="Edotaccent">
          -10 callsubr
          49 118 37 callsubr
          18 123 hintmask 11101000
          -102 callgsubr
          hintmask 00010100
          -182 746 rmoveto
          -105 callsubr
          endchar
        </CharString>
        <CharString name="Edotbelow">
          -23 3 callsubr
          82 94 224 81 205 90 37 callsubr
          18 123 hintmask 01111000
          -102 callgsubr
          hintmask 10000100
          -182 -197 rmoveto
          -105 callsubr
          endchar
        </CharString>
        <CharString name="Egrave">
          -10 callsubr
          80 -21 121 -86 callsubr
          -157 727 -65 callgsubr
        </CharString>
        <CharString name="Ehookabove">
          -10 callsubr
          70 -21 221 -86 callsubr
          -150 843 -107 callgsubr
        </CharString>
        <CharString name="Emacron">
          -10 callsubr
          69 73 37 callsubr
          hintmask 11101000
          -102 callgsubr
          hintmask 00010000
          -71 745 -91 callgsubr
        </CharString>
        <CharString name="Eng">
          88 601 112 37 callsubr
          -77 77 146 callgsubr
          hintmask 10100000
          596 347 rmoveto
          181 -65 185 -158 -64 -59 -21 -36 -47 vhcurveto
          27 -1 -8 11 -35 hhcurveto
          -33 hlineto
          hintmask 01000000
          -75 callsubr
          hvcurveto
          -604 vlineto
          hintmask 10110000
          -35 9 -10 36 vhcurveto
          33 -98 callsubr
          417 vlineto
          79 18 68 61 84 hhcurveto
          101 0 -136 -118 -102 0 -115 -65 -30 hvcurveto
          -19 -8 -17 -16 -20 vvcurveto
          -38 vlineto
          -21 17 -16 20 4 vhcurveto
          131 27 55 170 165 vvcurveto
          endchar
        </CharString>
        <CharString name="Eogonek">
          117 callgsubr
          130 callsubr
          526 44 rmoveto
          8 vlineto
          44 -19 0 -31 vhcurveto
          -141 -2 rlineto
          -24 -90 0 -2 -18 hvcurveto
          226 240 vlineto
          62 callgsubr
          41 -23 0 -21 hvcurveto
          -240 205 46 hlineto
          212 -3 rlineto
          34 18 0 45 28 -3 17 -41 hvcurveto
          -343 -49 callsubr
          233 hlineto
          -28 -26 -13 -29 -40 vvcurveto
          -53 callsubr
          -9 29 rcurveline
          8 callsubr
          -46 -8 58 48 57 hvcurveto
          36 -98 callsubr
          endchar
        </CharString>
        <CharString name="Eogonekacute">
          117 callgsubr
          83 -21 121 112 callgsubr
          hintmask 11110010
          526 44 rmoveto
          8 vlineto
          44 -19 0 -31 vhcurveto
          -141 -2 rlineto
          -24 -90 0 -2 -18 hvcurveto
          226 240 vlineto
          62 callgsubr
          41 -23 0 -21 hvcurveto
          -240 205 46 hlineto
          212 -3 rlineto
          34 18 0 45 28 -3 17 -41 hvcurveto
          -343 -49 callsubr
          233 hlineto
          -28 -26 -13 -29 -40 vvcurveto
          -53 callsubr
          -9 29 rcurveline
          8 callsubr
          -46 -8 58 48 57 hvcurveto
          36 -98 callsubr
          hintmask 00001100
          -67 808 -95 callgsubr
        </CharString>
        <CharString name="Epsilon">
          -10 callsubr
          130 callsubr
          -102 callgsubr
          endchar
        </CharString>
        <CharString name="Ereversed">
          -23 0 94 224 81 202 90 hstem
          404 122 vstem
          526 45 rmoveto
          601 vlineto
          36 -10 9 -35 vhcurveto
          -343 hlineto
          -41 -3 -17 -28 -45 18 0 34 hvcurveto
          212 3 rlineto
          46 -205 -240 hlineto
          -21 -23 0 -41 -40 24 0 20 hvcurveto
          240 -226 hlineto
          2 -18 -90 0 -24 hhcurveto
          -141 2 rlineto
          -31 -19 0 -44 hvcurveto
          -8 vlineto
          -34 9 -10 35 vhcurveto
          356 hlineto
          36 9 10 35 hvcurveto
          endchar
        </CharString>
        <CharString name="Eta">
          66 callsubr
          106 callsubr
          146 callgsubr
          vstem
          -73 callsubr
          endchar
        </CharString>
        <CharString name="Eth">
          -19 callgsubr
        </CharString>
        <CharString name="Etilde">
          -10 callsubr
          49 64 -9 64 -89 callsubr
          hintmask 00001000
          -84 801 -81 callsubr
        </CharString>
        <CharString name="Euro">
          -21 -19 86 164 76 80 76 164 86 hstem
          106 122 vstem
          521 49 rmoveto
          -6 64 rlineto
          5 -5 5 -6 -3 -3 -2 -2 -2 vhcurveto
          -33 -30 -44 -19 -45 hhcurveto
          -46 -40 29 41 -23 hvcurveto
          -16 30 -10 31 -6 33 rrcurveto
          178 hlineto
          5 5 4 5 1 hvcurveto
          9 54 rlineto
          8 -4 5 -7 vhcurveto
          -194 hlineto
          -1 40 1 40 rlineto
          212 hlineto
          6 4 4 5 1 hvcurveto
          10 54 rlineto
          8 -5 5 -6 vhcurveto
          -215 hlineto
          6 33 10 32 16 29 rrcurveto
          41 23 40 29 46 hhcurveto
          39 36 -17 -29 26 hvcurveto
          -2 2 3 -2 3 hhcurveto
          5 5 4 5 1 hvcurveto
          14 80 1 5 -2 4 -4 2 rlinecurve
          24 -39 -45 12 -45 hhcurveto
          -79 -76 -33 -63 -46 hvcurveto
          -34 -46 -18 -53 -9 -55 rrcurveto
          -46 99 callsubr
          48 hlineto
          -1 -40 1 -40 rlineto
          -38 99 callsubr
          56 hlineto
          9 -55 18 -53 34 -45 rrcurveto
          -64 46 76 -33 79 hhcurveto
          53 51 21 38 37 hvcurveto
          2 3 1 3 3 vvcurveto
          endchar
        </CharString>
        <CharString name="F">
          -50 21 -21 305 81 215 93 130 callsubr
          499 646 rmoveto
          28 -3 17 -41 vhcurveto
          -329 -49 callsubr
          33 -98 callsubr
          261 213 vlineto
          62 callgsubr
          41 -23 0 -21 hvcurveto
          -213 218 40 hlineto
          205 -3 rlineto
          33 18 0 45 hvcurveto
          endchar
        </CharString>
        <CharString name="G">
          66 callgsubr
          hstem
          53 122 282 111 vstem
          -98 callgsubr
          endchar
        </CharString>
        <CharString name="Gacute">
          66 callgsubr
          70 -21 121 73 callgsubr
          282 111 hintmask 11100110
          -98 callgsubr
          hintmask 00011000
          -76 802 -95 callgsubr
        </CharString>
        <CharString name="Gamma">
          -76 21 -21 604 87 130 callsubr
          473 646 rmoveto
          28 -3 17 -41 vhcurveto
          -303 -49 callsubr
          33 -98 callsubr
          560 31 vlineto
          190 -3 rlineto
          32 17 1 44 hvcurveto
          endchar
        </CharString>
        <CharString name="Gbreve">
          66 callgsubr
          49 80 59 73 callgsubr
          282 111 hintmask 11100110
          -98 callgsubr
          hintmask 00011000
          -88 807 -91 callsubr
        </CharString>
        <CharString name="Gcaron">
          66 callgsubr
          60 -21 127 73 callgsubr
          282 111 hintmask 11100110
          -98 callgsubr
          hintmask 00011000
          -79 800 rmoveto
          -90 callsubr
        </CharString>
        <CharString name="Gcedilla">
          43 28 callsubr
          58 55 callgsubr
          hstem
          53 122 282 111 vstem
          -98 callgsubr
          -204 -190 -103 callsubr
        </CharString>
        <CharString name="Gcircumflex">
          66 callgsubr
          60 -21 127 73 callgsubr
          282 111 hintmask 11100110
          -98 callgsubr
          hintmask 00011000
          -79 715 rmoveto
          -106 callsubr
          endchar
        </CharString>
        <CharString name="Gcommaaccent">
          43 28 callsubr
          58 55 callgsubr
          86 callsubr
          282 111 hintmask 00111110
          -98 callgsubr
          hintmask 11000000
          -204 -190 -103 callsubr
        </CharString>
        <CharString name="Gdotaccent">
          66 callgsubr
          39 118 86 callsubr
          80 123 79 111 hintmask 11101010
          -98 callgsubr
          hintmask 00010100
          -190 740 rmoveto
          -105 callsubr
          endchar
        </CharString>
        <CharString name="H">
          66 callsubr
          106 callsubr
          146 callgsubr
          vstem
          -73 callsubr
          endchar
        </CharString>
        <CharString name="H_uni0303">
          66 callsubr
          69 128 callgsubr
          146 callgsubr
          hintmask 11100110
          -73 callsubr
          hintmask 00001000
          -99 801 -81 callsubr
        </CharString>
        <CharString name="Hbar">
          88 21 -21 320 81 77 86 0 86 44 112 callgsubr
          146 callgsubr
          hintmask 00011110
          671 510 rmoveto
          102 callgsubr
          -43 86 45 callgsubr
          -34 -50 callsubr
          -86 -271 86 47 callgsubr
          -85 -43 vlineto
          -17 -15 -14 -18 hvcurveto
          -22 vlineto
          hintmask 11100110
          -18 15 -14 17 vhcurveto
          43 -433 105 callgsubr
          33 -98 callsubr
          276 271 -276 25 callsubr
          434 43 vlineto
          17 15 14 18 hvcurveto
          -197 -109 rmoveto
          -271 77 271 hlineto
          endchar
        </CharString>
        <CharString name="Hbrevebelow">
          88 -210 80 59 -20 112 -21 320 81 293 112 callgsubr
          146 callgsubr
          hintmask 00111110
          -73 callsubr
          hintmask 11000000
          -94 -150 -91 callsubr
        </CharString>
        <CharString name="Hcircumflex">
          66 callsubr
          90 -21 127 112 callgsubr
          146 callgsubr
          hintmask 11100110
          -73 callsubr
          hintmask 00011000
          -85 721 rmoveto
          -106 callsubr
          endchar
        </CharString>
        <CharString name="Hdieresis">
          66 callsubr
          69 106 37 callsubr
          -40 37 callgsubr
          -41 122 hintmask 11101001
          -73 callsubr
          hintmask 00010100
          -322 741 rmoveto
          22 vlineto
          -42 callgsubr
          hintmask 00011000
          -30 hlineto
          hintmask 00000100
          -30 -10 -7 -35 hvcurveto
          -22 vlineto
          hintmask 00011000
          -32 8 -10 32 vhcurveto
          30 hlineto
          hintmask 00000110
          32 9 9 33 hvcurveto
          241 hmoveto
          22 vlineto
          hintmask 00010001
          -42 callgsubr
          -30 hlineto
          hintmask 00010010
          -30 -10 -7 -35 hvcurveto
          -22 vlineto
          -32 8 -10 32 vhcurveto
          hintmask 00010001
          30 hlineto
          hintmask 00000010
          32 9 9 33 hvcurveto
          endchar
        </CharString>
        <CharString name="Hdotbelow">
          88 69 callgsubr
          320 81 293 112 callgsubr
          74 123 74 122 hintmask 01111010
          -73 callsubr
          hintmask 10000100
          -196 -197 rmoveto
          -105 callsubr
          endchar
        </CharString>
        <CharString name="I">
          54 callsubr
          hstem
          80 122 vstem
          202 44 rmoveto
          89 callsubr
          -35 9 -10 36 vhcurveto
          33 -98 callsubr
          endchar
        </CharString>
        <CharString name="I_J">
          115 -19 79 634 -20 hstem
          80 122 302 119 vstem
          202 44 rmoveto
          89 callsubr
          -35 9 -10 36 vhcurveto
          33 -98 callsubr
          421 103 -51 callsubr
          endchar
        </CharString>
        <CharString name="Iacute">
          54 callsubr
          100 -21 121 -20 122 callgsubr
          hintmask 11001000
          202 44 rmoveto
          89 callsubr
          -35 9 -10 36 vhcurveto
          33 -98 callsubr
          hintmask 00110000
          144 808 -95 callgsubr
        </CharString>
        <CharString name="Ibreve">
          54 callsubr
          79 80 59 -20 122 callgsubr
          hintmask 11001000
          202 44 rmoveto
          89 callsubr
          -35 9 -10 36 vhcurveto
          33 -98 callsubr
          hintmask 00110000
          103 813 -91 callsubr
        </CharString>
        <CharString name="Icaron">
          54 callsubr
          90 -21 127 -20 122 callgsubr
          hintmask 11001000
          202 44 rmoveto
          89 callsubr
          -35 9 -10 36 vhcurveto
          33 -98 callsubr
          hintmask 00110000
          112 806 rmoveto
          -90 callsubr
        </CharString>
        <CharString name="Icircumflex">
          54 callsubr
          90 -21 127 -20 122 callgsubr
          hintmask 11001000
          202 44 rmoveto
          89 callsubr
          -35 9 -10 36 vhcurveto
          33 -98 callsubr
          hintmask 00111000
          112 721 rmoveto
          -106 callsubr
          endchar
        </CharString>
        <CharString name="Idblgrave">
          54 callsubr
          100 131 callsubr
          80 122 hintmask 11001000
          202 44 rmoveto
          89 callsubr
          -35 9 -10 36 vhcurveto
          33 -98 callsubr
          hintmask 00110000
          77 721 -101 callsubr
        </CharString>
        <CharString name="Idieresis">
          54 callsubr
          69 106 hstemhm
          -34 111 callgsubr
          hintmask 11001000
          202 44 rmoveto
          89 callsubr
          -35 9 -10 36 vhcurveto
          33 -98 callsubr
          hintmask 00110100
          -125 741 -86 callgsubr
          endchar
        </CharString>
        <CharString name="Idieresisacute">
          54 callsubr
          69 106 120 callgsubr
          -34 111 callgsubr
          hintmask 11000010
          202 44 rmoveto
          89 callsubr
          -35 9 -10 36 vhcurveto
          33 -98 callsubr
          hintmask 00111101
          -125 741 -86 callgsubr
          -1 222 -95 callgsubr
        </CharString>
        <CharString name="Idotaccent">
          54 callsubr
          69 118 122 callgsubr
          -122 123 hintmask 11010000
          202 44 rmoveto
          89 callsubr
          -35 9 -10 36 vhcurveto
          33 -98 callsubr
          hintmask 00101000
          1 746 rmoveto
          -105 callsubr
          endchar
        </CharString>
        <CharString name="Idotbelow">
          -307 48 callgsubr
          122 callgsubr
          -122 123 hintmask 01110000
          202 44 rmoveto
          89 callsubr
          -35 9 -10 36 vhcurveto
          33 -98 callsubr
          hintmask 10001000
          1 -197 rmoveto
          -105 callsubr
          endchar
        </CharString>
        <CharString name="Igrave">
          54 callsubr
          100 -21 121 -20 122 callgsubr
          hintmask 11001000
          202 44 rmoveto
          89 callsubr
          -35 9 -10 36 vhcurveto
          33 -98 callsubr
          hintmask 00110000
          -5 727 -65 callgsubr
        </CharString>
        <CharString name="Ihookabove">
          54 callsubr
          90 145 callsubr
          122 callgsubr
          hintmask 11001000
          202 44 rmoveto
          89 callsubr
          -35 9 -10 36 vhcurveto
          33 -98 callsubr
          hintmask 00110000
          32 843 -107 callgsubr
        </CharString>
        <CharString name="Imacron">
          54 callsubr
          89 73 122 callgsubr
          hintmask 11010000
          202 44 rmoveto
          89 callsubr
          -35 9 -10 36 vhcurveto
          33 -98 callsubr
          hintmask 00100000
          111 745 -91 callgsubr
        </CharString>
        <CharString name="Imacron.alt">
          54 callsubr
          89 73 122 callgsubr
          hintmask 11010000
          202 44 rmoveto
          89 callsubr
          -35 9 -10 36 vhcurveto
          33 -98 callsubr
          hintmask 00100000
          32 745 5 callgsubr
        </CharString>
        <CharString name="Iogonek">
          -307 -184 80 125 34 callsubr
          hstem
          80 122 vstem
          7 callsubr
          endchar
        </CharString>
        <CharString name="Iogonekacute">
          -307 -184 80 125 34 callsubr
          100 -21 121 -20 122 callgsubr
          hintmask 11100100
          7 callsubr
          hintmask 00011000
          103 985 -95 callgsubr
        </CharString>
        <CharString name="Iota">
          54 callsubr
          hstem
          80 122 vstem
          202 44 rmoveto
          89 callsubr
          -35 9 -10 36 vhcurveto
          33 -98 callsubr
          endchar
        </CharString>
        <CharString name="Itilde">
          54 callsubr
          69 64 -9 64 122 callgsubr
          hintmask 11001000
          202 44 rmoveto
          89 callsubr
          -35 9 -10 36 vhcurveto
          33 -98 callsubr
          hintmask 00010000
          98 801 -59 callsubr
          hintmask 00010000
          -51 callgsubr
          hintmask 00011000
          -56 callgsubr
        </CharString>
        <CharString name="J">
          129 callgsubr
          hstem
          249 119 vstem
          368 147 -51 callsubr
          endchar
        </CharString>
        <CharString name="J_uni030C.cap">
          -140 -19 79 459 -21 100 96 hstem
          249 119 vstem
          368 147 -51 callsubr
          130 475 -103 callsubr
        </CharString>
        <CharString name="Jacute">
          129 callgsubr
          100 -21 121 -20 hstemhm
          249 119 hintmask 11001000
          368 147 -51 callsubr
          hintmask 00110000
          147 705 -95 callgsubr
        </CharString>
        <CharString name="Jcircumflex">
          129 callgsubr
          90 -21 127 -20 hstemhm
          249 119 hintmask 11001000
          368 147 -51 callsubr
          hintmask 00110000
          114 618 rmoveto
          -106 callsubr
          endchar
        </CharString>
        <CharString name="K">
          73 68 callgsubr
          81 111 vstem
          -56 callsubr
          endchar
        </CharString>
        <CharString name="Kappa">
          73 68 callgsubr
          81 111 vstem
          -56 callsubr
          endchar
        </CharString>
        <CharString name="Kcedilla">
          73 74 callsubr
          hstem
          81 111 vstem
          -56 callsubr
          -226 -167 -103 callsubr
        </CharString>
        <CharString name="Kcommaaccent">
          73 64 callsubr
          81 111 hintmask 00111000
          -56 callsubr
          hintmask 11000000
          -226 -167 -103 callsubr
        </CharString>
        <CharString name="L">
          -76 0 91 603 -20 130 callsubr
          -66 callsubr
          endchar
        </CharString>
        <CharString name="L_uni0303">
          -76 0 91 603 -20 69 128 callgsubr
          hintmask 11001000
          -66 callsubr
          hintmask 00010000
          -172 800 -59 callsubr
          hintmask 00010000
          -51 callgsubr
          hintmask 00011000
          -56 callgsubr
        </CharString>
        <CharString name="Lacute">
          -76 0 91 603 -20 100 -21 121 112 callgsubr
          hintmask 11001000
          -66 callsubr
          hintmask 00110000
          -126 807 -95 callgsubr
        </CharString>
        <CharString name="Lambda">
          -7 68 callgsubr
          34 514 vstem
          548 25 rmoveto
          4 -2 6 -2 7 vhcurveto
          -170 614 rlineto
          38 -11 -23 0 -21 hhcurveto
          -56 hlineto
          -21 -24 0 -38 -10 hvcurveto
          -170 -616 rlineto
          -4 -12 0 -3 0 vvcurveto
          -25 26 0 13 vhcurveto
          15 hlineto
          22 23 0 40 11 hvcurveto
          69 251 38 151 10 40 17 73 2 29 rlinecurve
          1 hlineto
          2 -26 17 -76 18 -67 100 -375 rcurveline
          -40 11 23 0 22 hhcurveto
          35 hlineto
          13 26 0 25 hvcurveto
          endchar
        </CharString>
        <CharString name="Lcaron">
          -76 0 91 428 -21 100 96 130 callsubr
          -66 callsubr
          -122 577 -103 callsubr
        </CharString>
        <CharString name="Lcedilla">
          -76 28 callsubr
          68 91 603 -20 130 callsubr
          -66 callsubr
          -169 -185 -103 callsubr
        </CharString>
        <CharString name="Lcommaaccent">
          -76 28 callsubr
          68 91 603 112 callgsubr
          hintmask 00111000
          -66 callsubr
          hintmask 11000000
          -169 -185 -103 callsubr
        </CharString>
        <CharString name="Ldot">
          -76 0 91 216 118 269 -20 106 callsubr
          134 123 vstem
          -66 callsubr
          -13 309 rmoveto
          -105 callsubr
          endchar
        </CharString>
        <CharString name="Ldotbelow">
          -76 3 callsubr
          82 91 603 112 callgsubr
          -8 123 hintmask 01110000
          -66 callsubr
          hintmask 10001000
          -155 -198 rmoveto
          -105 callsubr
          endchar
        </CharString>
        <CharString name="Ldotbelowmacron">
          -76 3 callsubr
          82 91 603 -20 89 73 37 callsubr
          -8 123 hintmask 01101000
          -66 callsubr
          -155 -198 rmoveto
          hintmask 10000100
          -105 callsubr
          hintmask 00010000
          -4 942 -91 callgsubr
        </CharString>
        <CharString name="Lslash">
          3 0 87 607 -20 hstem
          165 122 vstem
          557 45 rmoveto
          23 0 23 -42 vhcurveto
          -228 -4 rlineto
          290 vlineto
          164 153 8 7 0 12 -7 8 rlinecurve
          -29 30 -7 8 -12 0 -7 -7 rlinecurve
          -110 -102 rlineto
          164 47 callgsubr
          -277 vlineto
          -95 -89 -8 -7 0 -11 7 -8 rlinecurve
          29 -31 7 -7 11 -2 8 8 rlinecurve
          41 39 rlineto
          -219 -89 callgsubr
          303 31 callsubr
          endchar
        </CharString>
        <CharString name="M">
          246 68 callgsubr
          81 104 465 104 vstem
          -55 callgsubr
          endchar
        </CharString>
        <CharString name="Mdotbelow">
          246 48 callgsubr
          hstemhm
          81 104 171 123 171 104 hintmask 01111100
          -55 callgsubr
          hintmask 10001000
          -275 -197 rmoveto
          -105 callsubr
          endchar
        </CharString>
        <CharString name="Mu">
          246 68 callgsubr
          81 104 465 104 vstem
          -55 callgsubr
          endchar
        </CharString>
        <CharString name="N">
          88 68 callgsubr
          81 104 307 104 vstem
          -87 callgsubr
          endchar
        </CharString>
        <CharString name="Nacute">
          88 27 callsubr
          100 -21 121 -20 hstemhm
          81 104 307 104 hintmask 11001100
          -87 callgsubr
          hintmask 00110000
          -82 808 -95 callgsubr
        </CharString>
        <CharString name="Ncaron">
          88 27 callsubr
          90 -21 127 -20 hstemhm
          81 104 307 104 hintmask 11001100
          -87 callgsubr
          hintmask 00110000
          -85 806 rmoveto
          -90 callsubr
        </CharString>
        <CharString name="Ncedilla">
          88 74 callsubr
          hstem
          81 104 307 104 vstem
          -87 callgsubr
          -210 -184 -103 callsubr
        </CharString>
        <CharString name="Ncommaaccent">
          88 64 callsubr
          81 104 307 104 hintmask 00111100
          -87 callgsubr
          hintmask 11000000
          -210 -184 -103 callsubr
        </CharString>
        <CharString name="Ndotaccent">
          88 27 callsubr
          69 118 hstemhm
          81 104 92 123 92 104 hintmask 11010100
          -87 callgsubr
          hintmask 00101000
          -196 746 rmoveto
          -105 callsubr
          endchar
        </CharString>
        <CharString name="Ndotbelow">
          88 48 callgsubr
          hstemhm
          81 104 92 123 92 104 hintmask 01110100
          -87 callgsubr
          hintmask 10001000
          -196 -197 rmoveto
          -105 callsubr
          endchar
        </CharString>
        <CharString name="Ntilde">
          88 27 callsubr
          69 86 callgsubr
          81 104 307 104 hintmask 11001100
          -87 callgsubr
          hintmask 00010000
          -99 801 -81 callgsubr
        </CharString>
        <CharString name="Nu">
          88 68 callgsubr
          81 104 307 104 vstem
          -87 callgsubr
          endchar
        </CharString>
        <CharString name="O">
          21 callsubr
          hstem
          15 callgsubr
          vstem
          -105 callgsubr
          endchar
        </CharString>
        <CharString name="OE">
          -38 callgsubr
        </CharString>
        <CharString name="OE.dup">
          -38 callgsubr
        </CharString>
        <CharString name="Oacute">
          110 callgsubr
          121 -20 18 callgsubr
          hintmask 11001100
          -105 callgsubr
          hintmask 00110000
          3 494 -95 callgsubr
        </CharString>
        <CharString name="Obreve">
          21 callsubr
          40 80 59 -20 18 callgsubr
          hintmask 11001100
          -105 callgsubr
          hintmask 00110000
          -9 499 -91 callsubr
        </CharString>
        <CharString name="Ocaron">
          21 callsubr
          51 -21 127 -20 18 callgsubr
          hintmask 11001100
          -105 callgsubr
          hintmask 00110100
          492 vmoveto
          -90 callsubr
        </CharString>
        <CharString name="Ocircumflex">
          21 callsubr
          51 -21 127 -20 18 callgsubr
          hintmask 11001100
          -105 callgsubr
          hintmask 00110100
          407 vmoveto
          -106 callsubr
          endchar
        </CharString>
        <CharString name="Ocircumflexacute">
          21 callsubr
          51 -21 298 -20 18 callgsubr
          hintmask 11001100
          -105 callgsubr
          hintmask 00110100
          407 vmoveto
          -106 callsubr
          -42 254 -95 callgsubr
        </CharString>
        <CharString name="Ocircumflexdotbelow">
          136 callgsubr
          51 -21 127 -20 118 callsubr
          hintmask 01111111
          -105 callgsubr
          407 vmoveto
          -106 callsubr
          hintmask 10000010
          -111 -918 rmoveto
          -105 callsubr
          endchar
        </CharString>
        <CharString name="Ocircumflexgrave">
          21 callsubr
          51 -21 127 -20 18 callgsubr
          hintmask 11001100
          -105 callgsubr
          hintmask 00110100
          407 vmoveto
          -106 callsubr
          -41 173 -48 callsubr
        </CharString>
        <CharString name="Ocircumflexhookabove">
          21 callsubr
          51 -21 378 -20 18 callgsubr
          hintmask 11001100
          -105 callgsubr
          hintmask 00110100
          407 vmoveto
          -106 callsubr
          13 279 -107 callgsubr
        </CharString>
        <CharString name="Ocircumflextilde">
          21 callsubr
          51 -21 197 64 -9 64 18 callgsubr
          hintmask 11000110
          -105 callgsubr
          hintmask 00101010
          407 vmoveto
          -106 callsubr
          -14 277 -81 callsubr
        </CharString>
        <CharString name="Odblgrave">
          110 callgsubr
          148 -20 18 callgsubr
          hintmask 11001100
          -105 callgsubr
          hintmask 00110000
          -35 407 -101 callsubr
        </CharString>
        <CharString name="Odieresis">
          21 callsubr
          30 106 86 callsubr
          -2 37 callgsubr
          -4 122 hintmask 11010010
          -105 callgsubr
          hintmask 00101100
          -237 427 -86 callgsubr
          endchar
        </CharString>
        <CharString name="Odotbelow">
          136 callgsubr
          118 callsubr
          hintmask 01110100
          -105 callgsubr
          hintmask 10001000
          -111 -511 rmoveto
          -105 callsubr
          endchar
        </CharString>
        <CharString name="Ograve">
          110 callgsubr
          121 -20 18 callgsubr
          hintmask 11001100
          -105 callgsubr
          hintmask 00110000
          -87 413 -65 callgsubr
        </CharString>
        <CharString name="Ohookabove">
          21 callsubr
          51 -21 221 -20 18 callgsubr
          hintmask 11001100
          -105 callgsubr
          hintmask 00110000
          -80 529 -107 callgsubr
        </CharString>
        <CharString name="Ohorn">
          54 callgsubr
          86 73 callgsubr
          345 78 callsubr
          hintmask 0010100100000000
          -31 callgsubr
          hintmask 0000100010000000
          -83 hlineto
          hintmask 0010000100000000
          -6 93 callgsubr
          hintmask 1001010010000000
          -70 callgsubr
          hintmask 0100001000000000
          -8 callgsubr
          endchar
        </CharString>
        <CharString name="Ohornacute">
          54 callgsubr
          60 -21 47 -20 94 -69 callsubr
          -22 491 -95 callgsubr
        </CharString>
        <CharString name="Ohorndotbelow">
          107 3 callsubr
          63 72 519 72 -8 70 -62 70 86 73 callgsubr
          112 123 110 78 callsubr
          hintmask 0001010001000000
          -5 callgsubr
          hintmask 0001000001000000
          -6 93 callgsubr
          hintmask 0100101000100000
          -70 callgsubr
          hintmask 0010000010000000
          -8 callgsubr
          hintmask 1000000100000000
          -110 -514 rmoveto
          -105 callsubr
          endchar
        </CharString>
        <CharString name="Ohorngrave">
          54 callgsubr
          60 -21 47 -20 94 -69 callsubr
          -86 410 -65 callgsubr
        </CharString>
        <CharString name="Ohornhookabove">
          54 callgsubr
          50 -21 57 -20 184 -69 callsubr
          -79 526 -107 callgsubr
        </CharString>
        <CharString name="Ohorntilde">
          54 callgsubr
          29 64 -9 64 86 callsubr
          345 78 callsubr
          hintmask 0010000010000000
          -31 callgsubr
          hintmask 0000000001000000
          -83 hlineto
          hintmask 0010000010000000
          -6 93 callgsubr
          hintmask 1001001001000000
          -70 callgsubr
          hintmask 0100000100000000
          -8 callgsubr
          hintmask 0000010000000000
          -13 484 -78 callgsubr
          hintmask 0000100000000000
          -23 -3 -10 -17 -19 hhcurveto
          -15 -17 13 10 -13 hvcurveto
          hintmask 0000010000000000
          18 -23 -26 14 -31 hhcurveto
          -62 -33 -62 -40 hvcurveto
          hintmask 0000100000000000
          -75 callgsubr
          hintmask 0000010000000000
          -72 callgsubr
          hintmask 0000100000000000
          -73 callgsubr
        </CharString>
        <CharString name="Ohungarumlaut">
          110 callgsubr
          148 -20 18 callgsubr
          hintmask 11001100
          -105 callgsubr
          hintmask 00110000
          -174 532 -82 callgsubr
        </CharString>
        <CharString name="Omacron">
          21 callsubr
          50 73 18 callgsubr
          hintmask 11011000
          -105 callgsubr
          hintmask 00100000
          -1 431 -91 callgsubr
        </CharString>
        <CharString name="Omega">
          -37 callsubr
        </CharString>
        <CharString name="Omicron">
          21 callsubr
          hstem
          15 callgsubr
          vstem
          -105 callgsubr
          endchar
        </CharString>
        <CharString name="Oogonek">
          21 callsubr
          86 callsubr
          0 122 224 122 hintmask 01100000
          643 342 rmoveto
          43 -2 115 -55 88 vhcurveto
          110 -69 -110 15 -59 hhcurveto
          -95 -85 -39 -71 -49 hvcurveto
          -37 -55 -29 -74 -132 vvcurveto
          -87 12 -106 70 -81 vhcurveto
          hintmask 11011000
          -17 callgsubr
          endchar
        </CharString>
        <CharString name="Oogonekacute">
          110 callgsubr
          121 73 callgsubr
          0 122 224 122 hintmask 01001000
          643 342 rmoveto
          43 -2 115 -55 88 vhcurveto
          110 -69 -110 15 -59 hhcurveto
          -95 -85 -39 -71 -49 hvcurveto
          -37 -55 -29 -74 -132 vvcurveto
          -87 12 -106 70 -81 vhcurveto
          hintmask 11000110
          -17 callgsubr
          hintmask 00110000
          3 494 -95 callgsubr
        </CharString>
        <CharString name="Orogate">
          107 15 callgsubr
          vstem
          643 342 rmoveto
          43 -2 115 -55 88 vhcurveto
          -58 92 -87 26 -61 6 rrcurveto
          117 140 callsubr
          -118 vlineto
          -82 -7 -72 -38 -43 -63 rrcurveto
          -37 -55 -29 -74 -132 vvcurveto
          -87 12 -106 70 -81 vhcurveto
          40 -46 63 -32 78 -8 rrcurveto
          -117 139 callsubr
          117 vlineto
          63 6 71 24 50 60 rrcurveto
          67 79 12 107 84 vvcurveto
          -122 16 rmoveto
          -63 -2 -73 -28 -66 vhcurveto
          -88 -38 -68 -15 -37 hhcurveto
          -38 -68 16 88 -37 hvcurveto
          -25 59 -5 62 80 vvcurveto
          49 0 89 37 65 vhcurveto
          65 36 58 17 42 hhcurveto
          31 68 -10 -77 40 hvcurveto
          33 -64 1 -77 -57 vvcurveto
          endchar
        </CharString>
        <CharString name="Oslash">
          -36 callgsubr
        </CharString>
        <CharString name="Oslash.dup">
          -36 callgsubr
        </CharString>
        <CharString name="Oslashacute">
          149 -54 -21 56 64 579 64 -39 64 56 -20 25 -21 121 -20 hstemhm
          53 111 410 111 hintmask 0010100000000000
          685 342 rmoveto
          128 -33 118 -89 65 vhcurveto
          30 61 rlineto
          7 13 0 2 6 vvcurveto
          24 -24 10 -13 -19 -6 -11 -12 -6 vhcurveto
          -30 -58 rlineto
          hintmask 1101000110000000
          22 -55 -49 3 -29 hhcurveto
          -96 -84 -34 -60 -51 hvcurveto
          -68 -79 -17 -101 -97 vvcurveto
          -116 28 -120 93 -67 vhcurveto
          -4 -8 -10 -21 -5 -8 rrcurveto
          -7 -14 -10 -20 -9 vvcurveto
          -24 24 -10 13 19 4 7 26 14 vhcurveto
          24 47 rlineto
          -20 50 49 -4 34 hhcurveto
          105 82 39 55 47 hvcurveto
          62 72 20 93 102 vvcurveto
          -216 282 rmoveto
          -255 -506 rlineto
          -43 61 -7 74 90 vvcurveto
          81 0 225 205 vhcurveto
          hintmask 0110000010000000
          45 36 -14 -11 19 hvcurveto
          105 -281 rmoveto
          -82 0 -216 -205 -19 -38 1 24 -43 vhcurveto
          254 504 rlineto
          47 -64 4 -91 -76 vvcurveto
          hintmask 0000011000000000
          -29 509 -95 callgsubr
        </CharString>
        <CharString name="Otilde">
          21 callsubr
          30 64 -9 64 18 callgsubr
          hintmask 11001100
          -105 callgsubr
          hintmask 00010000
          -14 487 -81 callgsubr
        </CharString>
        <CharString name="P">
          6 callgsubr
        </CharString>
        <CharString name="Phi">
          96 21 -21 107 66 -65 66 347 66 107 -20 hstemhm
          53 119 110 116 115 119 hintmask 11011111
          632 347 rmoveto
          110 -56 112 -178 18 vhcurveto
          63 -92 callsubr
          -27 -80 callsubr
          -62 vlineto
          -173 -20 -56 -110 -110 vvcurveto
          -107 54 -113 175 -20 vhcurveto
          -62 -89 callgsubr
          27 -98 callsubr
          63 vlineto
          176 17 58 111 112 vvcurveto
          -350 -173 rmoveto
          -106 24 -4 98 51 vvcurveto
          51 3 98 107 24 vhcurveto
          hintmask 00100010
          231 -173 rmoveto
          hintmask 01010011
          -57 -6 -95 -109 -22 vhcurveto
          348 vlineto
          109 -21 6 -95 -58 vvcurveto
          endchar
        </CharString>
        <CharString name="Pi">
          88 21 -21 610 81 106 callsubr
          146 callgsubr
          vstem
          596 44 rmoveto
          603 -92 callsubr
          -426 -49 callsubr
          33 -98 callsubr
          566 271 -566 25 callsubr
          endchar
        </CharString>
        <CharString name="Psi">
          149 21 -21 552 63 79 -20 hstem
          100 116 92 116 98 116 vstem
          685 583 23 callgsubr
          -30 hlineto
          -81 -8 -71 -127 -76 -4 -128 -94 -34 hvcurveto
          471 -92 callsubr
          -27 -80 callsubr
          -469 vlineto
          -92 38 0 128 88 vvcurveto
          133 -20 48 -69 vhcurveto
          -29 hlineto
          -13 -32 0 -32 -9 4 -20 28 -3 hvcurveto
          10 -19 5 -30 -68 vvcurveto
          -94 1 -198 207 -33 vhcurveto
          -64 -89 callgsubr
          27 -98 callsubr
          64 vlineto
          183 30 31 147 131 vvcurveto
          59 0 50 15 26 vhcurveto
          29 3 3 20 9 vvcurveto
          endchar
        </CharString>
        <CharString name="Q">
          107 -90 -21 92 70 17 70 505 70 hstemhm
          53 119 31 119 26 119 0 119 -62 119 hintmask 0000000100000000
          643 342 rmoveto
          43 -2 115 -55 88 vhcurveto
          hintmask 1111111010000000
          110 -69 -110 15 -59 hhcurveto
          -95 -85 -39 -71 -49 hvcurveto
          -37 -55 -29 -74 -132 vvcurveto
          -87 12 -106 70 -81 vhcurveto
          -52 45 76 -35 92 hhcurveto
          28 6 0 6 33 hvcurveto
          36 -61 rlineto
          -36 23 0 -1 31 hhcurveto
          60 hlineto
          14 19 0 21 4 0 2 -14 22 hvcurveto
          -64 94 35 23 34 40 24 61 rlinecurve
          28 71 2 80 35 vvcurveto
          -119 1 rmoveto
          -54 0 -116 -57 -66 vhcurveto
          -50 75 rlineto
          12 -9 -3 0 -20 hhcurveto
          -46 hlineto
          -14 -20 0 -21 -6 10 -18 7 -11 hvcurveto
          24 -39 26 -44 rlineto
          -4 -24 0 0 -43 -65 17 81 -37 vhcurveto
          -28 60 -3 70 64 vvcurveto
          72 3 82 40 69 vhcurveto
          47 28 50 30 55 hhcurveto
          57 55 -32 -59 29 hvcurveto
          30 -64 5 -69 -76 vvcurveto
          endchar
        </CharString>
        <CharString name="R">
          24 21 125 callsubr
          246 114 -107 114 hintmask 00000100
          573 22 rmoveto
          4 -1 1 -5 10 vhcurveto
          -150 287 rlineto
          hintmask 11111000
          -68 callsubr
          hintmask 11110100
          -58 callsubr
          hintmask 00001000
          61 callgsubr
          endchar
        </CharString>
        <CharString name="Racute">
          83 callsubr
          120 callgsubr
          81 119 246 -16 callsubr
          hintmask 11100110
          -68 callsubr
          hintmask 11100101
          -58 callsubr
          hintmask 00000010
          61 callgsubr
          hintmask 00011000
          36 353 -95 callgsubr
        </CharString>
        <CharString name="Rcaron">
          83 callsubr
          70 -21 127 -20 hstemhm
          81 119 246 -16 callsubr
          hintmask 11100110
          -68 callsubr
          hintmask 11100101
          -58 callsubr
          hintmask 00000010
          61 callgsubr
          hintmask 00011000
          33 351 rmoveto
          -90 callsubr
        </CharString>
        <CharString name="Rcedilla">
          24 -243 -21 100 96 89 125 callsubr
          246 -16 callsubr
          hintmask 00111110
          -68 callsubr
          hintmask 00111101
          -58 callsubr
          hintmask 11000010
          61 callgsubr
          -92 -639 -103 callsubr
        </CharString>
        <CharString name="Rcommaaccent">
          24 -243 -21 100 96 89 125 callsubr
          246 -16 callsubr
          hintmask 00111110
          -68 callsubr
          hintmask 00111101
          -58 callsubr
          hintmask 00000010
          61 callgsubr
          hintmask 11000000
          -92 -639 -103 callsubr
        </CharString>
        <CharString name="Rdblgrave">
          83 callsubr
          80 131 callsubr
          81 119 246 -16 callsubr
          hintmask 11100110
          -68 callsubr
          hintmask 11100101
          -58 callsubr
          hintmask 00000010
          61 callgsubr
          hintmask 00011000
          -28 266 -101 callsubr
        </CharString>
        <CharString name="Rdotaccent">
          83 callsubr
          49 118 hstemhm
          81 119 45 123 78 -16 callsubr
          hintmask 11101010
          -68 callsubr
          hintmask 11101001
          -58 callsubr
          hintmask 00000010
          61 callgsubr
          hintmask 00010100
          -78 291 rmoveto
          -105 callsubr
          endchar
        </CharString>
        <CharString name="Rdotbelow">
          24 -200 118 103 125 callsubr
          45 123 78 -16 callsubr
          hintmask 01111010
          -68 callsubr
          hintmask 01111001
          -58 callsubr
          hintmask 00000010
          61 callgsubr
          hintmask 10000100
          -78 -652 rmoveto
          -105 callsubr
          endchar
        </CharString>
        <CharString name="Rdotbelowmacron">
          24 -200 118 103 79 callgsubr
          69 73 hstemhm
          81 119 45 123 78 114 -107 114 hintmask 0000000010000000
          573 22 rmoveto
          4 -1 1 -5 10 vhcurveto
          -150 287 rlineto
          hintmask 0111010100000000
          -68 callsubr
          hintmask 0111010010000000
          -58 callsubr
          hintmask 1000001100000000
          61 callgsubr
          -78 -652 rmoveto
          -105 callsubr
          hintmask 0000100010000000
          110 942 -91 callgsubr
        </CharString>
        <CharString name="Rho">
          6 callgsubr
        </CharString>
        <CharString name="S">
          -62 -19 93 552 87 24 callsubr
          hintmask 01010100
          474 195 rmoveto
          -87 callsubr
          hintmask 10100010
          -57 callsubr
          hintmask 10001010
          9 callgsubr
          endchar
        </CharString>
        <CharString name="S_S">
          466 -19 93 552 87 24 callsubr
          96 133 callsubr
          0 85 callgsubr
          hintmask 0101010000000000
          474 195 rmoveto
          -87 callsubr
          hintmask 1010001000000000
          -57 callsubr
          hintmask 1100101010100000
          9 callgsubr
          528 hmoveto
          -87 callsubr
          hintmask 1000000100010000
          -57 callsubr
          hintmask 1000000001010000
          9 callgsubr
          endchar
        </CharString>
        <CharString name="Sacute">
          -62 -19 146 callsubr
          61 -21 121 -20 24 callsubr
          hintmask 0100010100000000
          474 195 rmoveto
          -87 callsubr
          hintmask 1000100010000000
          -57 callsubr
          hintmask 1000001010000000
          9 callgsubr
          hintmask 0011000000000000
          -35 657 -95 callgsubr
        </CharString>
        <CharString name="Scaron">
          -62 -19 146 callsubr
          51 -21 127 -20 24 callsubr
          hintmask 0100010100000000
          474 195 rmoveto
          -87 callsubr
          hintmask 1000100010000000
          -57 callsubr
          hintmask 1000001010000000
          9 callgsubr
          hintmask 0011000000000000
          -38 655 rmoveto
          -90 callsubr
        </CharString>
        <CharString name="Scedilla">
          -62 -51 87 -55 137 callsubr
          -87 105 -18 85 callgsubr
          hintmask 0010100100000000
          474 195 rmoveto
          -87 callsubr
          hintmask 0101000010000000
          30 -12 37 -36 -58 vvcurveto
          -48 -18 -62 -89 -32 -76 7 60 -71 vhcurveto
          10 -11 -2 0 -3 hhcurveto
          -9 -2 -9 -5 -1 hvcurveto
          -3 -13 -10 -51 -10 vvcurveto
          hintmask 1000010000000000
          -9 1 -1 28 -17 vhcurveto
          hintmask 0100001010000000
          9 callgsubr
          -164 -246 9 callsubr
          hintmask 1000010000000000
          -68 -106 rlineto
          -26 callsubr
        </CharString>
        <CharString name="Scircumflex">
          -62 -19 146 callsubr
          51 -21 127 -20 24 callsubr
          hintmask 0100010100000000
          474 195 rmoveto
          -87 callsubr
          hintmask 1000100010000000
          -57 callsubr
          hintmask 1000001010000000
          9 callgsubr
          hintmask 0011000000000000
          -38 570 rmoveto
          -106 callsubr
          endchar
        </CharString>
        <CharString name="Sdotbelow">
          -62 3 callsubr
          63 137 callsubr
          0 105 -61 123 -23 116 -49 105 hintmask 0010100100000000
          474 195 rmoveto
          -87 callsubr
          hintmask 0101000010000000
          -57 callsubr
          hintmask 0100010010000000
          9 callgsubr
          hintmask 1000001000000000
          -149 -348 rmoveto
          -105 callsubr
          endchar
        </CharString>
        <CharString name="Sigma">
          96 0 93 514 87 hstem
          632 44 rmoveto
          8 vlineto
          44 -16 0 -44 vhcurveto
          -284 -3 rlineto
          -62 hlineto
          162 229 rlineto
          10 14 1 1 10 vvcurveto
          8 -2 6 -8 11 vhcurveto
          -169 235 rlineto
          60 hlineto
          292 -3 rlineto
          44 16 0 45 28 -3 17 -41 hvcurveto
          -490 hlineto
          -27 -18 -3 -40 -19 0 -2 9 -13 hvcurveto
          201 -280 -199 -279 rlineto
          -7 -10 -4 -7 -9 vvcurveto
          -32 32 0 13 vhcurveto
          490 -98 callsubr
          endchar
        </CharString>
        <CharString name="T">
          104 callgsubr
          hstem
          261 122 vstem
          -71 callgsubr
          endchar
        </CharString>
        <CharString name="T_uni0303">
          104 callgsubr
          49 86 callgsubr
          261 122 hintmask 11001000
          -71 callgsubr
          hintmask 00010000
          -128 202 -59 callsubr
          hintmask 00010000
          -51 callgsubr
          hintmask 00011000
          -56 callgsubr
        </CharString>
        <CharString name="T_uni0308">
          104 callgsubr
          49 106 hstemhm
          147 111 callgsubr
          hintmask 11001000
          -71 callgsubr
          hintmask 00110100
          -351 142 -86 callgsubr
          endchar
        </CharString>
        <CharString name="Tau">
          104 callgsubr
          hstem
          261 122 vstem
          -71 callgsubr
          endchar
        </CharString>
        <CharString name="Tcaron">
          104 callgsubr
          70 -21 127 -20 hstemhm
          261 122 hintmask 11001000
          -71 callgsubr
          hintmask 00110000
          -114 207 rmoveto
          -90 callsubr
        </CharString>
        <CharString name="Tcedilla">
          54 -144 -21 144 -20 62 -21 601 93 hstemhm
          214 140 -93 122 hintmask 01110100
          -71 callgsubr
          -255 -675 51 callgsubr
          hintmask 10001000
          -26 callsubr
        </CharString>
        <CharString name="Tdotbelow">
          54 69 callgsubr
          601 93 hstemhm
          260 123 -122 122 hintmask 01101000
          -71 callgsubr
          hintmask 10001000
          -226 -796 rmoveto
          24 109 callsubr
          hintmask 10010000
          82 callgsubr
        </CharString>
        <CharString name="Theta">
          149 -19 67 245 111 245 64 hstem
          53 116 400 116 vstem
          685 342 rmoveto
          101 -19 100 -65 76 vhcurveto
          60 -52 -84 34 -96 hhcurveto
          -96 -84 -34 -60 -51 hvcurveto
          -68 -79 -17 -101 -97 vvcurveto
          -94 16 -93 62 -76 vhcurveto
          -63 52 87 -35 99 hhcurveto
          105 82 39 55 47 hvcurveto
          62 72 20 93 102 vvcurveto
          -116 1 rmoveto
          -65 0 -230 -200 -200 0 230 65 43 1 91 34 69 vhcurveto
          91 47 79 12 39 hhcurveto
          58 64 -24 -75 40 hvcurveto
          36 -67 2 -89 -51 vvcurveto
          -54 -5 rmoveto
          21 vlineto
          35 -10 10 -37 vhcurveto
          -198 hlineto
          -36 -11 -9 -36 hvcurveto
          -21 vlineto
          -35 10 -10 37 vhcurveto
          198 hlineto
          36 11 9 36 hvcurveto
          endchar
        </CharString>
        <CharString name="Thorn">
          -34 21 -21 180 75 254 75 110 -20 hstem
          80 116 192 114 vstem
          502 382 rmoveto
          141 -82 61 -111 vhcurveto
          -113 64 hlineto
          38 -10 8 -36 vhcurveto
          -23 hlineto
          -38 -9 -9 -38 hvcurveto
          -600 vlineto
          -38 9 -9 38 vhcurveto
          23 hlineto
          34 12 6 40 hvcurveto
          134 97 vlineto
          47 162 0 202 hvcurveto
          -114 -1 rmoveto
          -126 -89 0 -34 vhcurveto
          -69 254 68 hlineto
          87 37 -49 -79 hvcurveto
          endchar
        </CharString>
        <CharString name="Tlinebelow">
          54 -177 73 125 -21 601 93 hstemhm
          261 122 hintmask 01110000
          -71 callgsubr
          hintmask 10000000
          -115 -794 -91 callgsubr
        </CharString>
        <CharString name="U">
          44 callsubr
          106 callsubr
          261 111 vstem
          -99 callgsubr
          endchar
        </CharString>
        <CharString name="U_uni032F">
          67 -189 -21 59 80 52 75 638 112 callgsubr
          261 111 hintmask 00111100
          -99 callgsubr
          hintmask 11000000
          -83 -403 -62 callgsubr
        </CharString>
        <CharString name="Uacute">
          44 callsubr
          100 -21 121 112 callgsubr
          261 111 hintmask 11001100
          -99 callgsubr
          hintmask 00110000
          -71 624 -95 callgsubr
        </CharString>
        <CharString name="Ubreve">
          44 callsubr
          79 80 59 112 callgsubr
          261 111 hintmask 11001100
          -99 callgsubr
          hintmask 00110000
          -83 629 -91 callsubr
        </CharString>
        <CharString name="Ucaron">
          44 callsubr
          90 -21 127 112 callgsubr
          261 111 hintmask 11001100
          -99 callgsubr
          hintmask 00110000
          -74 622 rmoveto
          -90 callsubr
        </CharString>
        <CharString name="Ucircumflex">
          44 callsubr
          90 -21 127 112 callgsubr
          261 111 hintmask 11001100
          -99 callgsubr
          hintmask 00110000
          -74 537 rmoveto
          -106 callsubr
          endchar
        </CharString>
        <CharString name="Udblgrave">
          44 callsubr
          100 -21 148 112 callgsubr
          261 111 hintmask 11001100
          -99 callgsubr
          hintmask 00110000
          -109 537 -101 callsubr
        </CharString>
        <CharString name="Udieresis">
          44 callsubr
          69 106 37 callsubr
          -50 37 callgsubr
          -41 111 hintmask 11010010
          -99 callgsubr
          hintmask 00101100
          -311 557 -1 callsubr
          hintmask 00100010
          -42 callgsubr
          -30 hlineto
          hintmask 00100100
          -30 -10 -7 -35 hvcurveto
          -22 vlineto
          -32 8 -10 32 vhcurveto
          hintmask 00100010
          30 hlineto
          hintmask 00000100
          32 9 9 33 hvcurveto
          endchar
        </CharString>
        <CharString name="Udieresisacute">
          44 callsubr
          69 106 80 -21 121 -64 callsubr
          hintmask 0001100100000000
          32 9 9 33 hvcurveto
          -1 222 -95 callgsubr
        </CharString>
        <CharString name="Udieresiscaron">
          44 callsubr
          69 106 70 -21 127 -64 callsubr
          hintmask 0001101100000000
          32 9 9 33 hvcurveto
          -4 220 rmoveto
          -90 callsubr
        </CharString>
        <CharString name="Udieresisgrave">
          44 callsubr
          69 106 80 -21 121 -64 callsubr
          hintmask 0001101100000000
          32 9 9 33 hvcurveto
          -91 141 -65 callgsubr
        </CharString>
        <CharString name="Udotbelow">
          67 3 callsubr
          63 75 638 112 callgsubr
          64 123 74 111 hintmask 01110100
          -99 callgsubr
          hintmask 10001000
          -185 -381 rmoveto
          -105 callsubr
          endchar
        </CharString>
        <CharString name="Ugrave">
          44 callsubr
          100 -21 121 112 callgsubr
          261 111 hintmask 11001100
          -99 callgsubr
          hintmask 00110000
          -161 543 -65 callgsubr
        </CharString>
        <CharString name="Uhookabove">
          44 callsubr
          90 -21 221 112 callgsubr
          261 111 hintmask 11001100
          -99 callgsubr
          hintmask 00110000
          -154 659 -107 callgsubr
        </CharString>
        <CharString name="Uhorn">
          93 -19 75 744 -20 hstem
          80 122 262 111 4 106 vstem
          -84 callsubr
          endchar
        </CharString>
        <CharString name="Uhornacute">
          93 -19 75 718 -21 47 -20 94 -20 96 callgsubr
          hintmask 10101110
          -84 callsubr
          hintmask 01010000
          -207 146 -95 callgsubr
        </CharString>
        <CharString name="Uhorndotbelow">
          93 3 callsubr
          63 75 744 -20 122 callgsubr
          78 123 61 111 4 106 hintmask 01110110
          -84 callsubr
          hintmask 10001000
          -282 -859 rmoveto
          -105 callsubr
          endchar
        </CharString>
        <CharString name="Uhorngrave">
          93 -19 75 718 -21 47 -20 94 -20 96 callgsubr
          hintmask 10101110
          -84 callsubr
          hintmask 01010000
          -270 65 -65 callgsubr
        </CharString>
        <CharString name="Uhornhookabove">
          93 -19 75 708 -21 57 -20 184 -20 96 callgsubr
          hintmask 10101110
          -84 callsubr
          hintmask 01010000
          -263 181 -107 callgsubr
        </CharString>
        <CharString name="Uhorntilde">
          93 -19 75 687 64 -9 64 96 callgsubr
          hintmask 10011100
          -84 callsubr
          hintmask 00100000
          -197 139 -78 callgsubr
          hintmask 01000000
          -23 -3 -10 -17 -19 hhcurveto
          -15 -17 13 10 -13 hvcurveto
          hintmask 00100000
          18 -23 -26 14 -31 hhcurveto
          -62 -33 -62 -40 hvcurveto
          hintmask 01000000
          -75 callgsubr
          hintmask 00100000
          -72 callgsubr
          hintmask 01000000
          -73 callgsubr
        </CharString>
        <CharString name="Uhungarumlaut">
          44 callsubr
          100 -21 148 112 callgsubr
          261 111 hintmask 11001100
          -99 callgsubr
          hintmask 00110000
          -248 662 -82 callgsubr
        </CharString>
        <CharString name="Umacron">
          44 callsubr
          89 73 37 callsubr
          261 111 hintmask 11011000
          -99 callgsubr
          hintmask 00100000
          -75 561 -91 callgsubr
        </CharString>
        <CharString name="Uogonek">
          67 -184 80 9 80 -4 75 638 112 callgsubr
          128 111 -100 122 -44 111 -67 111 hintmask 0000000010000000
          575 228 rmoveto
          422 vlineto
          hintmask 0001000100000000
          -88 callgsubr
          -23 hlineto
          hintmask 0011110010000000
          -52 callgsubr
          -422 vlineto
          -56 -7 -116 -126 -121 -7 114 57 vhcurveto
          423 47 callgsubr
          -421 vlineto
          hintmask 1100001000000000
          -124 64 -98 131 -21 vhcurveto
          -18 -22 -11 -28 -1 -30 -1 -45 35 -45 62 1 rrcurveto
          hintmask 1000010000000000
          -33 callgsubr
          -9 29 rcurveline
          hintmask 0100000100000000
          8 callsubr
          -23 -12 15 21 1 hvcurveto
          18 5 18 10 16 vhcurveto
          hintmask 0000000010000000
          154 9 69 106 131 vvcurveto
          endchar
        </CharString>
        <CharString name="Upsilon">
          149 21 -21 621 92 hstem
          53 112 143 122 143 112 cntrmask 00111000
          685 559 rmoveto
          75 -68 79 -98 -93 -39 -76 -93 -18 vhcurveto
          -1 hlineto
          101 -19 -42 68 -88 hhcurveto
          -99 -67 -79 -75 -36 29 0 17 hvcurveto
          19 hlineto
          23 20 0 37 3 hvcurveto
          31 3 18 30 35 hhcurveto
          42 23 -33 -60 12 hvcurveto
          11 -52 0 -31 -48 vvcurveto
          -352 -89 callgsubr
          33 -98 callsubr
          353 vlineto
          32 2 63 10 42 vhcurveto
          62 14 25 25 37 hhcurveto
          37 17 -33 -27 2 hvcurveto
          -32 3 11 -6 32 hhcurveto
          19 hlineto
          17 29 0 36 hvcurveto
          endchar
        </CharString>
        <CharString name="Uring">
          49 callsubr
          41 66 41 37 callsubr
          19 59 94 59 30 111 hintmask 11010010
          -99 callgsubr
          hintmask 01101100
          -200 540 -44 callsubr
        </CharString>
        <CharString name="Utilde">
          44 callsubr
          69 128 callgsubr
          261 111 hintmask 11001100
          -99 callgsubr
          hintmask 00010000
          -88 617 -81 callgsubr
        </CharString>
        <CharString name="V">
          46 68 callgsubr
          23 589 vstem
          612 669 rmoveto
          25 -21 0 -16 vhcurveto
          -19 hlineto
          -29 -17 -3 -37 -12 hvcurveto
          -103 -313 -22 -66 -39 -120 -9 -49 rlinecurve
          -1 hlineto
          -3 20 -13 43 -10 31 -10 35 -13 45 -8 23 -115 352 rcurveline
          39 -13 -25 0 -20 hhcurveto
          -34 hlineto
          -16 -21 0 -25 -3 0 -2 5 -14 hvcurveto
          201 -610 rlineto
          -40 13 24 0 21 hhcurveto
          61 hlineto
          19 26 0 39 13 hvcurveto
          201 611 rlineto
          5 14 0 2 3 vvcurveto
          endchar
        </CharString>
        <CharString name="W">
          310 68 callgsubr
          20 859 vstem
          -84 callgsubr
          endchar
        </CharString>
        <CharString name="Wacute">
          310 27 callsubr
          100 -21 121 -20 hstemhm
          20 859 hintmask 11001000
          -84 callgsubr
          hintmask 00110000
          -253 184 -95 callgsubr
        </CharString>
        <CharString name="Wcircumflex">
          310 27 callsubr
          90 -21 127 -20 hstemhm
          20 859 hintmask 11001000
          -84 callgsubr
          hintmask 00110000
          -256 97 rmoveto
          -106 callsubr
          endchar
        </CharString>
        <CharString name="Wdieresis">
          310 27 callsubr
          69 106 hstemhm
          20 859 -604 37 callgsubr
          hintmask 11010000
          -84 callgsubr
          hintmask 00101100
          -493 117 -86 callgsubr
          endchar
        </CharString>
        <CharString name="Wgrave">
          310 27 callsubr
          100 -21 121 -20 hstemhm
          20 859 hintmask 11001000
          -84 callgsubr
          hintmask 00110000
          -343 103 -65 callgsubr
        </CharString>
        <CharString name="X">
          -17 callsubr
        </CharString>
        <CharString name="Xi">
          43 0 100 -100 102 206 100 178 102 -100 100 hstemhm
          40 552 hintmask 00001000
          587 630 rmoveto
          14 -92 callsubr
          -453 -80 callsubr
          -13 vlineto
          hintmask 00010000
          -44 16 0 44 vhcurveto
          hintmask 00001000
          211 2 rlineto
          hintmask 01010100
          211 -2 rlineto
          44 16 0 44 hvcurveto
          5 -586 rmoveto
          14 vlineto
          44 -16 0 -45 vhcurveto
          hintmask 10000000
          -215 -2 rlineto
          hintmask 01100100
          -215 2 rlineto
          -45 -16 0 -44 hvcurveto
          -13 -89 callgsubr
          463 -98 callsubr
          -66 308 rmoveto
          12 -92 callsubr
          -331 -80 callsubr
          -11 -13 callsubr
          332 -98 callsubr
          endchar
        </CharString>
        <CharString name="Y">
          46 68 callgsubr
          258 119 vstem
          -83 callgsubr
          endchar
        </CharString>
        <CharString name="Yacute">
          120 callsubr
          100 -21 121 -20 hstemhm
          258 119 hintmask 11001000
          -83 callgsubr
          hintmask 00110000
          -122 179 -95 callgsubr
        </CharString>
        <CharString name="Ycircumflex">
          120 callsubr
          90 -21 127 -20 hstemhm
          258 119 hintmask 11001000
          -83 callgsubr
          hintmask 00110000
          -125 92 rmoveto
          -106 callsubr
          endchar
        </CharString>
        <CharString name="Ydieresis">
          120 callsubr
          69 106 hstemhm
          143 111 4 119 7 111 hintmask 11001100
          -83 callgsubr
          hintmask 00110100
          -362 112 -86 callgsubr
          endchar
        </CharString>
        <CharString name="Ydotbelow">
          46 48 callgsubr
          hstemhm
          256 123 -121 119 hintmask 01101000
          -83 callgsubr
          hintmask 10010000
          -237 -826 rmoveto
          -105 callsubr
          endchar
        </CharString>
        <CharString name="Ygrave">
          120 callsubr
          100 -21 121 -20 hstemhm
          258 119 hintmask 11001000
          -83 callgsubr
          hintmask 00110000
          -212 98 -65 callgsubr
        </CharString>
        <CharString name="Yhookabove">
          120 callsubr
          90 145 callsubr
          hstemhm
          258 119 hintmask 11001000
          -83 callgsubr
          hintmask 00110000
          -205 214 -107 callgsubr
        </CharString>
        <CharString name="Ytilde">
          120 callsubr
          69 86 callgsubr
          258 119 hintmask 11001000
          -83 callgsubr
          hintmask 00010000
          -139 172 -81 callgsubr
        </CharString>
        <CharString name="Z">
          104 callsubr
          hstem
          53 480 vstem
          -67 callsubr
          endchar
        </CharString>
        <CharString name="Zacute">
          104 callsubr
          120 callgsubr
          53 480 hintmask 11001000
          -67 callsubr
          hintmask 00110000
          -67 807 -95 callgsubr
        </CharString>
        <CharString name="Zcaron">
          104 callsubr
          70 -21 127 -20 hstemhm
          53 480 hintmask 11001000
          -67 callsubr
          hintmask 00110000
          -70 805 rmoveto
          -90 callsubr
        </CharString>
        <CharString name="Zdotaccent">
          104 callsubr
          49 118 hstemhm
          53 480 -305 123 hintmask 11010000
          -67 callsubr
          hintmask 00101000
          -182 745 rmoveto
          -105 callsubr
          endchar
        </CharString>
        <CharString name="Zdotbelow">
          -9 3 callsubr
          82 91 519 84 hstemhm
          53 480 -305 123 hintmask 01110000
          -67 callsubr
          hintmask 10001000
          -182 -198 rmoveto
          -105 callsubr
          endchar
        </CharString>
        <CharString name="Zeta">
          104 callsubr
          hstem
          53 480 vstem
          -67 callsubr
          endchar
        </CharString>
        <CharString name="a">
          -25 callgsubr
          hstem
          19 callsubr
          vstem
          -107 callsubr
          endchar
        </CharString>
        <CharString name="aacute">
          -25 callgsubr
          80 -21 148 -101 callgsubr
          64 427 -97 callsubr
        </CharString>
        <CharString name="abreve">
          -25 callgsubr
          64 80 59 -101 callgsubr
          93 399 -91 callsubr
        </CharString>
        <CharString name="abreveacute">
          -25 callgsubr
          64 80 230 -101 callgsubr
          93 399 -103 callgsubr
          -33 184 -95 callgsubr
        </CharString>
        <CharString name="abrevedotbelow">
          -137 72 callsubr
          -2 callsubr
          64 80 59 144 callgsubr
          hintmask 0111111010000000
          -107 callsubr
          93 399 -103 callgsubr
          hintmask 1000000100000000
          -103 -808 rmoveto
          -105 callsubr
          endchar
        </CharString>
        <CharString name="abrevegrave">
          -25 callgsubr
          64 80 59 -101 callgsubr
          93 399 -103 callgsubr
          -32 103 -48 callsubr
        </CharString>
        <CharString name="abrevehookabove">
          -25 callgsubr
          64 80 100 80 32 80 18 -20 41 callgsubr
          hintmask 1110000110000000
          -107 callsubr
          hintmask 0001010000000000
          93 399 -103 callgsubr
          -70 209 rmoveto
          23 -8 22 -18 14 vhcurveto
          hintmask 0000001000000000
          14 -20 -24 4 -29 hhcurveto
          -34 -32 -18 -29 -18 hvcurveto
          -1 -2 -1 -4 0 vvcurveto
          1 -4 14 -40 3 -3 4 -3 rlineto
          4 hlineto
          3 hlineto
          1 1 4 2 rlineto
          1 2 1 3 0 vvcurveto
          32 8 19 22 23 hhcurveto
          11 7 -2 -5 4 hvcurveto
          4 -5 1 -8 -16 vvcurveto
          hintmask 0000110000000000
          -10 -2 -7 -4 -4 vhcurveto
          -25 -25 -14 -33 -35 vvcurveto
          -19 vlineto
          -6 5 -5 6 vhcurveto
          14 hlineto
          6 5 5 6 hvcurveto
          19 vlineto
          22 16 15 36 23 vhcurveto
          3 1 rlineto
          17 12 9 20 21 vvcurveto
          endchar
        </CharString>
        <CharString name="abrevetilde">
          -25 callgsubr
          64 80 129 138 callsubr
          hintmask 11100011
          -107 callsubr
          hintmask 00010100
          93 399 -103 callgsubr
          -5 207 -78 callgsubr
          hintmask 00001000
          -23 -3 -10 -17 -19 hhcurveto
          -15 -17 13 10 -13 hvcurveto
          hintmask 00000100
          18 -23 -26 14 -31 hhcurveto
          -62 -33 -62 -40 hvcurveto
          hintmask 00001000
          -75 callgsubr
          hintmask 00000100
          -72 callgsubr
          hintmask 00001000
          -73 callgsubr
        </CharString>
        <CharString name="acaron">
          -25 callgsubr
          73 -21 162 -101 callgsubr
          91 426 -88 callsubr
        </CharString>
        <CharString name="acircumflex">
          -25 callgsubr
          73 -21 162 -101 callgsubr
          91 304 -93 callgsubr
          endchar
        </CharString>
        <CharString name="acircumflexacute">
          -25 callgsubr
          73 -21 298 -101 callgsubr
          102 305 rmoveto
          -106 callsubr
          -42 254 -95 callgsubr
        </CharString>
        <CharString name="acircumflexdotbelow">
          -137 72 callsubr
          -2 callsubr
          73 -21 162 144 callgsubr
          hintmask 0111111110000000
          -107 callsubr
          91 304 -93 callgsubr
          hintmask 1000000100000000
          -101 -713 rmoveto
          -105 callsubr
          endchar
        </CharString>
        <CharString name="acircumflexgrave">
          -25 callgsubr
          73 -21 127 -101 callgsubr
          102 305 rmoveto
          -106 callsubr
          -41 173 -48 callsubr
        </CharString>
        <CharString name="acircumflexhookabove">
          -25 callgsubr
          73 -21 378 -101 callgsubr
          102 305 -96 callgsubr
        </CharString>
        <CharString name="acircumflextilde">
          -25 callgsubr
          73 -21 197 138 callsubr
          hintmask 11100011
          -107 callsubr
          hintmask 00010100
          102 305 -57 callgsubr
        </CharString>
        <CharString name="acute">
          567 55 callsubr
          372 683 -97 callsubr
        </CharString>
        <CharString name="acute.cap">
          552 -21 121 -20 hstem
          413 630 -95 callgsubr
        </CharString>
        <CharString name="acute.dup">
          567 55 callsubr
          372 683 -97 callsubr
        </CharString>
        <CharString name="acute.ts1">
          567 -21 22 -21 148 132 callsubr
          hintmask 00100000
          394 683 rmoveto
          2 vlineto
          10 -13 0 -7 vhcurveto
          -57 hlineto
          hintmask 10010000
          -5 53 callsubr
          -4 -2 -3 -4 -3 -4 -14 -19 rcurveline
          -22 -31 -27 -30 -19 -33 rrcurveto
          -3 -4 -3 -4 -5 vvcurveto
          -10 12 -2 10 vhcurveto
          hintmask 01000000
          6 6 1 6 hhcurveto
          8 hlineto
          15 18 21 11 11 hvcurveto
          33 30 35 29 32 32 rrcurveto
          4 3 5 4 6 vvcurveto
          endchar
        </CharString>
        <CharString name="adblgrave">
          -25 callgsubr
          80 -21 148 -101 callgsubr
          67 302 -101 callsubr
        </CharString>
        <CharString name="adieresis">
          -25 callgsubr
          80 106 hstemhm
          36 105 -71 56 callgsubr
          -87 111 hintmask 11101001
          -107 callsubr
          hintmask 00010110
          -116 353 -72 callsubr
        </CharString>
        <CharString name="adotbelow">
          -137 72 callsubr
          -2 callsubr
          hstemhm
          36 105 23 123 10 111 hintmask 01111010
          -107 callsubr
          hintmask 10000100
          -10 -409 rmoveto
          -105 callsubr
          endchar
        </CharString>
        <CharString name="ae">
          -45 callgsubr
        </CharString>
        <CharString name="ae.dup">
          -45 callgsubr
        </CharString>
        <CharString name="aeacute">
          96 -10 64 0 47 131 47 52 47 45 64 -59 59 80 131 callsubr
          27 105 0 89 80 97 0 105 67 89 hintmask 0001100000000000
          659 276 rmoveto
          49 -8 55 -28 43 vhcurveto
          58 -39 -65 6 -28 hhcurveto
          -61 -46 -25 -21 -24 hvcurveto
          46 -46 -69 0 -20 hhcurveto
          -65 -38 -15 -15 -33 hvcurveto
          -26 -13 0 -3 -8 vvcurveto
          -7 2 -21 1 -8 vhcurveto
          -23 2 1 -6 10 hhcurveto
          5 1 1 9 10 hvcurveto
          hintmask 0001010001000000
          46 48 53 4 25 hhcurveto
          23 43 0 -97 hvcurveto
          -65 vlineto
          hintmask 1000000010010000
          -53 -2 -207 -6 -135 vvcurveto
          -54 38 -79 91 70 79 22 42 40 vhcurveto
          -43 43 54 -21 61 hhcurveto
          89 61 58 17 hvcurveto
          hintmask 0110100010011000
          -45 callsubr
          -269 -142 rmoveto
          -58 -8 -54 -25 -40 hhcurveto
          -41 -26 35 36 85 131 7 24 1 hvcurveto
          hintmask 0000000000100000
          0 2 -45 12 -36 vhcurveto
          hintmask 0000001100000000
          177 546 -97 callsubr
        </CharString>
        <CharString name="agrave">
          -25 callgsubr
          80 -21 148 -101 callgsubr
          -4 301 rmoveto
          -74 callsubr
        </CharString>
        <CharString name="ahookabove">
          -25 callgsubr
          44 -21 221 -101 callgsubr
          22 398 -107 callgsubr
        </CharString>
        <CharString name="amacron">
          -25 callgsubr
          97 73 41 callgsubr
          hintmask 11101100
          -107 callsubr
          hintmask 00010000
          101 354 -91 callgsubr
        </CharString>
        <CharString name="ampersand">
          127 -19 86 582 64 hstemhm
          137 96 110 95 106 96 -83 95 hintmask 00000100
          663 25 rmoveto
          34 vlineto
          16 0 10 -11 vhcurveto
          hintmask 00001000
          -3 -3 -1 -3 -6 hvcurveto
          hintmask 10000100
          -12 -38 -30 -2 -15 hhcurveto
          -14 -29 0 33 -42 hvcurveto
          48 54 27 44 22 45 rrcurveto
          45 90 18 82 4 vvcurveto
          9 -7 2 -4 2 vhcurveto
          2 -9 -48 14 -4 hhcurveto
          hintmask 11111000
          -10 -1 -5 -21 -5 hvcurveto
          -24 -95 -42 -99 -67 -69 -51 63 -45 63 -30 59 rrcurveto
          95 84 58 64 65 vvcurveto
          75 -54 81 -88 -81 -78 -69 -112 -49 9 -70 32 -76 vhcurveto
          -86 -75 rlineto
          -17 -15 -35 -42 -61 vvcurveto
          -87 73 -76 100 70 59 22 34 56 vhcurveto
          -40 52 52 -16 52 hhcurveto
          23 24 3 6 22 hvcurveto
          39 10 1 1 24 vvcurveto
          -320 532 rmoveto
          -59 -35 -43 -50 -48 vhcurveto
          -11 37 -14 51 56 vvcurveto
          59 29 39 34 38 9 -64 -28 vhcurveto
          -10 -459 rmoveto
          -29 -53 -51 -2 -13 hhcurveto
          -64 -1 92 9 61 25 23 30 24 hvcurveto
          40 -71 60 -77 27 -30 rrcurveto
          endchar
        </CharString>
        <CharString name="anglearc">
          149 -32 -21 634 -20 hstem
          507 70 vstem
          685 35 rmoveto
          15 -9 12 -13 5 vhcurveto
          -110 45 rlineto
          16 49 8 51 52 vvcurveto
          52 -8 51 -16 49 vhcurveto
          110 45 rlineto
          13 5 9 12 15 vvcurveto
          19 -16 16 -19 -5 -4 -1 -2 -4 vhcurveto
          -111 -45 -15 31 -18 29 -22 28 rlinecurve
          8 -6 -10 5 -11 hhcurveto
          -20 -15 -16 -19 -8 2 -8 5 -6 hvcurveto
          18 -22 15 -23 12 -25 -386 -158 rcurveline
          -13 -5 -9 -12 -15 vvcurveto
          -15 9 -12 13 -5 vhcurveto
          386 -158 -12 -25 -15 -23 -18 -22 rlinecurve
          -5 -6 -2 -8 -8 vvcurveto
          -19 15 -16 20 11 10 5 8 6 vhcurveto
          22 28 18 29 15 31 111 -45 rcurveline
          -2 4 4 -1 5 hhcurveto
          19 16 16 19 hvcurveto
          -178 229 rmoveto
          -43 -7 -42 -12 -40 vhcurveto
          -307 125 307 125 rlineto
          12 -40 7 -42 -43 vvcurveto
          endchar
        </CharString>
        <CharString name="angleleft">
          107 callgsubr
          315 -185 rmoveto
          22 -15 32 -8 23 vhcurveto
          -36 115 -32 117 -40 114 rrcurveto
          -2 8 -5 10 9 vvcurveto
          4 1 4 2 4 vhcurveto
          6 21 117 375 rlineto
          5 13 7 15 14 vvcurveto
          20 -16 16 -19 vhcurveto
          hintmask 11000000
          -6 -1 -23 -4 -5 -22 -6 -19 rlinecurve
          -128 -408 rlineto
          -3 -10 -5 -11 -11 vvcurveto
          -21 16 -34 8 -27 vhcurveto
          112 -359 rlineto
          -24 8 7 -21 25 hhcurveto
          20 15 18 18 hvcurveto
          endchar
        </CharString>
        <CharString name="angleright">
          107 callgsubr
          264 265 rmoveto
          24 -17 38 -10 29 vhcurveto
          -109 351 rlineto
          20 -7 -6 24 -26 hhcurveto
          hintmask 11000000
          -7 -1 rlineto
          -17 -3 -12 -15 -16 vvcurveto
          -19 12 -25 6 -19 vhcurveto
          36 -120 42 -119 34 -120 rrcurveto
          3 -9 5 -11 -9 vvcurveto
          -4 -1 -4 -2 -4 vhcurveto
          -6 -21 -117 -373 -4 -14 -7 -15 -1 -14 rlinecurve
          -2 vlineto
          -20 15 -15 20 vhcurveto
          2 hlineto
          27 5 26 18 6 hvcurveto
          45 136 38 138 45 136 rrcurveto
          3 10 5 11 11 vvcurveto
          endchar
        </CharString>
        <CharString name="aogonek">
          -137 -10 64 374 59 hstem
          19 callsubr
          vstem
          -32 callsubr
          endchar
        </CharString>
        <CharString name="aogonekacute">
          -137 -10 64 374 59 80 -21 148 -20 41 callgsubr
          hintmask 11001100
          -32 callsubr
          hintmask 00110000
          64 427 -97 callsubr
        </CharString>
        <CharString name="aring">
          -25 callgsubr
          48 41 66 41 hstemhm
          36 105 -21 59 94 59 -35 111 hintmask 1110010010000000
          -107 callsubr
          hintmask 0001101100000000
          -24 353 -44 callsubr
        </CharString>
        <CharString name="aringacute">
          -25 callgsubr
          48 41 66 41 171 -20 hstemhm
          36 105 -21 59 94 59 -35 111 hintmask 1110001001000000
          -107 callsubr
          hintmask 0001110110000000
          -24 353 -70 callsubr
          24 223 -95 callgsubr
        </CharString>
        <CharString name="asciicircum">
          -34 583 -21 123 59 hstem
          -5 566 vstem
          561 584 rmoveto
          -283 160 -283 -160 11 -22 271 123 272 -123 rlineto
          endchar
        </CharString>
        <CharString name="asciitilde">
          -34 207 43 -25 43 -8 43 -25 43 hstemhm
          hintmask 10010000
          555 304 57 callsubr
          hintmask 01000000
          38 callsubr
          hintmask 00100000
          20 10 20 11 17 14 rrcurveto
          endchar
        </CharString>
        <CharString name="asciitilde.low">
          -34 0 43 -25 43 -8 43 -25 43 hstemhm
          0 555 hintmask 10010000
          555 97 57 callsubr
          hintmask 01001000
          38 callsubr
          hintmask 00101000
          20 10 20 11 17 14 rrcurveto
          endchar
        </CharString>
        <CharString name="asterisk">
          299 97 callsubr
          hstem
          195 84 vstem
          417 422 rmoveto
          24 -17 7 -8 4 vhcurveto
          -128 57 128 57 rlineto
          8 4 17 7 24 vvcurveto
          23 -20 23 -24 -13 -5 -5 -9 -9 vhcurveto
          -93 -92 23 144 rlineto
          3 17 0 2 4 vvcurveto
          26 -25 11 -17 -17 -25 -11 -26 -4 0 -2 3 -17 vhcurveto
          23 -144 -92 92 rlineto
          10 -10 -7 4 -11 hhcurveto
          -23 -21 -23 -23 -24 17 -7 8 -4 hvcurveto
          128 -57 -128 -57 rlineto
          -8 -4 -17 -7 -24 vvcurveto
          -23 20 -23 24 13 5 5 9 9 vhcurveto
          93 92 -23 -144 rlineto
          -3 -17 0 -2 -4 vvcurveto
          -26 25 -11 17 17 25 11 26 9 -19 117 -7 41 vhcurveto
          92 -92 rlineto
          -10 10 7 -4 11 hhcurveto
          23 21 23 23 hvcurveto
          endchar
        </CharString>
        <CharString name="asterisk.math">
          51 -21 471 -20 hstem
          195 84 vstem
          417 174 rmoveto
          17 -12 11 -16 7 vhcurveto
          -25 11 -33 15 -32 18 -34 11 rlinecurve
          2 vlineto
          34 11 32 18 33 15 25 11 rcurveline
          16 7 12 11 17 vvcurveto
          23 -21 24 -24 -21 -12 -20 -13 -13 vhcurveto
          -73 -73 11 49 5 51 8 50 rlinecurve
          1 6 1 5 6 vvcurveto
          24 -21 13 -21 -23 -19 -16 -23 -11 3 -11 2 -10 vhcurveto
          7 -44 5 -45 9 -44 -73 73 rcurveline
          13 -13 -12 20 -21 hhcurveto
          -24 -21 -24 -23 -17 12 -11 16 -7 hvcurveto
          25 -11 33 -15 32 -18 34 -11 rlinecurve
          -2 vlineto
          -34 -11 -32 -18 -33 -15 -25 -11 rcurveline
          -16 -7 -12 -11 -17 vvcurveto
          -23 21 -24 24 21 12 20 13 13 vhcurveto
          73 73 -9 -44 -5 -45 -7 -44 rlinecurve
          -2 -10 -3 -11 -11 vvcurveto
          -24 19 -14 24 21 20 11 25 17 -5 20 -3 17 vhcurveto
          -6 38 -4 38 -8 37 73 -73 rcurveline
          -13 13 12 -20 21 hhcurveto
          24 21 24 23 hvcurveto
          endchar
        </CharString>
        <CharString name="at">
          43 -10 64 66 64 326 64 66 64 hstem
          53 101 59 101 165 101 vstem
          580 367 rmoveto
          146 -11 191 -203 -86 -94 -28 -79 -62 vhcurveto
          -63 -81 -8 -105 -64 vvcurveto
          -73 9 -89 56 -79 vhcurveto
          -78 54 95 -38 100 hhcurveto
          132 80 86 11 11 -8 0 -16 hvcurveto
          -43 hlineto
          -40 -58 -61 -4 -23 hhcurveto
          -216 0 245 48 66 9 76 32 53 hvcurveto
          65 39 60 33 72 hhcurveto
          46 33 -32 -43 12 hvcurveto
          2 -6 -25 7 -29 hhcurveto
          -184 0 -194 -33 -25 0 -76 41 -57 hvcurveto
          -66 48 72 -3 22 hhcurveto
          71 50 34 39 25 hvcurveto
          38 59 0 59 56 vvcurveto
          -101 -20 rmoveto
          -160 -67 -3 -15 -68 -15 91 72 160 67 3 15 68 15 -91 -72 vhcurveto
          endchar
        </CharString>
        <CharString name="atilde">
          -25 callgsubr
          74 64 -9 64 -102 callsubr
          hintmask 00001000
          88 407 -81 callsubr
        </CharString>
        <CharString name="b">
          46 callgsubr
          223 vlineto
          31 -6 13 -38 vhcurveto
          -19 hlineto
          -35 -10 -9 -36 hvcurveto
          -604 11 callsubr
        </CharString>
        <CharString name="backslash">
          -90 102 callsubr
          56 387 vstem
          443 -230 rmoveto
          0 0 5 -5 13 vhcurveto
          -340 940 rlineto
          11 -4 -4 11 -14 hhcurveto
          -11 -9 -9 -11 0 0 -5 5 -13 hvcurveto
          340 -940 rlineto
          -11 4 4 -11 14 hhcurveto
          11 9 9 11 hvcurveto
          endchar
        </CharString>
        <CharString name="baht">
          45 0 75 254 64 226 75 hstem
          81 116 69 86 92 111 vstem
          581 192 rmoveto
          73 -38 77 -125 21 vhcurveto
          83 19 54 54 80 vvcurveto
          86 -54 83 -149 8 vhcurveto
          66 121 callgsubr
          -43 hlineto
          -12 -10 -9 -12 hvcurveto
          -65 -140 vlineto
          -83 callsubr
          140 -65 hlineto
          116 callgsubr
          65 vlineto
          174 1 55 98 93 vvcurveto
          -137 322 rmoveto
          -51 -25 -47 -67 -17 vhcurveto
          214 vlineto
          43 -9 49 -24 -66 vvcurveto
          -178 -121 rmoveto
          -69 226 69 hlineto
          201 -425 rmoveto
          -69 -41 -40 -74 -8 vhcurveto
          248 vlineto
          49 -8 66 -29 -94 vvcurveto
          -201 -119 rmoveto
          -69 254 69 hlineto
          endchar
        </CharString>
        <CharString name="bar">
          -312 139 callgsubr
          vstem
          159 -217 rmoveto
          33 callsubr
          endchar
        </CharString>
        <CharString name="bigcircle">
          104 0 64 566 64 hstem
          0 64 566 64 vstem
          -60 callgsubr
          endchar
        </CharString>
        <CharString name="blanksymbol">
          46 callgsubr
          111 vlineto
          72 70 8 8 0 13 -8 9 rlinecurve
          -30 31 -8 8 -13 1 -9 -9 rlinecurve
          -12 -11 rlineto
          25 -1 -8 11 -35 hhcurveto
          -15 callsubr
          -95 vlineto
          -49 -48 -9 -8 0 -14 8 -8 rlinecurve
          30 -31 5 -6 8 -2 7 2 rlinecurve
          -394 11 callsubr
        </CharString>
        <CharString name="braceleft">
          -90 -229 -21 487 24 489 -20 hstem
          216 67 vstem
          427 -239 rmoveto
          10 -6 0 -10 1 vhcurveto
          -79 5 -37 45 -9 36 rrcurveto
          -3 11 0 2 35 vvcurveto
          150 vlineto
          30 0 51 -2 10 vhcurveto
          -13 66 -64 26 -39 11 rrcurveto
          118 34 0 71 28 vvcurveto
          180 vlineto
          72 0 22 24 25 vhcurveto
          18 18 23 24 70 4 rrcurveto
          5 1 4 4 6 vvcurveto
          11 -8 0 -12 -100 -89 -51 -72 -2 vhcurveto
          -183 vlineto
          -94 0 -16 -26 -28 vhcurveto
          -14 -14 -27 -27 -63 -4 rrcurveto
          -7 -7 -1 -10 -10 6 0 10 -1 hvcurveto
          43 -3 85 -21 -100 vvcurveto
          -198 vlineto
          -58 0 -34 52 -37 vhcurveto
          -30 43 65 -8 31 hhcurveto
          12 8 0 11 hvcurveto
          endchar
        </CharString>
        <CharString name="braceright">
          -90 -229 -21 510 -21 511 -20 hstem
          216 67 vstem
          427 250 rmoveto
          10 -6 0 -10 1 vhcurveto
          -43 3 -85 21 100 vvcurveto
          198 vlineto
          58 0 34 -52 37 vhcurveto
          29 -43 -64 9 -32 hhcurveto
          -10 -10 0 -11 -10 6 0 10 -1 hvcurveto
          79 -5 37 -45 9 -36 rrcurveto
          3 -11 0 -2 -35 vvcurveto
          -150 vlineto
          -30 0 -51 2 -10 vhcurveto
          13 -66 64 -26 39 -11 rrcurveto
          -118 -34 0 -71 -28 vvcurveto
          -180 vlineto
          -72 0 -22 -24 -25 vhcurveto
          -18 -18 -23 -24 -70 -4 rrcurveto
          -5 -1 -4 -4 -6 vvcurveto
          -11 10 0 10 100 89 51 72 2 vhcurveto
          183 vlineto
          94 0 16 26 28 vhcurveto
          14 14 27 27 63 4 rrcurveto
          7 7 1 10 hvcurveto
          endchar
        </CharString>
        <CharString name="bracketleft">
          -297 -222 64 844 64 hstemhm
          78 105 -61 105 hintmask 10010000
          271 -190 23 callgsubr
          hintmask 11100000
          -44 844 hlineto
          hintmask 01010000
          44 hlineto
          42 callgsubr
          32 -31 0 -13 hvcurveto
          -105 hlineto
          hintmask 00100000
          -52 callgsubr
          -884 vlineto
          hintmask 10010000
          -59 callgsubr
          105 hlineto
          56 callsubr
          endchar
        </CharString>
        <CharString name="bracketright">
          -297 -222 64 844 64 hstemhm
          65 105 -61 105 hintmask 00010000
          214 -178 rmoveto
          884 vlineto
          hintmask 01100000
          -88 callgsubr
          -105 hlineto
          -13 -31 0 -32 -32 31 0 13 hvcurveto
          hintmask 11010000
          44 -844 hlineto
          hintmask 10100000
          -44 hlineto
          -13 -31 0 -32 -32 31 0 13 hvcurveto
          105 hlineto
          hintmask 00010000
          35 9 10 34 hvcurveto
          endchar
        </CharString>
        <CharString name="breve">
          551 80 59 -20 hstem
          401 655 -91 callsubr
        </CharString>
        <CharString name="breve.cap">
          531 80 59 -20 hstem
          401 635 -91 callsubr
        </CharString>
        <CharString name="breve.ts1">
          -9 556 80 58 132 callsubr
          hintmask 10100000
          507 659 rmoveto
          17 -8 19 -24 -12 -12 -7 -12 -5 vhcurveto
          -22 -9 5 -18 -131 hhcurveto
          -56 hlineto
          -37 -63 1 20 -15 hvcurveto
          -4 6 1 7 -3 6 rrcurveto
          11 -4 -12 8 -12 hhcurveto
          hintmask 11000000
          -6 -1 rlineto
          -19 -3 -8 -16 -17 vvcurveto
          -92 113 -10 76 vhcurveto
          54 hlineto
          76 115 9 94 hvcurveto
          endchar
        </CharString>
        <CharString name="brokenbar">
          -312 139 callgsubr
          vstem
          159 343 rmoveto
          374 vlineto
          14 0 19 -20 -20 0 -19 -14 vhcurveto
          -374 vlineto
          -20 2 -23 18 18 2 23 20 vhcurveto
          -560 vmoveto
          374 vlineto
          20 -2 23 -18 -18 -2 -23 -20 vhcurveto
          -374 vlineto
          -14 0 -19 20 20 0 19 14 vhcurveto
          endchar
        </CharString>
        <CharString name="bullet">
          149 99 338 hstem
          200 338 41 callsubr
          endchar
        </CharString>
        <CharString name="c">
          78 callgsubr
          hstem
          32 111 100 111 vstem
          -78 callsubr
          endchar
        </CharString>
        <CharString name="cacute">
          78 callgsubr
          80 131 callsubr
          32 111 100 111 hintmask 11001100
          -78 callsubr
          hintmask 00110000
          -28 621 -97 callsubr
        </CharString>
        <CharString name="caron">
          88 callgsubr
          399 682 -88 callsubr
        </CharString>
        <CharString name="caron.cap">
          542 -21 127 -20 hstem
          410 628 rmoveto
          -90 callsubr
        </CharString>
        <CharString name="caron.ts1">
          -9 531 -21 204 -20 hstem
          437 700 rmoveto
          3 vlineto
          6 -5 5 -7 vhcurveto
          -37 hlineto
          -18 -24 -44 -23 -18 hvcurveto
          -15 -11 -22 -31 -5 hhcurveto
          -1 hlineto
          -3 1 -3 4 -2 3 -17 23 rcurveline
          -44 57 rlineto
          11 -10 -4 14 -18 hhcurveto
          -29 hlineto
          -4 -3 0 -1 -3 hvcurveto
          -5 -2 -1 -3 -4 vvcurveto
          -15 24 -34 11 -20 vhcurveto
          62 -111 rlineto
          -8 4 3 -6 12 hhcurveto
          59 hlineto
          12 5 3 11 5 hvcurveto
          81 145 5 10 9 10 2 11 rlinecurve
          endchar
        </CharString>
        <CharString name="ccaron">
          78 callgsubr
          73 122 callsubr
          hstemhm
          32 111 100 111 hintmask 11001100
          -78 callsubr
          hintmask 00110000
          -1 620 -88 callsubr
        </CharString>
        <CharString name="ccedilla">
          78 callgsubr
          hstemhm
          32 111 31 111 -42 111 hintmask 11101000
          -78 callsubr
          -106 -113 51 callgsubr
          -6 -10 0 -4 0 vvcurveto
          hintmask 00010000
          74 callgsubr
        </CharString>
        <CharString name="ccircumflex">
          78 callgsubr
          73 122 callsubr
          hstemhm
          32 111 100 111 hintmask 11001100
          -78 callsubr
          hintmask 00110000
          -1 498 -93 callgsubr
          endchar
        </CharString>
        <CharString name="cdotaccent">
          78 callgsubr
          74 118 hstemhm
          32 111 27 123 -50 111 hintmask 11010100
          -78 callsubr
          hintmask 00101000
          -102 546 rmoveto
          -105 callsubr
          endchar
        </CharString>
        <CharString name="cedilla">
          -168 -144 -21 144 -20 hstem
          128 140 vstem
          268 -32 51 callgsubr
          -26 callsubr
        </CharString>
        <CharString name="cedilla.dup">
          -168 -144 -21 144 -20 hstem
          128 140 vstem
          268 -32 51 callgsubr
          -26 callsubr
        </CharString>
        <CharString name="cent">
          -168 32 111 0 111 -65 86 hintmask 00100000
          395 62 rmoveto
          7 -2 21 -1 8 vhcurveto
          23 -2 -1 5 -10 hhcurveto
          -5 -2 -1 -8 -6 hvcurveto
          -11 -11 -28 -32 -52 -10 rrcurveto
          351 vlineto
          34 -5 20 -13 25 -19 rrcurveto
          -9 67 callsubr
          1 5 23 4 hvcurveto
          1 5 6 29 3 vvcurveto
          9 -3 1 -14 8 vhcurveto
          -31 19 -24 11 -42 4 rrcurveto
          51 vlineto
          hintmask 01000000
          12 -9 9 -12 vhcurveto
          -43 hlineto
          hintmask 10100000
          -12 -10 -9 -12 hvcurveto
          -55 vlineto
          -103 -21 -54 -88 -136 vvcurveto
          -31 0 -87 53 -65 vhcurveto
          28 -33 38 -18 38 -8 rrcurveto
          -60 vlineto
          -11 10 -10 12 vhcurveto
          hintmask 01000000
          43 hlineto
          hintmask 10100000
          12 9 10 11 hvcurveto
          58 vlineto
          18 3 21 5 21 10 rrcurveto
          0 60 30 21 vvcurveto
          -206 14 rmoveto
          -46 36 0 85 41 vvcurveto
          56 3 74 43 33 vhcurveto
          endchar
        </CharString>
        <CharString name="cent.oldstyle">
          -168 -10 70 -68 70 355 70 hstemhm
          32 86 -86 111 -25 86 -52 86 -74 86 -29 86 hintmask 1000000000000000
          395 62 rmoveto
          7 -2 21 -1 8 vhcurveto
          23 -2 -1 5 -10 hhcurveto
          -5 -2 -1 -8 -6 hvcurveto
          -13 -13 -39 -44 -74 hhcurveto
          hintmask 0100000010000000
          -7 -6 1 1 -6 hvcurveto
          86 345 17 -7 14 -9 16 -13 rlinecurve
          -9 67 callsubr
          1 5 23 4 hvcurveto
          1 5 6 29 3 vvcurveto
          9 -3 1 -14 8 vhcurveto
          -17 10 -15 8 -17 6 16 62 rcurveline
          10 2 -8 10 -11 hhcurveto
          -45 hlineto
          hintmask 0000000100000000
          -13 -11 -8 -12 -3 hvcurveto
          hintmask 0010101000000000
          -12 -51 rlineto
          -136 -2 -70 -92 -156 vvcurveto
          -31 0 -87 53 -65 vhcurveto
          11 -13 13 -11 14 -9 -21 -86 rcurveline
          hintmask 0001000100000000
          -11 -3 8 -10 11 hhcurveto
          46 hlineto
          12 11 9 12 3 hvcurveto
          hintmask 0100010000000000
          14 57 rlineto
          hintmask 1000001000000000
          -1 12 11 -1 11 hhcurveto
          18 39 2 19 40 hvcurveto
          hintmask 0100101000000000
          0 60 30 21 vvcurveto
          -175 353 rmoveto
          -68 -275 rlineto
          -9 35 0 39 24 vvcurveto
          67 4 93 73 17 vhcurveto
          endchar
        </CharString>
        <CharString name="centigrade">
          228 -18 86 -40 85 515 85 -85 86 hstemhm
          264 122 hintmask 01000000
          770 51 rmoveto
          29 -1 43 -16 -7 -8 -7 -3 -5 vhcurveto
          hintmask 10101000
          -33 -45 -46 -12 -60 hhcurveto
          -146 -50 135 162 106 38 157 156 52 46 -14 -30 42 hvcurveto
          -3 4 6 -3 5 hhcurveto
          11 0 15 8 2 hvcurveto
          9 54 rlineto
          1 4 1 3 4 vvcurveto
          26 -102 18 -47 3 vhcurveto
          hintmask 10011000
          1 -12 -12 0 -12 hhcurveto
          -15 hlineto
          -65 -7 -62 -14 -53 -43 rrcurveto
          -88 -70 -27 -117 -109 vvcurveto
          -96 17 -106 66 -76 vhcurveto
          58 -67 90 -26 85 -1 rrcurveto
          hintmask 01000000
          61 53 9 37 54 hvcurveto
          8 5 14 6 12 vvcurveto
          -558 539 rmoveto
          63 -46 43 -61 vhcurveto
          -4 -4 -1 -4 hhcurveto
          -56 -7 -37 -40 -58 vvcurveto
          -62 43 -45 63 60 46 44 63 vhcurveto
          -71 -2 rmoveto
          -22 -14 -12 -22 -20 -11 9 19 -3 vhcurveto
          3 -1 3 3 vvcurveto
          21 13 13 23 22 13 -12 -25 vhcurveto
          endchar
        </CharString>
        <CharString name="circumflex">
          88 callgsubr
          399 560 -93 callgsubr
          endchar
        </CharString>
        <CharString name="circumflex.cap">
          542 -21 127 -20 hstem
          410 543 rmoveto
          -106 callsubr
          endchar
        </CharString>
        <CharString name="circumflex.dup">
          88 callgsubr
          399 560 -93 callgsubr
          endchar
        </CharString>
        <CharString name="colon">
          -326 0 17 callsubr
          25 vhcurveto
          55 hlineto
          24 1 0 26 hvcurveto
          endchar
        </CharString>
        <CharString name="colonmonetary">
          141 callsubr
          116 86 70 callsubr
          -32 -13 -69 hhcurveto
          560 vlineto
          62 -1 39 -21 31 -21 rrcurveto
          73 callsubr
          -44 16 -42 11 -60 1 rrcurveto
          89 vlineto
          12 -10 9 -12 vhcurveto
          -43 hlineto
          -12 -9 -9 -12 hvcurveto
          -97 vlineto
          -64 -13 -58 -31 -43 -55 rrcurveto
          105 callsubr
          42 -44 51 -28 61 -13 rrcurveto
          -97 vlineto
          -11 9 -10 12 vhcurveto
          43 hlineto
          12 10 10 11 hvcurveto
          89 vlineto
          67 38 11 35 55 hvcurveto
          21 15 1 1 8 vvcurveto
          -268 33 rmoveto
          -102 47 -14 134 82 vvcurveto
          41 0 169 116 54 vhcurveto
          endchar
        </CharString>
        <CharString name="comma">
          -326 -90 -21 111 128 callsubr
          26 rmoveto
          54 -48 callgsubr
          -4 -13 -24 -80 -6 vvcurveto
          -12 8 0 19 21 1 1 15 7 vhcurveto
          20 38 0 2 22 46 rrcurveto
          8 17 0 2 16 vvcurveto
          endchar
        </CharString>
        <CharString name="copyleft">
          104 0 64 566 64 hstem
          0 64 566 64 vstem
          -60 callgsubr
          -108 hmoveto
          42 -5 66 -40 50 vhcurveto
          48 -36 -56 18 -57 hhcurveto
          -39 -27 -7 -10 -27 hvcurveto
          -13 -6 -3 0 -6 vvcurveto
          -7 6 -31 2 -8 vhcurveto
          -3 1 1 -5 6 hhcurveto
          0 3 0 5 4 vhcurveto
          13 20 24 13 40 hhcurveto
          120 0 -141 -30 -61 -13 -110 -109 -43 -20 8 21 -29 hvcurveto
          5 -7 -1 0 -2 hhcurveto
          -5 -1 -5 -2 -1 hvcurveto
          -4 -3 -28 -5 vvcurveto
          -5 0 0 13 -9 vhcurveto
          -22 34 24 -6 42 hhcurveto
          61 47 18 38 36 hvcurveto
          44 47 8 73 47 vvcurveto
          endchar
        </CharString>
        <CharString name="copyright">
          104 0 64 566 64 hstem
          0 64 566 64 vstem
          -60 callgsubr
          -148 -181 rmoveto
          5 -3 28 -1 4 vhcurveto
          3 -1 0 4 -6 hhcurveto
          -2 -1 0 -5 -7 hvcurveto
          -21 -29 -20 -8 -43 hhcurveto
          -109 -13 110 61 30 0 141 121 39 25 -13 -13 19 hvcurveto
          -4 6 1 0 2 hhcurveto
          5 1 5 3 1 hvcurveto
          2 8 6 31 6 vvcurveto
          6 -2 1 -13 6 vhcurveto
          10 -28 -27 7 -38 hhcurveto
          -57 -56 -19 -47 -37 hvcurveto
          -39 -50 -5 -66 -42 vvcurveto
          -47 8 -72 43 -47 vhcurveto
          -39 36 48 -18 60 hhcurveto
          43 23 6 22 34 hvcurveto
          13 9 1 1 4 vvcurveto
          endchar
        </CharString>
        <CharString name="copyright.alt">
          165 -141 64 0 64 415 64 84 64 hstemhm
          0 64 126 83 418 64 hintmask 10111110
          755 236 rmoveto
          232 -146 146 -231 -232 -146 -146 -232 -232 146 -145 232 231 146 145 232 vhcurveto
          -64 hmoveto
          -192 -121 -121 -192 -193 -121 121 192 192 121 122 193 192 121 -122 -192 vhcurveto
          -157 -201 rmoveto
          4 -3 32 -1 4 vhcurveto
          3 -1 6 -6 -2 -2 0 -6 -8 vhcurveto
          -24 -32 -22 -8 -48 hhcurveto
          -121 -15 121 69 33 0 157 134 44 28 -14 -15 21 hvcurveto
          -5 7 1 0 2 hhcurveto
          6 1 6 4 1 hvcurveto
          2 9 7 34 7 vvcurveto
          7 -3 1 -14 6 vhcurveto
          11 -31 -30 8 -42 hhcurveto
          -64 -62 -21 -52 -41 hvcurveto
          -44 -56 -6 -74 -46 vvcurveto
          -53 9 -80 48 -53 vhcurveto
          hintmask 01000000
          -43 41 53 -20 67 hhcurveto
          48 25 7 24 38 hvcurveto
          15 11 0 0 6 vvcurveto
          endchar
        </CharString>
        <CharString name="currency">
          149 46 70 -67 -20 383 70 18 -21 hstemhm
          152 70 295 70 hintmask 00010100
          593 40 rmoveto
          25 25 -25 24 -8 9 -39 38 rcurveline
          26 36 15 44 48 vvcurveto
          48 -15 44 -26 36 vhcurveto
          38 37 8 9 25 25 -25 24 rlinecurve
          -24 25 -25 -25 -9 -8 -38 -38 rcurveline
          hintmask 01101000
          26 -35 -44 15 -48 hhcurveto
          -47 -44 -16 -25 -36 hvcurveto
          -39 39 -9 8 -24 25 -25 -25 rlinecurve
          -25 -25 25 -24 8 -9 40 -39 rcurveline
          -26 -36 -15 -44 -47 vvcurveto
          -47 15 -44 26 -36 vhcurveto
          -39 -38 -8 -9 -25 -25 25 -24 rlinecurve
          24 -25 25 25 9 8 38 38 rcurveline
          hintmask 10101100
          -25 36 44 -16 47 hhcurveto
          48 44 15 26 35 hvcurveto
          39 -39 9 -8 24 -25 25 25 rlinecurve
          -76 224 rmoveto
          -82 -66 -66 -82 -81 -66 66 82 82 66 66 81 82 66 -66 -82 vhcurveto
          endchar
        </CharString>
        <CharString name="cwm">
          -590 endchar
        </CharString>
        <CharString name="cwmascender">
          -590 endchar
        </CharString>
        <CharString name="cwmcapital">
          -590 endchar
        </CharString>
        <CharString name="d">
          -107 -10 64 364 64 212 95 callsubr
          -60 callsubr
          endchar
        </CharString>
        <CharString name="dagger">
          -79 388 111 203 -20 hstemhm
          200 111 -32 111 hintmask 10010000
          447 443 rmoveto
          137 callgsubr
          -33 -16 -9 -2 -13 -3 3 28 7 23 9 27 rrcurveto
          hintmask 11100000
          11 36 11 37 33 vvcurveto
          49 -37 10 -18 -22 -34 -13 -46 -33 11 -36 10 -32 vhcurveto
          10 -33 7 -23 3 -27 -10 2 -11 3 -19 9 rrcurveto
          12 -24 -29 14 -27 99 callgsubr
          33 16 9 2 13 3 -3 -27 -10 -28 -7 -20 rrcurveto
          -21 -64 0 -15 -43 vvcurveto
          -129 10 -130 16 -128 vhcurveto
          2 -16 4 -28 3 -4 rrcurveto
          -7 3 8 0 9 hhcurveto
          hintmask 00010000
          11 10 0 11 3 hvcurveto
          hintmask 00100000
          2 12 30 208 211 vvcurveto
          46 0 12 -23 70 vhcurveto
          -7 21 -8 25 -3 23 10 -2 11 -3 19 -9 rrcurveto
          hintmask 10010000
          -12 24 29 -14 27 hhcurveto
          41 16 30 25 hvcurveto
          endchar
        </CharString>
        <CharString name="daggerdbl">
          -79 -32 111 323 111 -92 110 171 -20 hstemhm
          200 111 hintmask 00100000
          447 476 rmoveto
          28 -19 27 -37 vhcurveto
          hintmask 01011000
          -18 -23 -6 -12 -24 hvcurveto
          -32 -15 -6 -2 -17 -4 3 18 1 8 13 33 rrcurveto
          13 34 10 31 28 vvcurveto
          44 -34 14 -21 -26 -30 -16 -42 -31 14 -36 10 -27 vhcurveto
          12 -33 1 -6 3 -19 -15 4 -6 1 -19 9 rrcurveto
          hintmask 00101000
          12 -24 -28 13 -28 hhcurveto
          -37 -19 -27 -28 -13 6 -42 51 13 16 0 24 49 hvcurveto
          20 10 5 1 16 4 -3 -18 -1 -8 -13 -33 rrcurveto
          -13 -34 -10 -31 -28 vvcurveto
          -44 34 -14 21 26 30 16 42 vhcurveto
          hintmask 01001000
          31 -14 36 -10 27 vhcurveto
          -12 33 -1 6 -3 19 15 -4 6 -1 19 -9 rrcurveto
          hintmask 10101000
          -21 42 17 -4 20 hhcurveto
          51 6 42 13 hvcurveto
          -453 vmoveto
          137 callgsubr
          -28 -13 -12 -4 -14 -4 3 20 1 6 16 44 rrcurveto
          14 36 6 25 21 vvcurveto
          44 -34 14 -21 -26 -30 -16 -42 -28 11 -31 11 -30 vhcurveto
          14 -37 1 -7 3 -19 -13 3 -11 4 -15 8 rrcurveto
          12 -26 -28 13 -26 99 callgsubr
          22 10 16 7 16 4 -3 -20 -1 -6 -16 -44 rrcurveto
          -14 -36 -6 -25 -21 vvcurveto
          -44 34 -14 21 26 30 16 42 28 -11 31 -11 30 vhcurveto
          -14 37 -1 7 -3 19 18 -5 15 -7 23 -10 rrcurveto
          -9 18 24 -9 21 hhcurveto
          41 16 30 25 hvcurveto
          endchar
        </CharString>
        <CharString name="dblbracketleft">
          -207 -221 70 832 70 1 -20 hstemhm
          96 70 48 70 hintmask 11001000
          361 -186 rmoveto
          23 -15 12 -27 vhcurveto
          -35 832 35 hlineto
          27 15 12 23 23 -14 12 -27 hvcurveto
          -158 hlineto
          hintmask 10110000
          -8 -8 1 -9 hhcurveto
          -29 -13 -16 -27 hvcurveto
          -8 1 -7 -7 vvcurveto
          -842 vlineto
          -7 -1 -9 -8 vvcurveto
          -29 15 -13 28 vhcurveto
          182 hlineto
          27 14 12 23 hvcurveto
          -147 35 rmoveto
          -48 hlineto
          hintmask 11011000
          832 48 vlineto
          endchar
        </CharString>
        <CharString name="dblbracketright">
          -207 -221 70 -50 -21 903 70 hstemhm
          98 70 48 70 hintmask 10111000
          287 -179 rmoveto
          8 -1 7 7 vvcurveto
          842 vlineto
          7 1 9 8 vvcurveto
          29 -15 13 -28 vhcurveto
          -181 hlineto
          -27 -14 -12 -23 -23 15 -12 26 hvcurveto
          35 -832 -34 hlineto
          -27 -15 -12 -23 -23 14 -12 27 hvcurveto
          158 hlineto
          hintmask 01000000
          7 7 -1 8 hhcurveto
          29 15 14 29 hvcurveto
          -71 28 rmoveto
          hintmask 10111000
          -48 832 48 hlineto
          endchar
        </CharString>
        <CharString name="dblgrave.ts1">
          547 148 1 -20 hstemhm
          hintmask 10000000
          374 559 rmoveto
          4 -1 4 -1 3 vhcurveto
          -12 60 rlineto
          29 -6 1 36 -24 hhcurveto
          -61 hlineto
          hintmask 01000000
          -5 53 callgsubr
          -4 -1 -3 -5 -4 vvcurveto
          -13 14 -17 7 -11 vhcurveto
          37 -64 10 -18 rlineto
          hintmask 10000000
          -10 7 2 -4 13 hhcurveto
          32 hlineto
          9 5 5 7 hvcurveto
          -158 hmoveto
          4 -1 4 -1 3 vhcurveto
          -21 102 rlineto
          12 -2 -2 11 -17 hhcurveto
          -60 hlineto
          hintmask 01000000
          -5 53 callgsubr
          -4 -1 -3 -5 -4 vvcurveto
          -13 14 -17 7 -11 vhcurveto
          37 -64 10 -18 rlineto
          hintmask 10000000
          -10 7 2 -4 13 hhcurveto
          32 hlineto
          9 5 5 7 hvcurveto
          endchar
        </CharString>
        <CharString name="dblverticalbar">
          -102 139 callgsubr
          170 40 vstem
          159 -217 rmoveto
          33 callsubr
          210 hmoveto
          33 callsubr
          endchar
        </CharString>
        <CharString name="dcaron">
          -107 -10 64 364 64 37 -21 100 96 hstem
          32 103 callsubr
          -60 callsubr
          241 238 -103 callsubr
        </CharString>
        <CharString name="dcroat">
          -107 -10 64 364 64 58 86 68 95 callsubr
          501 572 rmoveto
          102 callgsubr
          -43 24 hlineto
          30 callgsubr
          -24 -93 vlineto
          -17 -15 -14 -18 hvcurveto
          -22 vlineto
          -17 15 -15 17 vhcurveto
          93 -107 hlineto
          18 -15 -35 31 -55 hhcurveto
          -23 -70 -5 -65 -45 hvcurveto
          -43 -63 0 -81 -32 vvcurveto
          -27 0 -79 35 -59 vhcurveto
          -71 43 62 -10 36 hhcurveto
          67 37 49 5 3 hvcurveto
          40 callsubr
          496 43 vlineto
          17 15 15 17 hvcurveto
          -186 -471 rmoveto
          -25 -16 -26 -22 -36 hhcurveto
          -94 0 119 62 62 0 121 104 42 24 -32 -2 2 hvcurveto
          endchar
        </CharString>
        <CharString name="ddotbelow">
          -107 72 callsubr
          64 364 64 212 -20 hstemhm
          32 111 37 123 12 111 hintmask 01111010
          -60 callsubr
          hintmask 10000100
          -12 -537 rmoveto
          -105 callsubr
          endchar
        </CharString>
        <CharString name="degree">
          -234 431 70 123 70 hstem
          46 70 124 70 vstem
          310 563 rmoveto
          72 -59 59 -73 -73 -59 -59 -72 -73 59 -59 73 73 59 59 73 vhcurveto
          -70 hmoveto
          -35 -28 -27 -34 -34 -28 27 35 34 28 27 34 34 28 -27 -34 vhcurveto
          endchar
        </CharString>
        <CharString name="diameter">
          149 -34 70 456 70 hstem
          71 70 456 70 vstem
          685 546 rmoveto
          19 -16 16 -19 -10 -8 -4 -6 -7 vhcurveto
          -72 -73 rlineto
          40 -51 -64 24 -69 hhcurveto
          -165 -133 -133 -165 -70 24 -64 40 -51 hvcurveto
          -72 -72 rlineto
          -6 -7 -4 -8 -10 vvcurveto
          -19 16 -16 19 10 8 4 6 7 vhcurveto
          72 73 rlineto
          -40 51 64 -24 69 hhcurveto
          165 133 133 165 70 -24 64 -40 51 hvcurveto
          72 72 rlineto
          6 7 4 8 10 vvcurveto
          -88 -282 rmoveto
          -126 -102 -102 -126 -50 -47 16 28 -37 vhcurveto
          318 319 rlineto
          28 -38 16 -47 -50 vvcurveto
          -94 184 rmoveto
          -318 -319 rlineto
          -28 38 -16 47 50 vvcurveto
          126 102 102 126 50 47 -16 -28 37 vhcurveto
          endchar
        </CharString>
        <CharString name="died">
          -1 -21 22 -21 351 83 -78 83 200 132 callsubr
          181 112 hintmask 00010000
          453 374 rmoveto
          20 -2 24 -34 -10 -10 -1 -1 -8 vhcurveto
          hintmask 00101010
          -2 -32 -32 -1 -32 hhcurveto
          161 vlineto
          21 -5 23 -31 vhcurveto
          -11 hlineto
          hintmask 00100110
          -7 -7 1 -8 hhcurveto
          -25 -18 -11 -33 hvcurveto
          -162 vlineto
          -32 -32 1 2 -32 hvcurveto
          hintmask 00010000
          1 -8 -10 1 -10 hhcurveto
          -34 -2 -24 -20 hvcurveto
          hintmask 00100000
          -21 4 -23 33 vhcurveto
          hintmask 01010010
          41 41 5 41 hhcurveto
          -311 vlineto
          -24 6 -21 34 vhcurveto
          8 hlineto
          hintmask 10010010
          7 8 -1 7 hhcurveto
          22 21 8 34 hvcurveto
          7 -1 8 7 vvcurveto
          293 vlineto
          32 32 -1 -2 32 hvcurveto
          hintmask 00100000
          -1 8 10 -1 9 hhcurveto
          35 2 24 20 hvcurveto
          endchar
        </CharString>
        <CharString name="dieresis">
          567 106 hstem
          81 56 callgsubr
          vstem
          -50 callgsubr
          endchar
        </CharString>
        <CharString name="dieresis.cap">
          521 106 hstem
          62 37 callgsubr
          vstem
          -18 callgsubr
          endchar
        </CharString>
        <CharString name="dieresis.dup">
          567 106 hstem
          81 56 callgsubr
          vstem
          -50 callgsubr
          endchar
        </CharString>
        <CharString name="dieresis.ts1">
          579 118 hstem
          86 118 66 118 vstem
          388 624 rmoveto
          9 -1 8 8 vvcurveto
          8 vlineto
          31 -18 9 -24 vhcurveto
          -8 -7 -1 -7 hhcurveto
          -13 hlineto
          -4 -4 0 -1 -4 hvcurveto
          -22 -6 -26 -16 hvcurveto
          -8 1 -9 -7 vvcurveto
          -8 vlineto
          -33 17 -9 27 vhcurveto
          8 8 1 7 hhcurveto
          12 hlineto
          31 7 21 23 hvcurveto
          -184 hmoveto
          8 -1 9 7 vvcurveto
          7 vlineto
          29 -15 13 -28 vhcurveto
          -8 -8 -1 -7 hhcurveto
          -12 hlineto
          -4 -4 0 -1 -4 hvcurveto
          -22 -5 -27 -16 hvcurveto
          -8 1 -8 -8 vvcurveto
          -9 vlineto
          -33 20 -7 22 vhcurveto
          8 7 1 7 hhcurveto
          13 hlineto
          33 7 21 23 hvcurveto
          endchar
        </CharString>
        <CharString name="discount">
          22 -21 32 111 463 111 32 132 callsubr
          120 112 -44 112 -58 112 hintmask 00001000
          421 712 rmoveto
          3 vlineto
          20 -16 16 -19 vhcurveto
          hintmask 10110010
          -6 -1 -32 -5 -27 -90 -21 -48 rlinecurve
          -231 -527 -6 -12 -8 -14 -2 -13 rlinecurve
          -5 vlineto
          -19 16 -16 19 vhcurveto
          3 hlineto
          21 2 8 18 7 17 279 636 rcurveline
          5 12 8 13 2 13 rrcurveto
          -189 -60 rmoveto
          -22 -5 -23 -37 vhcurveto
          -26 hlineto
          hintmask 00100100
          88 callsubr
          hintmask 00000010
          27 hlineto
          hintmask 01000101
          23 21 -8 -34 hvcurveto
          122 -599 rmoveto
          -22 -5 -23 -37 vhcurveto
          -26 hlineto
          88 callsubr
          27 hlineto
          23 21 -8 -34 hvcurveto
          endchar
        </CharString>
        <CharString name="divide">
          149 36 106 87 70 87 106 hstem
          316 106 cntrmask 11100000
          685 264 28 callgsubr
          -263 148 rmoveto
          -14 callsubr
          25 vhcurveto
          55 hlineto
          24 1 0 26 hvcurveto
          -350 vmoveto
          22 callgsubr
        </CharString>
        <CharString name="divorced">
          -100 -21 150 88 296 88 149 132 callsubr
          70 104 7 112 7 104 cntrmask 00000111
          hintmask 01101111
          676 262 rmoveto
          64 -10 70 -44 50 vhcurveto
          36 -32 -50 20 -48 hhcurveto
          -5 -6 0 -1 -5 hvcurveto
          -138 -16 -38 -114 -108 vvcurveto
          -104 37 -130 159 vhcurveto
          10 hlineto
          133 12 37 120 101 vvcurveto
          -502 6 rmoveto
          101 -39 132 -155 vhcurveto
          -13 hlineto
          -134 -20 -35 -107 -103 vvcurveto
          -63 9 -71 43 -51 vhcurveto
          -39 34 50 -18 50 hhcurveto
          148 42 132 107 hvcurveto
          119 -342 rmoveto
          681 vlineto
          39 -19 5 -24 vhcurveto
          -29 hlineto
          hintmask 11110111
          -4 -5 0 -1 -4 hvcurveto
          -25 -2 -30 -16 hvcurveto
          -681 vlineto
          -39 19 -5 24 vhcurveto
          29 hlineto
          37 3 24 23 hvcurveto
          295 344 rmoveto
          -59 -10 -94 -84 -25 -25 10 22 -15 vhcurveto
          -21 29 0 34 -4 33 rrcurveto
          13 vlineto
          57 4 98 86 79 15 -85 -58 vhcurveto
          -518 6 rmoveto
          -54 -1 -105 -88 -74 -14 70 58 -7 vhcurveto
          13 vlineto
          58 7 97 87 74 16 -79 -58 vhcurveto
          endchar
        </CharString>
        <CharString name="dlinebelow">
          -107 -177 73 94 64 364 64 212 -20 hstemhm
          32 31 callgsubr
          hintmask 01111100
          -60 callsubr
          hintmask 10000000
          98 -535 -91 callgsubr
        </CharString>
        <CharString name="dollar">
          -35 -21 48 90 352 90 89 90 47 -20 hstem
          53 99 53 64 53 99 cntrmask 00000111
          421 202 rmoveto
          103 -56 89 -96 21 vhcurveto
          201 vlineto
          40 -5 30 -15 30 -24 rrcurveto
          -8 67 callsubr
          2 9 3 hvcurveto
          2 6 9 49 4 vvcurveto
          15 -46 25 -6 3 vhcurveto
          -25 13 -30 9 -29 3 rrcurveto
          17 0 30 -32 -32 0 -31 -17 vhcurveto
          -116 -17 -36 -88 -91 vvcurveto
          -105 67 -77 85 -18 vhcurveto
          -228 vlineto
          -70 10 -41 34 -16 13 rrcurveto
          8 -9 -2 0 -3 85 callsubr
          -2 -6 -9 -49 -4 vvcurveto
          -17 57 -30 5 -3 vhcurveto
          32 -17 33 -9 36 -4 rrcurveto
          -17 0 -31 32 32 0 30 18 vhcurveto
          120 20 32 97 93 vvcurveto
          -216 232 rmoveto
          -48 22 -5 50 18 vvcurveto
          24 6 51 47 14 vhcurveto
          117 -430 rmoveto
          -36 -9 -49 -44 -16 vhcurveto
          205 vlineto
          51 -26 2 -62 -16 vvcurveto
          endchar
        </CharString>
        <CharString name="dollar.oldstyle">
          -10 -34 -21 47 87 538 87 47 -20 hstemhm
          52 100 38 64 72 64 0 64 -64 100 -62 99 hintmask 0000000100000000
          527 201 rmoveto
          81 -49 78 -79 32 vhcurveto
          -7 5 -2 -1 0 vvcurveto
          211 vlineto
          22 -7 22 -8 20 -10 21 -12 rcurveline
          -2 4 4 -3 5 hhcurveto
          hintmask 0001000010000000
          2 hlineto
          14 7 66 6 18 -70 27 -34 10 hvcurveto
          -17 4 rlineto
          13 vlineto
          23 -8 19 -24 vhcurveto
          hintmask 1111111001000000
          -22 -10 -19 -20 hvcurveto
          -8 -72 8 vlineto
          20 -10 19 -22 -22 -10 -17 -23 vhcurveto
          -19 vlineto
          -83 -15 -55 -83 -84 vvcurveto
          -83 55 -59 71 -36 vhcurveto
          13 -7 -1 1 0 vvcurveto
          -236 vlineto
          -39 10 -35 17 -36 20 rrcurveto
          3 -5 -4 4 -6 hhcurveto
          -2 hlineto
          -14 -7 -71 0 -8 7 -5 7 -4 hvcurveto
          21 -12 rlineto
          39 -22 74 -20 0 vvcurveto
          -20 vlineto
          -20 12 -17 20 21 11 16 23 vhcurveto
          8 72 -10 vlineto
          -24 14 -13 18 24 8 20 19 vhcurveto
          20 vlineto
          0 15 5 8 4 vhcurveto
          78 36 36 69 83 vvcurveto
          -201 215 rmoveto
          -72 18 rlineto
          183 72 vlineto
          -136 -156 rmoveto
          -21 16 -17 21 28 vvcurveto
          27 15 28 23 15 vhcurveto
          238 -414 rmoveto
          -33 -14 -25 -24 -21 vhcurveto
          156 vlineto
          22 -22 16 -22 -33 vvcurveto
          -102 -103 rmoveto
          -72 229 hlineto
          72 -21 rlineto
          endchar
        </CharString>
        <CharString name="dong">
          -107 -86 86 0 86 hstemhm
          hintmask 10000000
          476 578 rmoveto
          21 vlineto
          17 -14 13 -16 vhcurveto
          -41 23 hlineto
          30 -6 12 -36 vhcurveto
          -19 hlineto
          -33 -9 -9 -33 hvcurveto
          -23 -88 vlineto
          -16 -15 -13 -17 hvcurveto
          -21 vlineto
          -16 15 -14 16 vhcurveto
          88 -102 hlineto
          17 -14 -33 30 -53 hhcurveto
          -22 -66 -5 -62 -43 hvcurveto
          -41 -60 0 -77 -30 vvcurveto
          -26 0 -75 34 -56 vhcurveto
          -67 40 59 -10 35 hhcurveto
          63 35 47 5 3 hvcurveto
          -30 6 -12 36 vhcurveto
          22 hlineto
          33 9 9 33 hvcurveto
          471 41 vlineto
          16 14 14 16 hvcurveto
          -643 vmoveto
          44 vlineto
          11 -10 10 -11 vhcurveto
          -403 hlineto
          -12 -10 -10 -11 hvcurveto
          -44 vlineto
          -11 10 -10 12 vhcurveto
          403 hlineto
          11 10 10 11 hvcurveto
          -177 196 rmoveto
          hintmask 01000000
          -24 -15 -25 -21 -34 hhcurveto
          -89 0 113 59 59 0 115 99 40 22 -31 -1 2 hvcurveto
          endchar
        </CharString>
        <CharString name="dotaccent">
          -326 561 100 callsubr
          608 rmoveto
          -105 callsubr
          endchar
        </CharString>
        <CharString name="dotaccent.alt">
          -326 524 100 callsubr
          571 rmoveto
          -105 callsubr
          endchar
        </CharString>
        <CharString name="dotaccent.cap">
          -326 521 100 callsubr
          568 rmoveto
          -105 callsubr
          endchar
        </CharString>
        <CharString name="dotlessi">
          32 callgsubr
          hstem
          55 108 vstem
          -74 callgsubr
          endchar
        </CharString>
        <CharString name="dotlessj">
          63 callsubr
          hstem
          82 108 vstem
          -61 callgsubr
          endchar
        </CharString>
        <CharString name="e">
          -152 115 callsubr
          103 0 103 93 86 hintmask 10011000
          411 275 rmoveto
          137 -64 75 -116 -88 -117 -50 -198 -195 119 -54 98 37 31 8 14 31 vhcurveto
          19 9 44 25 19 vvcurveto
          hintmask 01101010
          8 -2 19 -1 9 vhcurveto
          19 -3 0 5 -10 hhcurveto
          -5 -3 -3 -6 -5 hvcurveto
          -56 -47 -61 -6 -21 hhcurveto
          -118 0 148 30 hvcurveto
          238 hlineto
          32 12 7 36 hvcurveto
          -86 4 rmoveto
          -195 hlineto
          hintmask 00110110
          -37 callgsubr
          endchar
        </CharString>
        <CharString name="eacute">
          -23 callsubr
          80 -21 148 -90 callgsubr
          29 404 -97 callsubr
        </CharString>
        <CharString name="ebreve">
          -23 callsubr
          64 80 59 -90 callgsubr
          58 376 -91 callsubr
        </CharString>
        <CharString name="ecaron">
          -23 callsubr
          73 -21 162 -90 callgsubr
          56 403 -88 callsubr
        </CharString>
        <CharString name="ecircumflex">
          -23 callsubr
          73 -21 162 -90 callgsubr
          56 281 -93 callgsubr
          endchar
        </CharString>
        <CharString name="ecircumflexacute">
          -23 callsubr
          73 -21 298 -90 callgsubr
          67 282 rmoveto
          -106 callsubr
          -42 254 -95 callgsubr
        </CharString>
        <CharString name="ecircumflexdotbelow">
          -152 72 callsubr
          -7 callsubr
          73 122 callsubr
          135 callgsubr
          hintmask 0100100100000000
          411 275 rmoveto
          137 -64 75 -116 -88 -117 -50 -198 -195 119 -54 98 37 31 8 14 31 vhcurveto
          19 9 44 25 19 vvcurveto
          hintmask 0011000100100000
          8 -2 19 -1 9 vhcurveto
          19 -3 0 5 -10 hhcurveto
          -5 -3 -3 -6 -5 hvcurveto
          -56 -47 -61 -6 -21 hhcurveto
          -118 0 148 30 hvcurveto
          238 hlineto
          32 12 7 36 hvcurveto
          -86 4 rmoveto
          -195 hlineto
          hintmask 0001101010100000
          -37 callgsubr
          56 281 rmoveto
          -95 137 rlineto
          3 -2 -3 1 -4 hhcurveto
          -111 hlineto
          hintmask 0000010001000000
          -85 callgsubr
          hintmask 1000000001000000
          -101 -713 rmoveto
          -105 callsubr
          endchar
        </CharString>
        <CharString name="ecircumflexgrave">
          -23 callsubr
          73 -21 127 -90 callgsubr
          67 282 rmoveto
          -106 callsubr
          -41 173 -48 callsubr
        </CharString>
        <CharString name="ecircumflexhookabove">
          -23 callsubr
          73 -21 378 -90 callgsubr
          67 282 -96 callgsubr
        </CharString>
        <CharString name="ecircumflextilde">
          -23 callsubr
          73 -21 197 64 -9 64 27 callgsubr
          hintmask 1001000100000000
          411 275 rmoveto
          137 -64 75 -116 -88 -117 -50 -198 -195 119 -54 98 37 31 8 14 31 vhcurveto
          19 9 44 25 19 vvcurveto
          hintmask 0110000101000000
          8 -2 19 -1 9 vhcurveto
          19 -3 0 5 -10 hhcurveto
          -5 -3 -3 -6 -5 hvcurveto
          -56 -47 -61 -6 -21 hhcurveto
          -118 0 148 30 hvcurveto
          238 hlineto
          32 12 7 36 hvcurveto
          -86 4 rmoveto
          -195 hlineto
          hintmask 0011000011000000
          -37 callgsubr
          hintmask 0000101000000000
          67 282 -28 callsubr
        </CharString>
        <CharString name="edblgrave">
          -23 callsubr
          80 -21 148 -90 callgsubr
          32 279 -101 callsubr
        </CharString>
        <CharString name="edieresis">
          -23 callsubr
          80 106 hstemhm
          26 103 -66 111 -45 103 34 111 -52 86 hintmask 1001010000000000
          411 275 rmoveto
          137 -64 75 -116 -88 -117 -50 -198 -195 119 -54 98 37 31 8 14 31 vhcurveto
          19 9 44 25 19 vvcurveto
          hintmask 0110010001000000
          8 -2 19 -1 9 vhcurveto
          19 -3 0 5 -10 hhcurveto
          -5 -3 -3 -6 -5 hvcurveto
          -56 -47 -61 -6 -21 hhcurveto
          -118 0 148 30 hvcurveto
          238 hlineto
          32 12 7 36 hvcurveto
          -86 4 rmoveto
          -195 hlineto
          hintmask 0011000101000000
          -37 callgsubr
          hintmask 0000101010000000
          -151 330 -72 callsubr
        </CharString>
        <CharString name="edotaccent">
          -23 callsubr
          74 118 135 callgsubr
          hintmask 1001010000000000
          411 275 rmoveto
          137 -64 75 -116 -88 -117 -50 -198 -195 119 -54 98 37 31 8 14 31 vhcurveto
          19 9 44 25 19 vvcurveto
          hintmask 0110010010000000
          8 -2 19 -1 9 vhcurveto
          19 -3 0 5 -10 hhcurveto
          -5 -3 -3 -6 -5 hvcurveto
          -56 -47 -61 -6 -21 hhcurveto
          -118 0 148 30 hvcurveto
          238 hlineto
          32 12 7 36 hvcurveto
          -86 4 rmoveto
          -195 hlineto
          hintmask 0011001010000000
          -37 callgsubr
          hintmask 0000100100000000
          -45 329 rmoveto
          -105 callsubr
          endchar
        </CharString>
        <CharString name="edotbelow">
          -152 72 callsubr
          -7 callsubr
          135 callgsubr
          hintmask 0100110000000000
          411 275 rmoveto
          137 -64 75 -116 -88 -117 -50 -198 -195 119 -54 98 37 31 8 14 31 vhcurveto
          19 9 44 25 19 vvcurveto
          hintmask 0011010010000000
          8 -2 19 -1 9 vhcurveto
          19 -3 0 5 -10 hhcurveto
          -5 -3 -3 -6 -5 hvcurveto
          -56 -47 -61 -6 -21 hhcurveto
          -118 0 148 30 hvcurveto
          238 hlineto
          32 12 7 36 hvcurveto
          -86 4 rmoveto
          -195 hlineto
          hintmask 0001101010000000
          -37 callgsubr
          hintmask 1000000100000000
          -45 -432 rmoveto
          -105 callsubr
          endchar
        </CharString>
        <CharString name="egrave">
          -23 callsubr
          80 -21 148 -90 callgsubr
          -39 278 rmoveto
          -74 callsubr
        </CharString>
        <CharString name="ehookabove">
          -23 callsubr
          44 -21 221 -94 callsubr
          hintmask 0000111000000000
          -13 375 -107 callgsubr
        </CharString>
        <CharString name="eight">
          90 callsubr
          hstem
          40 114 166 114 vstem
          434 1 callsubr
        </CharString>
        <CharString name="eight.oldstyle">
          -56 90 callsubr
          hstemhm
          70 113 callgsubr
          464 -4 callgsubr
        </CharString>
        <CharString name="eight.prop">
          -56 90 callsubr
          hstem
          70 114 166 114 vstem
          464 1 callsubr
        </CharString>
        <CharString name="eight.taboldstyle">
          90 callsubr
          hstemhm
          40 113 callgsubr
          434 -4 callgsubr
        </CharString>
        <CharString name="ellipsis">
          56 0 106 hstem
          79 106 85 106 85 106 cntrmask 01110000
          185 26 rmoveto
          -14 callsubr
          25 vhcurveto
          55 hlineto
          24 1 0 26 hvcurveto
          191 hmoveto
          -14 callsubr
          25 vhcurveto
          55 hlineto
          24 1 0 26 hvcurveto
          191 hmoveto
          22 callgsubr
        </CharString>
</ttFont>
